<svg xmlns="http://www.w3.org/2000/svg" width="460" height="360" viewBox="0 0 460 360">
  <defs>
    <style>
      .cls-1 {
        fill: #d13d4f;
      }

      .cls-2 {
        fill: #e5414d;
      }

      .cls-3 {
        fill: #fff;
      }

      .cls-4 {
        fill: #ededed;
      }
    </style>
  </defs>
  <g id="items">
    <g>
      <path class="cls-1" d="M319.65,161.91s68.09,4,103.09,32,43.6,47.44,27.3,50.22-37.3,20.78-36.3,41.78-30.33-3.08-61,18c-16,11-17,20-35,40s-34,23.24-33-16.88-14-93.56-14-93.56Z"/>
      <path class="cls-1" d="M146.66,94.33l-17.32,96.25a196.09,196.09,0,0,0-19.66-3.1c-4.16-.47-8.86-.9-14-1.21A254.68,254.68,0,0,0,68.81,186l-1.19.05C33,187.82,10.84,194,5.68,179.69s-7-19.43,8.89-36.32,31.68-27.78,31.7-41.81S42.74,81.25,53.73,68c.47-.57.94-1.12,1.39-1.65C62,58.28,66.87,54.29,69.35,47.08a41.39,41.39,0,0,0,1.88-12.89c.31-18-7.8-30.64-1.67-32.2s9.83,2.72,23.7,18.77l13.87,16.05s23.5,30.12,30.38,41.48c2.36,3.89,4.18,7,5.54,9.4C145.68,92.31,146.66,94.33,146.66,94.33Z"/>
      <path class="cls-2" d="M319.65,166.76A105.5,105.5,0,0,1,301.59,226a13.48,13.48,0,0,0-9.66-7.78l-7.2,25.95c.33.13.67.23,1,.33l-.66.61A106,106,0,1,1,227.91,61.72a104.55,104.55,0,0,1,23.56,6,106,106,0,0,1,68.18,99.05Z"/>
      <circle class="cls-3" cx="138.24" cy="132.41" r="13.5"/>
      <circle class="cls-3" cx="34.24" cy="148.41" r="13.5"/>
      <path class="cls-3" d="M251.74,70.41a13.5,13.5,0,1,1-23.83-8.69,104.55,104.55,0,0,1,23.56,6A13.29,13.29,0,0,1,251.74,70.41Z"/>
      <circle class="cls-3" cx="284.24" cy="127.41" r="13.5"/>
      <circle class="cls-3" cx="222.24" cy="163.41" r="13.5"/>
      <path class="cls-3" d="M383.14,174a13.5,13.5,0,1,1-18.8-5.22Z"/>
      <circle class="cls-3" cx="401.24" cy="260.41" r="13.5"/>
      <circle class="cls-3" cx="333.24" cy="233.41" r="13.5"/>
      <circle class="cls-3" cx="305.24" cy="306.41" r="13.5"/>
      <circle class="cls-3" cx="200.24" cy="236.41" r="13.5"/>
      <path class="cls-3" d="M143.74,227.41a13.46,13.46,0,0,1-7.28,12,105.59,105.59,0,0,1-15.72-21.58,13.51,13.51,0,0,1,23,9.6Z"/>
      <path class="cls-3" d="M301.59,226a106.09,106.09,0,0,1-15.84,18.5c-.35-.1-.69-.2-1-.33l7.2-25.95A13.48,13.48,0,0,1,301.59,226Z"/>
      <path class="cls-3" d="M291.93,218.18l-7.2,25.95a13.5,13.5,0,0,1,4.51-26.22A13.27,13.27,0,0,1,291.93,218.18Z"/>
      <circle class="cls-4" cx="125.24" cy="84.41" r="13.5"/>
      <path class="cls-4" d="M95.69,186.27A254.68,254.68,0,0,0,68.81,186a13.5,13.5,0,0,1,26.88.23Z"/>
      <path class="cls-4" d="M80.74,60.41a13.5,13.5,0,0,1-25.62,6C62,58.28,66.87,54.29,69.35,47.08A13.48,13.48,0,0,1,80.74,60.41Z"/>
    </g>
  </g>
</svg>
