<svg xmlns="http://www.w3.org/2000/svg" width="270" height="270" viewBox="0 0 270 270">
  <defs>
    <style>
      .cls-1 {
        fill: #d13d4f;
      }

      .cls-2 {
        fill: #603813;
      }

      .cls-3 {
        fill: #e5414d;
      }

      .cls-4 {
        fill: #ffb8c1;
      }
    </style>
  </defs>
  <g id="items">
    <g>
      <path class="cls-1" d="M84.17,252.12s14.69,0,20.9.88,23.21.9,28.21.9,14,.91,18.49.45,8.51-3.45,4.51-6.45-40-11-40-11-22-2-27,1S84.17,252.12,84.17,252.12Z"/>
      <path class="cls-2" d="M116.91,248.9c.37,0-4.63,13-1.63,11S118.39,249,118.39,249s-.11,10.89,1.89,9.89-1-9-1-9,2,12,4,9-1-6-2-8a27.28,27.28,0,0,0-2.14-3.55l-1.86-1.45Z"/>
      <g>
        <path class="cls-1" d="M54.28,35.9s18-2.63,26.5-.32,11.5,4.32,23.5,9.32,14,8,26,6,18-4.72,31-7.86,27.48-3,27.48-3L156.28,60.9l-68,17-27-24Z"/>
        <path class="cls-2" d="M112.28,29.9c1-13,2-20,5-20s4,2,6,2,5-2,2,2-3,3-5,11a223.06,223.06,0,0,0-4,23,47.41,47.41,0,0,0,0,13s-1,4-2,3S111.28,42.9,112.28,29.9Z"/>
        <path class="cls-3" d="M115.28,78.9s31-29,48-33,38-11,54-4,36,26,43,50,9,66-6,90-33,51-57,62-38,12-56,9-34-6-47-3-15,7-39-17-44-53-48-83-6-54,9-76,24-41,46-38,39,23,54,24,44-13,44-13"/>
        <circle class="cls-4" cx="64.78" cy="64.4" r="12.5"/>
        <path class="cls-4" d="M54.87,56.78A59.16,59.16,0,0,0,46.28,66.9c-4,6-8,9-13,21s-11,23-13,33-1,11-1,11,4-13,12-22,11-18,20-24A137.3,137.3,0,0,1,70.46,75.53l.82-.63Z"/>
      </g>
    </g>
  </g>
</svg>
