<svg id="timebar_BG" data-name="timebar BG" xmlns="http://www.w3.org/2000/svg" width="385" height="1415" viewBox="0 0 385 1415">
  <defs>
    <style>
      .cls-1 {
        fill: #666;
      }

      .cls-2 {
        fill: gray;
      }
    </style>
  </defs>
  <g>
    <path class="cls-1" d="M385,194.5v1026c0,95.93-70.18,175.48-162,190.09a192.84,192.84,0,0,1-30.5,2.41C86.19,1413,0,1326.81,0,1220.5V194.5C0,88.19,86.19,2,192.5,2A192.49,192.49,0,0,1,385,194.5Z"/>
    <path class="cls-2" d="M385,194.5v1026c0,95.93-70.18,175.48-162,190.09C131.18,1396,61,1316.43,61,1220.5V194.5C61,98.57,131.18,19,223,4.41A192.54,192.54,0,0,1,385,194.5Z"/>
  </g>
</svg>
