<svg xmlns="http://www.w3.org/2000/svg" width="1920" height="1080" viewBox="0 0 1920 1080">
  <defs>
    <style>
      .cls-1 {
        fill: #020207;
      }

      .cls-2 {
        fill: #080816;
      }

      .cls-3 {
        fill: #0d0d21;
      }

      .cls-4 {
        fill: #14142d;
      }

      .cls-5 {
        fill: #1a1a35;
      }

      .cls-6 {
        fill: #222242;
      }

      .cls-7 {
        fill: #292951;
      }

      .cls-8 {
        fill: #bfbfb0;
        opacity: 0.36;
      }

      .cls-9 {
        fill: #f5ffae;
      }

      .cls-10 {
        fill: #002d14;
      }

      .cls-11 {
        fill: #0f0f0f;
      }

      .cls-12 {
        stroke: #000;
        stroke-miterlimit: 10;
      }

      .cls-13 {
        fill: #1a1a1a;
      }

      .cls-14 {
        fill: #fffdcf;
      }

      .cls-15 {
        fill: none;
      }

      .cls-16 {
        fill: #007033;
      }

      .cls-17 {
        fill: #00592a;
      }

      .cls-18 {
        fill: #042;
      }

      .cls-19 {
        fill: #0d3f1c;
      }

      .cls-20 {
        fill: #083518;
      }

      .cls-21 {
        fill: #333;
      }
    </style>
  </defs>
  <g id="Backgrounds">
    <rect class="cls-1" width="1920" height="312"/>
    <circle class="cls-2" cx="943.69" cy="408.49" r="967.49"/>
    <circle class="cls-3" cx="943.69" cy="408.49" r="847.49"/>
    <circle class="cls-4" cx="943.69" cy="408.49" r="718.49"/>
    <circle class="cls-5" cx="943.69" cy="408.49" r="602.49"/>
    <circle class="cls-6" cx="943.69" cy="408.49" r="495.49"/>
    <circle class="cls-7" cx="943.69" cy="408.49" r="389"/>
    <path class="cls-8" d="M1256.86,382.22C1243.56,230,1115.73,110.49,960,110.49c-164.58,0-298,133.42-298,298q0,6.86.31,13.64C669.44,580.38,800,706.49,960,706.49c164.58,0,298-133.42,298-298Q1258,395.22,1256.86,382.22ZM866,314c5.24-1,36-14,91-14q12.12,0,23,.16a512.35,512.35,0,0,0-114,14h0Z"/>
    <circle class="cls-9" cx="960" cy="408" r="211"/>
    <path class="cls-10" d="M1781.07,1083.09s-2.76-8.19-4.93-10.69-8.56-4.78-8.56-4.78,2.64,10.07,5.31,12.12c2.27,1.75,5.33,1.5,6.47,1.7a90,90,0,0,1-9.86.44c-2.79-.17-5-1.73-8,.91s-6,7.17-4.12,6.34a49.8,49.8,0,0,1,10.88-2.61c4.7-.64,5.62-.58,8.52-2.29"/>
    <path class="cls-10" d="M404.44,1050s1.41-4.2,2.53-5.48,4.38-2.45,4.38-2.45-1.35,5.16-2.72,6.21a6.18,6.18,0,0,1-3.31.87,45.07,45.07,0,0,0,5.05.23c1.43-.09,2.58-.89,4.09.47s3.1,3.67,2.12,3.25a25.45,25.45,0,0,0-5.58-1.34c-2.41-.33-2.89-.3-4.37-1.17"/>
    <g>
      <path class="cls-11" d="M2.45,589.14c9.39,0,96.42,25.6,131.4,34.13s90.44,20.48,108.36,16.21,85.33-17.92,94.71-23.89,57.17-20.48,57.17-20.48S349.72,628.39,331,635.22,215.76,660,182.48,660.81,90.34,646.31,64.74,642s-52.9-1.71-60.58.85S2.45,589.14,2.45,589.14Z"/>
      <path class="cls-11" d="M308.76,636.07s48.64-2.56,68.26,14.5,42.67,23,51.2,26.45,29,19.63,29,19.63-49.49.85-74.23-17.07-79.89-33.94-79.89-33.94l-29.33-2.75Z"/>
      <path class="cls-11" d="M371.05,654.84s14.51,1.71,34.13-18.77,31.57-30.72,32.42-47.78,4.27-37.55,4.27-37.55S447,578.05,447,584.87s-4.27,29-14.51,43.52-17.91,14.5-23.89,29.86-6,22.19-6,22.19Z"/>
      <path class="cls-11" d="M441.87,596.82s4.27-3.41,22.18,10.24,19.63,24.74,26.45,34.13,9.39,24.74,11.1,28.15-17.07-22.18-29-33.27S453,623.27,447,623.27s-19.63,3.41-19.63,3.41Z"/>
      <path class="cls-11" d="M98.56,616.42s8,2.58,26.76-19.6,40.1-68.26,40.1-68.26,1.71-49.49-1.71-66.55-12.79-53.76-12.79-53.76,19.62,20.48,22.18,44.37,10.24,41.81,5.12,58.88-.85,22.18-9.39,41-11.09,21.33-15.36,41-10.6,23.74-2.31,37S162.86,648,162.86,648Z"/>
      <path class="cls-11" d="M166.36,561.49s44.28-34.64,46-44S226,475.66,226,465.42V380.1s11.09,31.57,8.53,55.46,0,46.07-6,68.26-12.8,32.42-29.86,46.07-13.66,12.8-29.87,25.6-21.33,16.21-24.74,27.3,5.12-33.27,5.12-33.27Z"/>
      <path class="cls-11" d="M223.44,511.5s9.39-15.36,35,4.26,33.28,34.13,46.08,43.52,43.51,15.36,46.93,15.36-3.42,6.82-22.19,6.82-33.27-3.41-49.49-16.21S261.84,538.8,249,535.39,228.56,532,217.47,538a98.41,98.41,0,0,1-23.89,8.53L220,519.18Z"/>
    </g>
    <path class="cls-12" d="M1796.5,568.34s-6,86-12,101-26.52,54.95-29,52c-1.35-1.61,1.47-19.88,5-28,10-23,15-35,16-52,.25-23.45,4.76-56.85-13-65Z"/>
    <path class="cls-12" d="M1777.5,606.34c0,1,9-6-5,10s-20,18-26,27-11,15-12,22-4,14-3,15,7-23,14-29c15.8-11.33,16.43-30.76,35-14C1782.85,620.75,1783.51,622.27,1777.5,606.34Z"/>
    <path class="cls-12" d="M1751.5,645.34s-3,5,1,15c11.49,25.1-10.51,37.7-22,50-1,2,3-5.48,10-13,14-15,11-38,7-40s-8-4-9,0,5-7,5-7Z"/>
    <path class="cls-12" d="M1744.5,693.42c-22.85,4.22-35.89,5.13-51-12.08,5.15,6.71,5.94,14,19,17,8.63.48,25.24,1.12,28-1Z"/>
    <path class="cls-12" d="M1722.5,698.34c-3.57-3.22-7.22,18.4-8,21-2,7-2,8-7,15s0-9,1-10c2.66-2.67,8.36-22.23,5.45-25.82-1.45-1.18-4.2-3.9-4.2-3.9Z"/>
    <path class="cls-12" d="M1738.5,657.34c8.17,9.27-34,3.65-40,24a21.78,21.78,0,0,1,11-8c7-2,17-5,20-6s5.12,2.42,5.12,2.42Z"/>
    <path class="cls-12" d="M1793.5,594.34c1,0-8-7,12,4s30,19,43,21,73-1,73-1-62,16-76,14-22-14-32-14-13-2-17,3-8,9-9,12-2-21-2-21Z"/>
    <path class="cls-12" d="M1837.5,627.34s2,5,9,15c12,17.56-11.85,41.18-20,53,6.23-24.78,21.76-24.42,7-56-2-7,1-5-8-13s-13-15-13-15C1814.8,613.69,1834.59,623.94,1837.5,627.34Z"/>
    <path class="cls-12" d="M1835.87,645.49c-13.37-7.47-19.07,28.75-28.37,28.85-7,3-20,12-20,12l-5,8a248.49,248.49,0,0,1,22-13c10-5,14-13,18-18,9.2-16.58,10.81-4,21-6Z"/>
    <path class="cls-12" d="M1883.2,620.33c-18.13,6.65-21.47-20.3-15.7-33,3-8,3-20,9-24s12-10,11-10c-19.46,8.32-25.34,18.06-29,40,0,5-1,8-3,14s0,8-3,10a30.79,30.79,0,0,0-6,6l32,2Z"/>
    <g>
      <rect class="cls-13" x="51.23" y="572.97" width="37.59" height="59.79" rx="10.14"/>
      <path class="cls-13" d="M70.26,479h27a34.17,34.17,0,0,1,32.51,44.68l-22.55,69.79h0c-11.6,35.89-62.38,35.89-74,0h0L10.72,523.68C2.78,499.11,17.41,479,43.24,479Z"/>
      <g>
        <path class="cls-13" d="M48.5,461,43,466.5a3.25,3.25,0,0,1-5.19-.82l-7-13.66-4.44-8.68A3.26,3.26,0,0,1,30.8,439l8.67,4.44,13.66,7a3.06,3.06,0,0,1,.82,5.19Z"/>
        <path class="cls-13" d="M91.55,461,97,466.5a3.25,3.25,0,0,0,5.19-.82l7-13.66,4.44-8.68a3.26,3.26,0,0,0-4.38-4.38l-8.68,4.44-13.66,7a3.06,3.06,0,0,0-.81,5.19Z"/>
      </g>
      <circle class="cls-13" cx="70.02" cy="479" r="41"/>
    </g>
    <g>
      <ellipse class="cls-14" cx="1810.53" cy="45.49" rx="1.69" ry="15.49"/>
      <ellipse class="cls-14" cx="1810.53" cy="45.49" rx="15.49" ry="1.69"/>
    </g>
    <g>
      <ellipse class="cls-14" cx="1872.53" cy="221.49" rx="1.69" ry="15.49"/>
      <ellipse class="cls-14" cx="1872.53" cy="221.49" rx="15.49" ry="1.69"/>
    </g>
    <g>
      <ellipse class="cls-14" cx="707.53" cy="53.49" rx="1.69" ry="15.49"/>
      <ellipse class="cls-14" cx="707.53" cy="53.49" rx="15.49" ry="1.69"/>
    </g>
    <g>
      <ellipse class="cls-14" cx="1038.53" cy="19.49" rx="1.69" ry="15.49"/>
      <ellipse class="cls-14" cx="1038.53" cy="19.49" rx="15.49" ry="1.69"/>
    </g>
    <g>
      <ellipse class="cls-14" cx="203.53" cy="106.49" rx="1.69" ry="15.49"/>
      <ellipse class="cls-14" cx="203.53" cy="106.49" rx="15.49" ry="1.69"/>
    </g>
    <g>
      <ellipse class="cls-14" cx="1395.53" cy="327.49" rx="1.69" ry="15.49"/>
      <ellipse class="cls-14" cx="1395.53" cy="327.49" rx="15.49" ry="1.69"/>
    </g>
    <g>
      <ellipse class="cls-14" cx="1600.53" cy="135.49" rx="0.84" ry="7.69" transform="translate(372.98 1171.43) rotate(-45)"/>
      <ellipse class="cls-14" cx="1600.53" cy="135.49" rx="7.69" ry="0.84" transform="translate(372.98 1171.43) rotate(-45)"/>
    </g>
    <g>
      <ellipse class="cls-14" cx="88.53" cy="283.49" rx="0.84" ry="7.69" transform="translate(-174.53 145.63) rotate(-45)"/>
      <ellipse class="cls-14" cx="88.53" cy="283.49" rx="7.69" ry="0.84" transform="translate(-174.53 145.63) rotate(-45)"/>
    </g>
    <g>
      <ellipse class="cls-14" cx="59.53" cy="35.49" rx="0.84" ry="7.69" transform="translate(-7.66 52.49) rotate(-45)"/>
      <ellipse class="cls-14" cx="59.53" cy="35.49" rx="7.69" ry="0.84" transform="translate(-7.66 52.49) rotate(-45)"/>
    </g>
    <g>
      <ellipse class="cls-14" cx="1255.53" cy="53.49" rx="1.38" ry="12.64" transform="translate(6.82 194.72) rotate(-8.89)"/>
      <ellipse class="cls-14" cx="1255.53" cy="53.49" rx="12.64" ry="1.38" transform="translate(6.82 194.72) rotate(-8.89)"/>
    </g>
    <g>
      <ellipse class="cls-14" cx="1526.53" cy="98.49" rx="1.38" ry="12.64" transform="translate(3.12 237.15) rotate(-8.89)"/>
      <ellipse class="cls-14" cx="1526.53" cy="98.49" rx="12.64" ry="1.38" transform="translate(3.12 237.15) rotate(-8.89)"/>
    </g>
    <g>
      <ellipse class="cls-14" cx="585.53" cy="45.49" rx="13.86" ry="1.51" transform="translate(402.27 603.46) rotate(-76.26)"/>
      <ellipse class="cls-14" cx="585.53" cy="45.49" rx="1.51" ry="13.86" transform="translate(402.27 603.46) rotate(-76.26)"/>
    </g>
    <g>
      <ellipse class="cls-14" cx="570.53" cy="353.49" rx="13.86" ry="1.51" transform="translate(91.64 823.73) rotate(-76.26)"/>
      <ellipse class="cls-14" cx="570.53" cy="353.49" rx="1.51" ry="13.86" transform="translate(91.64 823.73) rotate(-76.26)"/>
    </g>
    <g>
      <ellipse class="cls-14" cx="946.53" cy="94.49" rx="3.57" ry="0.39" transform="translate(629.92 991.49) rotate(-76.26)"/>
      <ellipse class="cls-14" cx="946.53" cy="94.49" rx="0.39" ry="3.57" transform="translate(629.92 991.49) rotate(-76.26)"/>
    </g>
    <g>
      <ellipse class="cls-14" cx="614.53" cy="138.49" rx="3.57" ry="0.39" transform="translate(334.04 702.54) rotate(-76.26)"/>
      <ellipse class="cls-14" cx="614.53" cy="138.49" rx="0.39" ry="3.57" transform="translate(334.04 702.54) rotate(-76.26)"/>
    </g>
    <g>
      <ellipse class="cls-14" cx="427.53" cy="411.49" rx="3.57" ry="0.39" transform="translate(-73.73 729.05) rotate(-76.26)"/>
      <ellipse class="cls-14" cx="427.53" cy="411.49" rx="0.39" ry="3.57" transform="translate(-73.73 729.05) rotate(-76.26)"/>
    </g>
    <g>
      <ellipse class="cls-14" cx="943.69" cy="184.49" rx="0.49" ry="4.52" transform="matrix(0.99, -0.15, 0.15, 0.99, -17.18, 148.09)"/>
      <ellipse class="cls-14" cx="943.69" cy="184.49" rx="4.52" ry="0.49" transform="translate(-17.18 148.09) rotate(-8.89)"/>
    </g>
    <g>
      <ellipse class="cls-14" cx="381.53" cy="53.49" rx="0.49" ry="4.52" transform="matrix(0.99, -0.15, 0.15, 0.99, -3.68, 59.62)"/>
      <ellipse class="cls-14" cx="381.53" cy="53.49" rx="4.52" ry="0.49" transform="translate(-3.68 59.62) rotate(-8.89)"/>
    </g>
    <g>
      <ellipse class="cls-14" cx="493.53" cy="160.49" rx="0.49" ry="4.52" transform="translate(-18.88 78.22) rotate(-8.89)"/>
      <ellipse class="cls-14" cx="493.53" cy="160.49" rx="4.52" ry="0.49" transform="translate(-18.88 78.22) rotate(-8.89)"/>
    </g>
    <g>
      <ellipse class="cls-14" cx="342.53" cy="312.49" rx="0.49" ry="4.52" transform="matrix(0.99, -0.15, 0.15, 0.99, -44.19, 56.7)"/>
      <ellipse class="cls-14" cx="342.53" cy="312.49" rx="4.52" ry="0.49" transform="translate(-44.19 56.7) rotate(-8.89)"/>
    </g>
    <g>
      <ellipse class="cls-14" cx="1338.53" cy="184.49" rx="0.49" ry="4.52" transform="translate(-12.43 209.13) rotate(-8.89)"/>
      <ellipse class="cls-14" cx="1338.53" cy="184.49" rx="4.52" ry="0.49" transform="translate(-12.43 209.13) rotate(-8.89)"/>
    </g>
    <rect class="cls-15" width="1918" height="1079"/>
    <path class="cls-16" d="M1967.92,330.37l-22.17,397.51-783.26,33.46L757.13,778.66,257.75,800l-233.5-8.22L-17.17,371.51-.88,359.13C133.49,342.27,322.37,418.57,397,453c62,28.59,170.45,21.42,265.31-30.87a369.35,369.35,0,0,0,56-37.79c42.5-34.83,94.5-57.27,147.69-70.14h0a512.35,512.35,0,0,1,114-14h.11c12.2-.13,24.13.18,35.65.88q2.94.18,5.85.4h.05c12.9.94,25.28,2.39,36.93,4.28.84.14,1.67.27,2.49.42,6.76,1.14,13.28,2.43,19.51,3.86,57.85,13.29,116.3,49.56,176.32,72.22,39.35,14.85,79.37,23.85,120.34,16.69,103.46-18.1,203.55-123.91,332.13-144.61S1967.92,330.37,1967.92,330.37Z"/>
    <path class="cls-17" d="M-22.17,499.37s130-96.77,258.59-76.07S465.1,549.81,568.55,567.91,769.43,501,865.22,479s257.76-11.32,362.27,74.34S1565.37,724.43,1640,690s172.26-178.73,306.63-161.87l16.29,12.38L1921.5,960.78,1688,969,0,896.88Z"/>
    <g>
      <path class="cls-11" d="M-24.55,537.14c9.39,0,96.42,25.6,131.4,34.13s90.44,20.48,108.36,16.21,85.33-17.92,94.71-23.89,57.17-20.48,57.17-20.48S322.72,576.39,304,583.22,188.76,608,155.48,608.81,63.34,594.31,37.74,590s-52.9-1.71-60.58.85S-24.55,537.14-24.55,537.14Z"/>
      <path class="cls-11" d="M281.76,584.07s48.64-2.56,68.26,14.5,42.67,23,51.2,26.45,29,19.63,29,19.63-49.49.85-74.23-17.07-79.89-33.94-79.89-33.94l-29.33-2.75Z"/>
      <path class="cls-11" d="M344.05,602.84s14.51,1.71,34.13-18.77,31.57-30.72,32.42-47.78,4.27-37.55,4.27-37.55S420,526.05,420,532.87s-4.27,29-14.51,43.52-17.91,14.5-23.89,29.86-6,22.19-6,22.19Z"/>
      <path class="cls-11" d="M414.87,544.82s4.27-3.41,22.18,10.24,19.63,24.74,26.45,34.13,9.39,24.74,11.1,28.15-17.07-22.18-29-33.27S426,571.27,420,571.27s-19.63,3.41-19.63,3.41Z"/>
      <path class="cls-11" d="M71.56,564.42s8,2.58,26.76-19.6,40.1-68.26,40.1-68.26,1.71-49.49-1.71-66.55-12.79-53.76-12.79-53.76,19.62,20.48,22.18,44.37,10.24,41.81,5.12,58.88-.85,22.18-9.39,40.95-11.09,21.33-15.36,41-10.6,23.74-2.31,37S135.86,596,135.86,596Z"/>
      <path class="cls-11" d="M139.36,509.49s44.28-34.64,46-44S199,423.66,199,413.42V328.1s11.09,31.57,8.53,55.46,0,46.07-6,68.26-12.8,32.42-29.86,46.07-13.66,12.8-29.87,25.6-21.33,16.21-24.74,27.3,5.12-33.27,5.12-33.27Z"/>
      <path class="cls-11" d="M196.44,459.5s9.39-15.36,35,4.26,33.28,34.13,46.08,43.52,43.51,15.36,46.93,15.36-3.42,6.82-22.19,6.82-33.27-3.41-49.49-16.21S234.84,486.8,222,483.39,201.56,480,190.47,486a98.41,98.41,0,0,1-23.89,8.53L193,467.18Z"/>
    </g>
    <g>
      <rect class="cls-13" x="24.23" y="520.97" width="37.59" height="59.79" rx="10.14"/>
      <path class="cls-13" d="M43.26,427h27a34.17,34.17,0,0,1,32.51,44.68L80.25,541.47h0c-11.6,35.89-62.38,35.89-74,0h0l-22.56-69.79C-24.22,447.11-9.59,427,16.24,427Z"/>
      <g>
        <path class="cls-13" d="M21.5,409,16,414.5a3.25,3.25,0,0,1-5.19-.82L3.86,400l-4.44-8.68A3.26,3.26,0,0,1,3.8,387l8.67,4.44,13.66,7a3.06,3.06,0,0,1,.82,5.19Z"/>
        <path class="cls-13" d="M64.55,409,70,414.5a3.25,3.25,0,0,0,5.19-.82l7-13.66,4.44-8.68A3.26,3.26,0,0,0,82.25,387l-8.68,4.44-13.66,7a3.06,3.06,0,0,0-.81,5.19Z"/>
      </g>
      <circle class="cls-13" cx="43.02" cy="427" r="41"/>
    </g>
    <path class="cls-18" d="M-43.93,787c.4-2.59,15-15.69,43.93-29.51,37.94-18.09,100.62-37.41,188.68-36C344,724,510,840,571,863s172.66,28.93,259.83-19S993.89,732.21,1087.94,736.1s197,27.66,399,160.78S1864.55,913,1901.78,882s14.33-18.12,14.33-18.12L1918,1079l-214,8L0,1079"/>
    <path class="cls-19" d="M57.38,775.16c7.1,0,8,1.79,13.31-2.7s15.09-5.39,20.42-3.59,10.65,3.59,15.09,3.59,16.86-4.49,24-3.59,11.54,2.69,15.09,5.39,16,8.08,25.74,7.19,15.09.89,19.53,5.39,5.33,7.18,11.54,10.78,21.3,3.59,26.63,6.29,9.76,9.88,12.42,12.57,8,9.89,8,9.89,5.33-1.8,12.43.89,11.54,5.4,14.2,9.89.89,9.88,5.33,14.37,7.1,5.39,12.42,6.29,7.11,4.49,9.77,9.88,1.77,5.39,5.32,10.78,8.88,16.18,13.32,20.67,8,9.88,8.87,13.47,0,8.09.89,11.68,3.55,18,7.1,23.36,5.33,9,3.55,11.68-2.66,7.19-3.55,9.88,1.78,20.67,2.67,27.86,1.77,7.18-.89,12.57a237.72,237.72,0,0,0-8.88,22.46c-1.77,5.39-.89,12.58-1.77,18s-14.21,11.68-19.53,16.17-7.1,10.78-10.65,18.87-6.22,6.29-12.43,9.88-7.1,0-12.43,7.19-9.76,21.56-18.64,21.56-7.1-4.49-16-1.79-15.09,13.47-15.09,13.47,2.66-.9-3.55-.9-21.31.9-25.74,3.6-13.32,7.18-19.53,7.18-32.84,2.7-38.17,2.7H103.53c-6.21,0-22.19-3.59-39-1.8s-27.52-8.08-36.39-9-11.54-.9-16.87-3.59-8-11.68-12.43-16.18-3.55-16.17-10.65-19.76-11.54-3.6-15.09-9,0-5.39-.88-12.57-7.11-14.38-12.43-25.16-6.21-7.19-5.33-17.07,2.67-12.58-.88-19.76-6.22-9.89-10.66-25.16-8-16.17-6.21-23.36,3.55-25.15,1.78-36.83-5.33-9-2.67-17.07,12.43-12.58,12.43-22.46-1.78-9.89-.89-18-.89-9,3.55-13.48,13.32-8.08,16.87-14.37,2.66-9.89,5.32-17.07,0-8.09,4.44-10.78,6.21-9.89,14.2-11.68,11.54-.9,14.2-3.6,6.22-5.39,9.77-9.88,1.77-4.49,6.21-6.29,8-2.69,12.43-.9,3.55,3.6,8,0S57.38,775.16,57.38,775.16Z"/>
    <path class="cls-10" d="M-24.73,900.94s-4.44-10.79-4.44-15.28,4.44-12.58,4.44-12.58,6.22,12.58,5.33,17.07c-.76,3.82-4.08,6.34-5.06,7.57a123.42,123.42,0,0,0,10.38-8.46c2.67-2.7,3.55-6.29,8.88-6.29s12.43,1.79,9.76,2.69a67.18,67.18,0,0,0-13.31,7.19c-5.33,3.59-6.21,4.49-10.65,5.39"/>
    <path class="cls-10" d="M235.57,971.91s2.15-5.22,2.15-7.39-2.15-6.09-2.15-6.09-3,6.09-2.57,8.26c.36,1.85,2,3.07,2.44,3.66a59.9,59.9,0,0,1-5-4.09c-1.29-1.31-1.72-3-4.3-3s-6,.87-4.72,1.3a31.89,31.89,0,0,1,6.44,3.48c2.58,1.74,3,2.17,5.16,2.61"/>
    <path class="cls-10" d="M223.81,900.94c-.89-1.8,1.77-11.68,1.77-11.68a18.21,18.21,0,0,1,4.44,9c.89,5.39.89,15.27,0,16.17a9.09,9.09,0,0,0-1.15,3.18c0,.1-.05.2-.07.3C228.47,919.35,224.69,902.73,223.81,900.94Z"/>
    <path class="cls-10" d="M258.42,899.14a39.71,39.71,0,0,0-13.31,6.29c-6.21,4.49-11.72,7-14.29,10.66s-1.69,3.71,1.86,3.71,8.88-.9,12.43-4.49,6.21-4.49,8.88-8.09A40.75,40.75,0,0,0,258.42,899.14Z"/>
    <path class="cls-10" d="M14.33,944.06c0,7.19,1.77,16.17,5.32,19.76L31.19,975.5s-1.77-11.68-5.32-17.07-3.55-8.08-6.22-10.78A15.23,15.23,0,0,0,14.33,944.06Z"/>
    <path class="cls-10" d="M40.07,945.86c-.89,2.69-3.55,7.18-5.33,13.47s-3.55,16.17-3.55,16.17,1.78,1.8,6.22-5.39,4.43-5.39,5.32-11.68S40.07,945.86,40.07,945.86Z"/>
    <path class="cls-10" d="M118.18,794.92c-2.66,7.19-3.55,12.58-3.55,16.17s5.32,12.58,6.21,13.48,0-7.19,0-13.48,1.78-9.88.89-12.57A6.1,6.1,0,0,0,118.18,794.92Z"/>
    <path class="cls-10" d="M122.1,821.78s5.84-7.09,9.39-10.69,14.21-5.39,18.64-5.39,6.22,3.6,4.44,3.6-5.32.89-13.31,5.39-7.1,5.39-13.32,7.18S122.1,821.78,122.1,821.78Z"/>
    <path class="cls-10" d="M241.46,1038.86s-.05-.36-.13-1c-.45-3.32-1.68-14.2.72-17.84,3.48-5.29,6.38-5.88,5.8-4.11s-.58,11.17-1.74,15.28,3.49-1.17,8.71-4.7a10.43,10.43,0,0,1,10.46-.59,24.68,24.68,0,0,1-5.81,4.12c-3.48,1.76-6.39,5.29-10.45,7A21,21,0,0,1,241.46,1038.86Z"/>
    <path class="cls-10" d="M93.5,885.47l-.78.19c-2.65.61-11.35,2.44-14.46.73-4.53-2.49-5.22-4.85-3.76-4.5s9.07-.35,12.48.3-1.21-2.79-4.45-6.86a8.85,8.85,0,0,1-1.25-8.6,20.28,20.28,0,0,1,3.76,4.5c1.68,2.75,4.75,4.89,6.47,8.13A17.74,17.74,0,0,1,93.5,885.47Z"/>
    <path class="cls-10" d="M131.34,989.5l-.85-.46c-2.89-1.62-12.19-7.11-13.32-11.53-1.63-6.44,0-9.47.92-7.86s8.24,7.34,10.61,10.91,1.56-3.92,2.52-10.89a14,14,0,0,1,6.94-10,29.7,29.7,0,0,1-.92,7.86c-1.1,4.29-.42,9.12-1.93,13.94A28.42,28.42,0,0,1,131.34,989.5Z"/>
    <path class="cls-10" d="M12.74,1065.24c5.34,5.45,9.81,8.52,13,10s13.51.35,14.69-.09-6.46-3-12.1-5.63-8.13-5.75-10.92-6.06A6,6,0,0,0,12.74,1065.24Z"/>
    <path class="cls-10" d="M38.49,1072.84s-3.93-8.33-5.68-13.09,1.09-15.32,2.94-19.4,5.82-4.21,5.08-2.58-1.42,5.27-.72,14.49,1.88,8.79.9,15.25S38.49,1072.84,38.49,1072.84Z"/>
    <path class="cls-10" d="M170.45,916.74s4.44-10.78,4.44-15.27-4.44-12.58-4.44-12.58-6.22,12.58-5.33,17.07c.76,3.82,4.08,6.34,5.06,7.56a123.42,123.42,0,0,1-10.38-8.46c-2.67-2.7-3.55-6.29-8.88-6.29s-12.43,1.8-9.76,2.7a66.76,66.76,0,0,1,13.31,7.18c5.33,3.6,6.21,4.49,10.65,5.39"/>
    <path class="cls-10" d="M137.92,1052.74s0-.29.11-.8c.4-2.72,1.88-11.59,4.59-13.9,3.94-3.36,6.36-3.16,5.51-1.9s-3,8.67-4.83,11.65,3-.12,7.93-1.7a8.59,8.59,0,0,1,8.38,2,20.24,20.24,0,0,1-5.51,1.9c-3.14.58-6.23,2.69-9.83,3.14A17.27,17.27,0,0,1,137.92,1052.74Z"/>
    <path class="cls-10" d="M314.52,922.65c-2.42,6.75-3.78,15.81-1.65,20.42l6.92,15s2.26-11.6.74-17.89-.62-8.83-2.22-12.28A15.31,15.31,0,0,0,314.52,922.65Z"/>
    <path class="cls-10" d="M338.11,933.21c-1.74,2.23-5.75,5.53-9.54,10.83s-8.78,14-8.78,14,1.07,2.3,7.66-2.93,6-3.54,8.93-9.15S338.11,933.21,338.11,933.21Z"/>
    <path class="cls-10" d="M248.87,844s4.44-10.78,4.44-15.28-4.44-12.57-4.44-12.57-6.22,12.57-5.33,17.07c.76,3.82,4.08,6.34,5.06,7.56a123.42,123.42,0,0,1-10.38-8.46c-2.67-2.7-3.55-6.29-8.88-6.29s-12.43,1.8-9.76,2.69a67.46,67.46,0,0,1,13.31,7.19c5.33,3.59,6.21,4.49,10.65,5.39"/>
    <path class="cls-10" d="M1.46,787.33c2.24,6.82,6.72,14.78,11.21,17.06l14.58,7.41s-5.32-10.52-10.36-14.51S11,790.75,7.64,789A15.06,15.06,0,0,0,1.46,787.33Z"/>
    <path class="cls-10" d="M26.46,780.83c0,2.84-1.14,8-.87,14.49s1.66,16.48,1.66,16.48,2.24,1.14,4.22-7.09,2.54-6.54,1.43-12.79S26.46,780.83,26.46,780.83Z"/>
    <path class="cls-10" d="M188.35,772.06a39.9,39.9,0,0,1,3,11.87c.14,2.67-3,9.51-3.59,10.21s-.28-5.33-.52-10-1.55-7.27-1.07-9.3A4.27,4.27,0,0,1,188.35,772.06Z"/>
    <path class="cls-10" d="M186.79,792.11s-4.14-5.05-6.62-7.59-9.6-3.5-12.54-3.34-4,2.88-2.79,2.81,3.55.48,9,3.54,4.9,3.75,9.08,4.86S186.79,792.11,186.79,792.11Z"/>
    <path class="cls-20" d="M352.48,940.79c-3.64,0-4.09.92-6.83-1.39s-7.73-2.76-10.47-1.84-5.46,1.84-7.73,1.84-8.65-2.3-12.3-1.84-5.91,1.38-7.73,2.77-8.2,4.14-13.21,3.68-7.73.46-10,2.77-2.73,3.68-5.92,5.53-10.92,1.84-13.65,3.22-5,5.07-6.38,6.45-4.09,5.07-4.09,5.07a10.2,10.2,0,0,0-6.38.46c-3.64,1.38-5.92,2.77-7.28,5.07s-.46,5.07-2.73,7.37a9.55,9.55,0,0,1-6.38,3.23c-2.73.46-3.64,2.3-5,5.06s-.91,2.77-2.73,5.53-4.56,8.3-6.83,10.6-4.1,5.07-4.56,6.91,0,4.15-.45,6-1.82,9.22-3.64,12-2.73,4.61-1.82,6,1.36,3.69,1.82,5.07-.91,10.6-1.37,14.28-.91,3.69.46,6.45a123.33,123.33,0,0,1,4.55,11.52c.91,2.77.45,6.45.91,9.22s7.28,6,10,8.29,3.64,5.53,5.46,9.68,3.18,3.22,6.37,5.07,3.64,0,6.37,3.68,5,11.06,9.56,11.06,3.65-2.3,8.2-.92,7.74,6.91,7.74,6.91-1.37-.46,1.82-.46,10.92.46,13.2,1.84,6.83,3.69,10,3.69,16.85,1.38,19.58,1.38h17.75c3.19,0,11.38-1.84,20-.92s14.11-4.15,18.66-4.61,5.92-.46,8.65-1.84,4.1-6,6.38-8.3,1.82-8.29,5.46-10.13,5.92-1.85,7.74-4.61,0-2.76.45-6.45,3.64-7.37,6.38-12.9,3.18-3.69,2.73-8.76-1.37-6.45.45-10.13,3.19-5.07,5.47-12.9,4.09-8.3,3.18-12-1.82-12.9-.91-18.89,2.73-4.61,1.37-8.76-6.38-6.45-6.38-11.52.91-5.07.46-9.21.45-4.61-1.82-6.91-6.83-4.15-8.65-7.38-1.37-5.06-2.73-8.75,0-4.15-2.28-5.53-3.18-5.07-7.28-6-5.92-.46-7.29-1.84a52.57,52.57,0,0,1-5-5.07c-1.82-2.3-.91-2.3-3.19-3.23s-4.1-1.38-6.37-.46-1.82,1.85-4.1,0S352.48,940.79,352.48,940.79Z"/>
    <path class="cls-10" d="M394.59,1005.29s2.28-5.53,2.28-7.83-2.28-6.45-2.28-6.45-3.19,6.45-2.73,8.75c.39,2,2.09,3.25,2.59,3.88a62.72,62.72,0,0,1-5.32-4.34c-1.37-1.38-1.82-3.22-4.56-3.22s-6.37.92-5,1.38a34.38,34.38,0,0,1,6.83,3.69c2.73,1.84,3.18,2.3,5.46,2.76"/>
    <path class="cls-10" d="M261.09,1041.69a16,16,0,0,1-1.1-3.79,9.41,9.41,0,0,1,1.1-3.12s1.55,3.12,1.33,4.24a4.21,4.21,0,0,1-1.26,1.87,28.19,28.19,0,0,0,2.58-2.1c.66-.67.88-1.56,2.2-1.56s3.08.45,2.42.67a16.11,16.11,0,0,0-3.3,1.79,5.84,5.84,0,0,1-2.64,1.33"/>
    <path class="cls-10" d="M267.13,1005.29c.45-.92-.91-6-.91-6a9.42,9.42,0,0,0-2.28,4.61c-.45,2.76-.45,7.83,0,8.29a4.64,4.64,0,0,1,.59,1.63l0,.16C264.74,1014.74,266.67,1006.21,267.13,1005.29Z"/>
    <path class="cls-10" d="M249.38,1004.37a20.2,20.2,0,0,1,6.82,3.23c3.19,2.3,6,3.57,7.33,5.47s.87,1.9-.95,1.9a9.11,9.11,0,0,1-6.38-2.31c-1.82-1.84-3.18-2.3-4.55-4.14A21.32,21.32,0,0,1,249.38,1004.37Z"/>
    <path class="cls-10" d="M374.56,1027.41c0,3.68-.91,8.29-2.73,10.14l-5.92,6s.91-6,2.73-8.76,1.82-4.15,3.19-5.53A7.75,7.75,0,0,1,374.56,1027.41Z"/>
    <path class="cls-10" d="M361.36,1028.33a71.49,71.49,0,0,1,2.73,6.91c.91,3.23,1.82,8.3,1.82,8.3s-.91.92-3.19-2.77-2.27-2.76-2.73-6A11.75,11.75,0,0,1,361.36,1028.33Z"/>
    <path class="cls-10" d="M321.3,950.92a24.81,24.81,0,0,1,1.82,8.3c0,1.84-2.73,6.45-3.19,6.91s0-3.69,0-6.91-.91-5.07-.45-6.45A3.1,3.1,0,0,1,321.3,950.92Z"/>
    <path class="cls-10" d="M319.29,964.7s-3-3.64-4.82-5.48-7.28-2.77-9.56-2.77-3.18,1.85-2.27,1.85,2.73.46,6.82,2.76,3.65,2.76,6.83,3.69S319.29,964.7,319.29,964.7Z"/>
    <path class="cls-10" d="M258.07,1076s0-.19.07-.5c.23-1.71.86-7.29-.37-9.15-1.78-2.72-3.27-3-3-2.11s.29,5.73.89,7.84-1.79-.61-4.47-2.42a5.34,5.34,0,0,0-5.36-.3,12.45,12.45,0,0,0,3,2.11c1.79.91,3.27,2.72,5.36,3.62A10.72,10.72,0,0,0,258.07,1076Z"/>
    <path class="cls-10" d="M334,997.36l.4.1c1.36.31,5.82,1.25,7.41.37,2.33-1.28,2.68-2.49,1.93-2.31s-4.65-.18-6.4.16.62-1.43,2.28-3.52a4.52,4.52,0,0,0,.64-4.41,10.51,10.51,0,0,0-1.92,2.31c-.87,1.41-2.44,2.51-3.32,4.17A9,9,0,0,0,334,997.36Z"/>
    <path class="cls-10" d="M314.55,1050.71l.44-.24c1.48-.82,6.25-3.64,6.83-5.91.84-3.3,0-4.85-.47-4s-4.23,3.77-5.45,5.6-.79-2-1.29-5.59a7.15,7.15,0,0,0-3.56-5.12,14.93,14.93,0,0,0,.48,4c.56,2.2.21,4.67,1,7.14A14.58,14.58,0,0,0,314.55,1050.71Z"/>
    <path class="cls-10" d="M362.17,1093.45s2-4.27,2.91-6.71-.56-7.85-1.51-10-3-2.16-2.6-1.32.72,2.7.37,7.43-1,4.51-.46,7.82S362.17,1093.45,362.17,1093.45Z"/>
    <path class="cls-10" d="M294.49,1013.4s-2.27-5.53-2.27-7.84,2.27-6.45,2.27-6.45,3.19,6.45,2.74,8.76c-.39,2-2.1,3.25-2.6,3.88a64,64,0,0,0,5.33-4.34c1.36-1.38,1.82-3.23,4.55-3.23s6.37.92,5,1.38a34.91,34.91,0,0,0-6.83,3.69c-2.73,1.84-3.19,2.3-5.46,2.76"/>
    <path class="cls-10" d="M311.18,1083.15s0-.16-.06-.41c-.2-1.4-1-6-2.35-7.13-2-1.73-3.27-1.62-2.83-1s1.53,4.45,2.47,6-1.54-.07-4.06-.87a4.4,4.4,0,0,0-4.3,1,10.36,10.36,0,0,0,2.83,1c1.61.3,3.19,1.39,5,1.62A8.9,8.9,0,0,0,311.18,1083.15Z"/>
    <path class="cls-10" d="M220.61,1016.43c1.24,3.46,1.93,8.11.84,10.47l-3.55,7.67s-1.16-5.94-.38-9.17.32-4.53,1.14-6.3A7.85,7.85,0,0,1,220.61,1016.43Z"/>
    <path class="cls-10" d="M208.51,1021.84a71,71,0,0,1,4.89,5.56c1.94,2.72,4.5,7.17,4.5,7.17s-.54,1.18-3.92-1.5-3.07-1.81-4.59-4.69A11.74,11.74,0,0,1,208.51,1021.84Z"/>
    <path class="cls-10" d="M254.28,976.08s-2.28-5.53-2.28-7.84,2.28-6.45,2.28-6.45,3.18,6.45,2.73,8.76c-.39,2-2.09,3.25-2.59,3.88a64.4,64.4,0,0,0,5.32-4.34c1.36-1.39,1.82-3.23,4.55-3.23s6.37.92,5,1.38a34.37,34.37,0,0,0-6.83,3.69c-2.73,1.84-3.19,2.3-5.46,2.76"/>
    <path class="cls-10" d="M381.16,947c-1.15,3.5-3.45,7.58-5.75,8.75l-7.48,3.8s2.73-5.4,5.32-7.44,3-3.36,4.74-4.23A7.71,7.71,0,0,1,381.16,947Z"/>
    <path class="cls-10" d="M368.34,943.7a70.65,70.65,0,0,1,.44,7.43c-.14,3.35-.85,8.45-.85,8.45s-1.15.58-2.16-3.64-1.3-3.35-.73-6.55A11.6,11.6,0,0,1,368.34,943.7Z"/>
    <path class="cls-10" d="M285.31,939.2a20.56,20.56,0,0,0-1.52,6.09c-.07,1.36,1.56,4.88,1.84,5.23s.14-2.73.27-5.12.79-3.73.54-4.77A2.16,2.16,0,0,0,285.31,939.2Z"/>
    <path class="cls-10" d="M286.11,949.48s2.12-2.59,3.4-3.89,4.92-1.8,6.43-1.72,2,1.48,1.43,1.45-1.82.25-4.62,1.81-2.51,1.92-4.66,2.5S286.11,949.48,286.11,949.48Z"/>
    <path class="cls-10" d="M1926.07,988.09s-2.76-8.19-4.93-10.69-8.56-4.78-8.56-4.78,2.64,10.07,5.31,12.12c2.27,1.75,5.33,1.5,6.47,1.7a90,90,0,0,1-9.86.44c-2.79-.17-5-1.73-8,.91s-6,7.17-4.12,6.34a49.8,49.8,0,0,1,10.88-2.61c4.7-.64,5.62-.58,8.52-2.29"/>
    <path class="cls-20" d="M1882.38,870.16c7.1,0,8,1.79,13.31-2.7s15.09-5.39,20.42-3.59,10.65,3.59,15.09,3.59,16.86-4.49,24-3.59,11.54,2.69,15.09,5.39,16,8.08,25.74,7.19,15.09.89,19.53,5.39,5.33,7.18,11.54,10.78,21.3,3.59,26.63,6.29,9.76,9.88,12.42,12.57,8,9.89,8,9.89,5.33-1.8,12.43.89,11.54,5.4,14.2,9.89.89,9.88,5.33,14.37,7.1,5.39,12.42,6.29,7.11,4.49,9.77,9.88,1.77,5.39,5.32,10.78,8.88,16.18,13.32,20.67,8,9.88,8.87,13.47,0,8.09.89,11.68,3.55,18,7.1,23.36,5.33,9,3.55,11.68-2.66,7.19-3.55,9.88,1.78,20.67,2.67,27.86,1.77,7.18-.89,12.57a237.72,237.72,0,0,0-8.88,22.46c-1.77,5.39-.89,12.58-1.77,18s-14.21,11.68-19.53,16.17-7.1,10.78-10.65,18.87-6.22,6.29-12.43,9.88-7.1,0-12.43,7.19-9.76,21.56-18.64,21.56-7.1-4.49-16-1.79-15.09,13.47-15.09,13.47,2.66-.9-3.55-.9-21.31.9-25.74,3.6-13.32,7.18-19.53,7.18-32.84,2.7-38.17,2.7h-34.62c-6.21,0-22.19-3.59-39-1.8s-27.52-8.08-36.39-9-11.54-.9-16.87-3.59-8-11.68-12.43-16.18-3.55-16.17-10.65-19.76-11.54-3.6-15.09-9,0-5.39-.88-12.57-7.11-14.38-12.43-25.16-6.21-7.19-5.33-17.07,2.67-12.58-.88-19.76-6.22-9.89-10.66-25.16-8-16.17-6.21-23.36,3.55-25.15,1.78-36.83-5.33-9-2.67-17.07,12.43-12.58,12.43-22.46-1.78-9.89-.89-18-.89-9,3.55-13.48,13.32-8.08,16.87-14.37,2.66-9.89,5.32-17.07,0-8.09,4.44-10.78,6.21-9.89,14.2-11.68,11.54-.9,14.2-3.6,6.22-5.39,9.77-9.88,1.77-4.49,6.21-6.29,8-2.69,12.43-.9,3.55,3.6,8,0S1882.38,870.16,1882.38,870.16Z"/>
    <path class="cls-10" d="M1800.27,995.94s-4.44-10.79-4.44-15.28,4.44-12.58,4.44-12.58,6.22,12.58,5.33,17.07c-.76,3.82-4.08,6.34-5.06,7.57a123.42,123.42,0,0,0,10.38-8.46c2.67-2.7,3.55-6.29,8.88-6.29s12.43,1.79,9.76,2.69a67.18,67.18,0,0,0-13.31,7.19c-5.33,3.59-6.21,4.49-10.65,5.39"/>
    <path class="cls-10" d="M1839.33,1039.06c0,7.19,1.77,16.17,5.32,19.76l11.54,11.68s-1.77-11.68-5.32-17.07-3.55-8.08-6.22-10.78A15.23,15.23,0,0,0,1839.33,1039.06Z"/>
    <path class="cls-10" d="M1865.07,1040.86c-.89,2.69-3.55,7.18-5.33,13.47s-3.55,16.17-3.55,16.17,1.78,1.8,6.22-5.39,4.43-5.39,5.32-11.68S1865.07,1040.86,1865.07,1040.86Z"/>
    <path class="cls-10" d="M1918.5,980.47l-.78.19c-2.65.61-11.35,2.44-14.46.73-4.53-2.49-5.22-4.85-3.76-4.5s9.07-.35,12.48.3-1.21-2.79-4.45-6.86a8.85,8.85,0,0,1-1.25-8.6,20.28,20.28,0,0,1,3.76,4.5c1.68,2.75,4.75,4.89,6.47,8.13A17.74,17.74,0,0,1,1918.5,980.47Z"/>
    <path class="cls-10" d="M1826.46,882.33c2.24,6.82,6.72,14.78,11.21,17.06l14.58,7.41s-5.32-10.52-10.36-14.51-5.89-6.54-9.25-8.25A15.06,15.06,0,0,0,1826.46,882.33Z"/>
    <path class="cls-10" d="M1851.46,875.83c0,2.84-1.14,8-.87,14.49s1.66,16.48,1.66,16.48,2.24,1.14,4.22-7.09,2.54-6.54,1.43-12.79S1851.46,875.83,1851.46,875.83Z"/>
    <path class="cls-21" d="M1233.5,1080h-547l.24-1,47.61-203.12,22.78-97.2L824.5,491.21,865.85,314.8l.14-.61c15.26-3.69,30.62-6.61,45.88-8.79l.11,0A516.37,516.37,0,0,1,1015.71,301q8.28.7,16.54,1.69l26.29,3,2.46.28,0,.14L1101,489l57.39,254,4.1,18.38Z"/>
    <g>
      <ellipse class="cls-14" cx="1461.26" cy="233.01" rx="0.84" ry="7.69" transform="translate(263.23 1101.52) rotate(-45)"/>
      <ellipse class="cls-14" cx="1461.26" cy="233.01" rx="7.69" ry="0.84" transform="translate(263.23 1101.52) rotate(-45)"/>
    </g>
    <path class="cls-9" d="M861.73,315.24l-.07.32C858.55,316.05,861.73,315.24,861.73,315.24Z"/>
    <path class="cls-21" d="M1022.24,239.91c-8.58-13.75-22.37-21.52-34.59-20.74l-.34-.54a14.7,14.7,0,0,0,1-2,15,15,0,0,0,1.25-6.32c.3-.07.6-.14.9-.23,3.92-1.16,6.73-4,7.22-6.82-2-2.14-5.85-2.95-9.77-1.79a9.52,9.52,0,0,0-1.1.39,15.36,15.36,0,0,0-1.63-2s-1.13-1.08-1.75-1.57a11.64,11.64,0,0,0,.45-1.08c1.37-3.85.77-7.76-1.27-9.85-2.89.34-5.82,3-7.19,6.84-.11.3-.2.59-.28.89a15.07,15.07,0,0,0-6.38.91,14.24,14.24,0,0,0-2,.93l-.52-.37c1.43-12.16-5.59-26.35-18.87-35.64-11.61-8.13-25.1-10.48-35.61-7.25,8.64,10.79,11.31,24,6.23,34.1a15.19,15.19,0,0,1,12.39,23.89c-.24.34-.49.68-.75,1h0a46.44,46.44,0,0,1,4.94,5.16c.93,1.11,1.93,2.38,2.95,3.82,3.62,5.1,2.41,21,2.41,21l.7,0c3.08-.05,15.54,0,20.44,3.87,1.38,1.1,2.6,2.16,3.66,3.15a45,45,0,0,1,4.89,5.21h0v0c.33-.24.68-.48,1-.7a15.18,15.18,0,0,1,23.19,13.65c10.35-4.54,23.41-1.17,33.73,8C1031.36,265.54,1029.73,251.94,1022.24,239.91Z"/>
  </g>
</svg>
