<svg xmlns="http://www.w3.org/2000/svg" width="300" height="460" viewBox="0 0 300 460">
  <defs>
    <style>
      .cls-1 {
        fill: #73558e;
      }

      .cls-2 {
        fill: #5b4472;
      }

      .cls-3 {
        fill: #eae665;
      }
    </style>
  </defs>
  <g id="items">
    <g>
      <g>
        <path class="cls-1" d="M258.3,50.41s13.1-35.28,27.23-34.56,19.22,13.63,9,23.39S258.3,50.41,258.3,50.41Z"/>
        <path class="cls-2" d="M257,50.4s1.12-36.74,11.14-42.57,16.52,3.1,11.6,16.28S257,50.4,257,50.4Z"/>
        <path class="cls-1" d="M259.84,49.65s11.54-35.82,0-44S236.3,4.47,238.3,18.47,259.84,49.65,259.84,49.65Z"/>
      </g>
      <g>
        <path class="cls-1" d="M46.17,408.63s-21.23,31.08-34.76,27S-4,417.73,8.33,410.73,46.17,408.63,46.17,408.63Z"/>
        <path class="cls-2" d="M47.38,409s-9.94,35.38-21.07,38.62S11,440.58,19,429,47.38,409,47.38,409Z"/>
        <path class="cls-1" d="M44.49,409s-19.84,32-10.62,42.7,22.56,6.83,24-7.24S44.49,409,44.49,409Z"/>
      </g>
      <rect class="cls-1" x="100.96" y="15.68" width="109.39" height="429.3" rx="35.84" transform="matrix(0.87, 0.5, -0.5, 0.87, 136.02, -46.97)"/>
      <path class="cls-3" d="M230.65,33.12s1.43,46.29,7.43,65.13c8.67,27.22,24.47,56.32,24.47,56.32l-11,19.09s-24.78-47.19-31.78-74.19C214.82,80.45,212,34.4,212,34.4l5.75-2.93,5-1,7.39-.2Z"/>
      <path class="cls-3" d="M172.73,91.36s5,49.11,18,75.11,29.85,60.75,29.85,60.75L207.37,250s-28.62-56.56-36.62-79.56-12.67-53.85-12.67-53.85Z"/>
      <path class="cls-3" d="M129.73,165.36s5,49.11,18,75.11,30,61,30,61l-13,23s-29-57-37-80-13-54-13-54Z"/>
      <path class="cls-3" d="M87.73,238.36s5,49.11,18,75.11,30,61,30,61l-13,23s-29-57-37-80-13-54-13-54Z"/>
      <path class="cls-3" d="M43,316.05c-.26,1.42,11.74,39.42,19.74,58.42S92.8,428.56,92.8,428.56a36.91,36.91,0,0,1-7.26,1.72c-2.79.19-5.06,1-9.42-.43s-21.37-34.38-27.37-50.38-16.06-45.55-16.06-45.55Z"/>
    </g>
  </g>
</svg>
