<svg xmlns="http://www.w3.org/2000/svg" width="250" height="370" viewBox="0 0 250 370">
  <defs>
    <style>
      .cls-1 {
        fill: #006837;
      }

      .cls-2 {
        fill: #f7931e;
      }

      .cls-3 {
        fill: #fbb03b;
      }
    </style>
  </defs>
  <g id="items">
    <g>
      <g>
        <path class="cls-1" d="M76.48,7.43s1-6,5-6,3,4,3,9,0,19-1,24-3.72,13.71-3,22.87c1,11.13,2,5.26,4,14.13S82.2,82.32,81.34,84.37s-3.76,5.06-3.76,5.06-1.1-64.22-1.1-67.11Z"/>
        <path class="cls-1" d="M77.58,89.43s-12.1-31-12.1-49,0-35,1-36,7-1,7-1a47.41,47.41,0,0,0,0,13c1,7,3,39.64,3,39.64l4.86,28.3Z"/>
        <path class="cls-1" d="M39.48,13.43c3-2,4-3,8-4s3,2,4,8,7,16,8,22,5,9.83,6,15.41,4.24,11.81,6.62,18.7,5.48,15.89,5.48,15.89l-6.1,1s-17-34-20-42-11-24.12-12-28.56S39.48,13.43,39.48,13.43Z"/>
        <path class="cls-1" d="M23.48,22.43c3-1,1-4,5-3s7,4,9,9S74,92.27,74,92.27s-4.49,2.16-14.49-9.84-27-46-30-49S23.48,22.43,23.48,22.43Z"/>
        <path class="cls-1" d="M6.48,26.43c1,0,4,1,19,12s25,26,31,32,9,22.59,9,22.59S37.65,55.24,30.56,49.84,12.48,38.43,9.48,34.43s-7-6-6.53-8S6.48,26.43,6.48,26.43Z"/>
      </g>
      <path class="cls-2" d="M57.48,80.43c2,1,9.21,9,18.1,0s2.9-15,6.9-17-2.85-9,15.57,0,22.43,9,29.43,29,6,24,17,35,12,15,15,27,10,27,19,41,10,16,13,25-1,17,9,28,7,6,10,15,3,3,5,13,0,8,5,14,2-3,6,9-2,5,5,17,8,5,8,16-6,.43,0,15.22,9,13.78,7,19.78-23-13-38-30-31-44-40-54-5-2-12-11-2-6-8-12-18-18-33-36-21.58-39.19-34.79-56.6-9.21-15.4-19.21-29.4-5-6-9-21-9-19-3-28l6-9"/>
      <path class="cls-1" d="M4.48,34.43c5,0,14.59,0,19.29,3S41.53,50.9,44.51,55.17s11.8,19.27,11.8,19.27-20-25.37-31.43-27.69-17.4-2.63-20.4-4S4.48,34.43,4.48,34.43Z"/>
      <path class="cls-3" d="M119.48,96.43c-1,4-3,12-11,15s-12,9-15,8,1,3,2,2,9.9-2.75,10.45-3.37,8.55-5.63,9.55-6.63S119.48,96.43,119.48,96.43Z"/>
      <path class="cls-3" d="M97.48,164.43c4,0,12-4,15-7a76.15,76.15,0,0,0,7-9s-1,10-4,12-11,6-14,6A4.33,4.33,0,0,1,97.48,164.43Z"/>
      <path class="cls-3" d="M163.48,173.43c-3,3-4,7-7,8s-5,4-8,4-1.16,3.08-1.58,3,6.82.27,8.2-1.38,5.26-3.62,4.82-6.14S163.48,173.43,163.48,173.43Z"/>
      <path class="cls-3" d="M48.72,98.73a33.31,33.31,0,0,0,22.15,0,108,108,0,0,0,25.61-14.3c4-3-2.19,5-4.1,6s-6.9,7.41-15.9,10.21-16.34,5.12-20.17,4S48.72,98.73,48.72,98.73Z"/>
      <path class="cls-3" d="M113.74,222.29c1.74-.86,11.74-1.86,20.74-6.86a66.09,66.09,0,0,0,16-13c1-1-3.26,8.65-7.13,11.33s-13.72,7.39-18.29,8.53S113.74,222.29,113.74,222.29Z"/>
      <path class="cls-3" d="M160.48,230.43c3-2,16-11,16-11l3.8-6.85s-2.8,10.85-6.8,13.85S160.48,230.43,160.48,230.43Z"/>
      <path class="cls-3" d="M150.63,258.88s-1.64,1.94.66,1.46a20,20,0,0,0,3.81-1.46c7.38-3.45,15.18-8.88,15.28-9.66s-3.9,10.18-6.9,11.2-10.86.5-11.43-.24"/>
      <path class="cls-3" d="M197.48,284.43c5-6,10-9,10-11a20.34,20.34,0,0,1,1-5s0,10-4,13S197.48,284.43,197.48,284.43Z"/>
      <path class="cls-3" d="M197.48,321.7s7-.27,9-7.27,4-10,4-10,2,9.11-2,11.06-2,6.48-5.5,6.21A28.92,28.92,0,0,0,197.48,321.7Z"/>
      <path class="cls-3" d="M224.48,331.43c.36-.27.72-.54,1.06-.81,3.45-2.72,5.85-5.28,4.94-6.19s2.39,2,.19,3.5-9,3.5-9,3.5"/>
    </g>
  </g>
</svg>
