<svg xmlns="http://www.w3.org/2000/svg" xmlns:xlink="http://www.w3.org/1999/xlink" width="1375" height="1000" viewBox="0 0 1375 1000">
  <defs>
    <style>
      .cls-1 {
        fill: url(#radial-gradient);
      }

      .cls-2 {
        fill: url(#radial-gradient-2);
      }

      .cls-3 {
        fill: #1a1a1a;
      }

      .cls-4 {
        fill: #ad313a;
      }

      .cls-5 {
        fill: #ffe5d7;
      }

      .cls-6 {
        fill: #0c0c0c;
      }

      .cls-7 {
        fill: #eaeaea;
      }

      .cls-8 {
        fill: #ffdbc7;
      }

      .cls-9 {
        fill: #333;
      }

      .cls-10 {
        fill: #fff;
      }

      .cls-11, .cls-17, .cls-31 {
        fill: none;
        stroke-linecap: round;
      }

      .cls-11 {
        stroke: #1a1a1a;
      }

      .cls-11, .cls-17 {
        stroke-linejoin: round;
        stroke-width: 4px;
      }

      .cls-12 {
        fill: #a8a8a8;
      }

      .cls-13 {
        fill: #1c0d2b;
      }

      .cls-14 {
        fill: #243515;
      }

      .cls-15 {
        fill: #3c2151;
      }

      .cls-16 {
        fill: #ffcab0;
      }

      .cls-17 {
        stroke: #c1272d;
      }

      .cls-18 {
        fill: #463200;
      }

      .cls-19 {
        fill: #f9ec53;
      }

      .cls-20 {
        fill: #f15a24;
      }

      .cls-21 {
        fill: #42210b;
      }

      .cls-22 {
        fill: #754c24;
      }

      .cls-23 {
        fill: #8c6239;
      }

      .cls-24 {
        stroke: #000;
      }

      .cls-24, .cls-31 {
        stroke-miterlimit: 10;
      }

      .cls-24, .cls-25 {
        opacity: 0.07;
      }

      .cls-26 {
        fill: #e25327;
      }

      .cls-27 {
        fill: #d84523;
      }

      .cls-28 {
        fill: #c13223;
      }

      .cls-29 {
        fill: #cc3921;
      }

      .cls-30 {
        fill: #af281e;
      }

      .cls-31 {
        stroke: #333;
        stroke-width: 3px;
      }

      .cls-32 {
        opacity: 0.1;
      }
    </style>
    <radialGradient id="radial-gradient" cx="964.5" cy="1107.98" r="290.26" gradientTransform="translate(0 785.22) scale(1 0.14)" gradientUnits="userSpaceOnUse">
      <stop offset="0" stop-color="#333" stop-opacity="0.5"/>
      <stop offset="0.64" stop-color="#333" stop-opacity="0.3"/>
      <stop offset="0.84" stop-color="#333" stop-opacity="0.1"/>
      <stop offset="1" stop-color="#333" stop-opacity="0"/>
    </radialGradient>
    <radialGradient id="radial-gradient-2" cx="449.74" cy="1111.49" r="290.26" gradientTransform="translate(-34.56 789.72) scale(0.89 0.14)" xlink:href="#radial-gradient"/>
  </defs>
  <g id="items">
    <ellipse class="cls-1" cx="964.5" cy="943.02" rx="409" ry="49.7"/>
    <ellipse class="cls-2" cx="363.5" cy="948.02" rx="362" ry="49.7"/>
    <ellipse class="cls-3" cx="195.5" cy="839.82" rx="34" ry="12.5"/>
    <path class="cls-4" d="M564.71,942.32s-5.23-2.09-15.31-5.52c-3.86-1.31-8.43-2.82-13.69-4.48-19-6-36-14-55-21a44.24,44.24,0,0,0-12.38-2.65c-.89-.06-1.77-.09-2.66-.1-8.93-.08-18.11,2.36-27.65,6.67a146.52,146.52,0,0,0-18.31,10.08c-1.41.9-2.84,1.73-4.27,2.48A67.74,67.74,0,0,1,389,935.41a80.72,80.72,0,0,1-18.47-.67c-1.76-.26-3.43-.57-5-.91-2.12-.46-4.06-1-5.79-1.51-9.94-3.06-26.31-6.7-42-5.57h0a62.1,62.1,0,0,0-14,2.57,198.77,198.77,0,0,1-33.52,7.22c-1,.13-1.95.24-2.93.35a129.1,129.1,0,0,1-17.78.82l-.61,0a59.94,59.94,0,0,1-11.16-1.37c-.89-.21-1.75-.41-2.59-.59h0c-3.78-.84-7.12-1.47-10.38-1.88-.74-.1-1.47-.19-2.2-.26h-.09c-6.65-.67-13.2-.48-22.46.44h0c-2.72.28-5.67.62-8.93,1h0c-.76.08-1.53.18-2.32.28l-2.08.27h0c-1.66.22-3.22.45-4.7.67A136.12,136.12,0,0,0,167,939.32c-.72.2-1.38.39-2,.58l-.21.06-.21.07a23.49,23.49,0,0,0-5.6,2.29s.21-1.09.61-3.07c.21-1.07.48-2.41.8-4,.41-2,.9-4.37,1.47-7.07h0c0-.12,0-.24.07-.36h0a.14.14,0,0,0,0-.06h0c1-4.65,2.18-10.19,3.56-16.34,1.72-7.64,3.73-16.22,5.95-25.11,2.77-11.1,5.88-22.7,9.18-33.64.15-.51.31-1,.46-1.51,0-.15.09-.3.14-.45l.09-.29c2.21-7.21,4.51-14.08,6.86-20.29.32-.87.65-1.73,1-2.57.85-2.17,1.7-4.25,2.56-6.22a42.38,42.38,0,0,1,6.58-10.14,104.06,104.06,0,0,1,15.36-14.37h0c3-2.37,6.29-4.75,9.73-7.12.66-.46,1.33-.91,2-1.37,8.34-5.61,17.67-11.15,27.49-16.45h0a558.56,558.56,0,0,1,82.79-36.05,202.14,202.14,0,0,1,23.93-6.7,51.51,51.51,0,0,1,5.48-.79l.4,0H366a38.44,38.44,0,0,1,4.55.36c6.46.79,17.14,3,30.27,6.29,3.45.89,7.1,1.85,10.87,2.88l0,0c52,14.41,130.11,43.95,148,80.48C585.71,871.32,564.71,942.32,564.71,942.32Z"/>
    <path class="cls-3" d="M253.79,822.18s.71,32.14,3.71,52.14,8,43,8,43,42-4,43-2,16-32.79,19-38c8-14,12-36,12-36l-68.87-19.14Z"/>
    <path class="cls-3" d="M478.5,807.32s-.07,3.1-.21,8h0c-.43,14.34-1.56,44.23-3.79,59.1-1.84,12.28-4.44,25.69-6.17,34.21l-.45,2.24c-.84,4.06-1.38,6.55-1.38,6.55s-16-1.52-28.48-2.22c-7.75-.43-14.14-.55-14.52.22s-2.7-3.11-5.64-8.6c-5.36-10-12.68-25.59-13.36-29.4-1.11-6.18-4.68-17.87-7.65-27-2.37-7.36-4.35-13.1-4.35-13.1l68.87-15Z"/>
    <path class="cls-5" d="M546.34,555.65h0v1.16a180.91,180.91,0,0,1-4.54,40.39q-2,8.6-4.73,16.86v0q-1.68,5-3.64,9.92a181.2,181.2,0,0,1-77.36,89.18c-1.54.89-3.11,1.76-4.68,2.61h0c-3.07,1.65-6.18,3.22-9.36,4.7a178.4,178.4,0,0,1-39.09,13c-.72.16-1.43.3-2.15.44q-6.7,1.32-13.56,2.12-8.25,1-16.71,1.2-2.1.06-4.2.06h-.8c-1,0-1.9,0-2.85,0-1.16,0-2.32,0-3.47-.1q-8.08-.29-16-1.28c-2.52-.31-5-.68-7.51-1.1-2.09-.35-4.16-.73-6.22-1.16h0a179.56,179.56,0,0,1-36.35-11.58,0,0,0,0,0,0,0q-5.18-2.28-10.18-4.88c-1.3-.67-2.6-1.36-3.88-2.06A181,181,0,0,1,193.7,611.26v0c-.46-1.46-.91-2.94-1.33-4.42v0A179.25,179.25,0,0,1,186.57,578a.09.09,0,0,0,0-.05,181.43,181.43,0,0,1-1.22-21.1q0-4.74.24-9.42c.19-3.71.49-7.38.91-11q.9-8,2.48-15.75A180.62,180.62,0,0,1,365.5,376.32h.34c1,0,2.05,0,3.07,0h.14l1.45,0A180.36,180.36,0,0,1,536.62,498.24l.45,1.33a180.25,180.25,0,0,1,9.26,55.15v.91h0Z"/>
    <path class="cls-6" d="M535.51,483.33s-.92-2.22-2.85-6l-.47-.93c-10.2-19.74-44.68-75.87-114.61-93.61a181.91,181.91,0,0,0-44.84-5.44c-.75,0-1.5,0-2.24,0-.49,0-1,0-1.45,0h-.14c-1.14,0-2.28,0-3.41.08C220.88,381.72,191.05,514.49,187,536.94c-.37,2.08-.52,3.21-.52,3.21a314.18,314.18,0,0,0,41.22-39.73,162.88,162.88,0,0,0,19.43-27.74c6.88-12.84,11.63-12.4,14.89-6.73,4,6.89,5.73,21.52,6.43,29.47.28,3.26.38,5.4.38,5.4s9.11-56,23.28-33,43.52,37,43.52,37-14-48.74-18.38-64c0,0,0,0,0,0-.32-1.13-.59-2.07-.79-2.79a34.21,34.21,0,0,0,1.75,4.69l0,.06a27.23,27.23,0,0,0,23.47,16.07s0-23,15.19,1a138.89,138.89,0,0,0,8.58,12.11c1.7,2.15,3.38,4.12,5,5.94,9.92,11.09,17.79,15.95,17.79,15.95s-8.81-69.28,9.11-56c4.36,3.24,6.93,4.63,8.2,4.74s1.26-1,.54-2.75a21.5,21.5,0,0,0-1.12-2.3c-3.92-7.18-13.84-19.6-14.65-20.62.34.37,2,2.21,4.46,5.06h0c3,3.49,7.32,8.51,12,14.24,9.55,11.66,20.77,26.3,26.42,37.05a2.1,2.1,0,0,1,.15.3c2.47,4.73,3.82,8.68,3.45,11.27,0,.24-.06.47-.08.68-1.13,11.86,21.33-29,21.33-46.68,0-6.75,23.49,47.59,15.19,20-1.07-3.55-3-19-3-19s13.16,22,38.46,33c7.45,3.24,20.09,17.63,28.34,27.75,4.63,5.66,7.88,10,8.08,10.24Z"/>
    <path class="cls-3" d="M534.51,481.33s-.6-1.46-1.85-4l-.47-.93c-8.7-17.52-42.73-76.49-114.27-95.26a181.1,181.1,0,0,0-46.18-5.79H370.5c-1.68,0-3.35,0-5,.08-69.95,1.78-113.2,33.53-139.69,68.52-21.66,28.59-32.12,59.36-36.84,77.69a155.52,155.52,0,0,0-3.46,16.53l1-.78.54-.43a316.5,316.5,0,0,0,39.7-38.52,162.88,162.88,0,0,0,19.43-27.74c7.61-14.22,12.63-12.16,15.89-4.73,4.75,10.78,5.81,32.87,5.81,32.87s.21-1.29.62-3.4c2.26-11.77,10.64-49.11,22.66-29.6,14.17,23,43.52,37,43.52,37S318.5,446.59,315.48,436a35.18,35.18,0,0,0,1.79,4.79s0,0,0,0c.3.66.62,1.28,1,1.88l0,.06a27.24,27.24,0,0,0,22.47,14.07s0-23,15.19,1a137.56,137.56,0,0,0,9.58,13.36q2.58,3.15,5,5.79c9.44,10.31,16.79,14.85,16.79,14.85s-8.81-69.28,9.11-56c8.79,6.52,10.29,5.56,8.62,1.69s-6.34-10.43-10.18-15.55h0c-2.6-3.46-4.8-6.22-5.37-6.95,1.2,1.35,8.8,9.87,17.52,20.57,9.9,12.19,21.26,27.2,26.29,37.68a2.1,2.1,0,0,1,.15.3c1.82,3.84,2.77,7.06,2.45,9.27-.34,2.37,0,3.14.92,2.68,4.28-2.23,20.33-33.73,20.33-48.68,0-6.75,23.49,47.59,15.19,20-1.07-3.55-3-19-3-19s13.16,22,38.46,33c7.61,3.31,20.65,18.28,28.89,28.42,4.34,5.33,7.35,9.32,7.53,9.57Z"/>
    <path class="cls-7" d="M228.55,803.35s60.95,54,124,54,144.18-52.94,146.09-54S432.45,743.3,404,734.81s-42.87-6.49-42.87-6.49-57.61,8-89.6,29S228.55,803.35,228.55,803.35Z"/>
    <g>
      <circle class="cls-8" cx="270.63" cy="629.32" r="35"/>
      <circle class="cls-8" cx="461.04" cy="629.32" r="35"/>
    </g>
    <ellipse class="cls-9" cx="302.84" cy="542.32" rx="12" ry="10"/>
    <ellipse class="cls-9" cx="428.84" cy="542.32" rx="12" ry="10"/>
    <g>
      <rect class="cls-3" x="274.84" y="530.32" width="45" height="8" rx="4" transform="translate(47.7 -23.88) rotate(5)"/>
      <rect class="cls-3" x="411.84" y="530.32" width="45" height="8" rx="4" transform="translate(913.59 1028.75) rotate(175)"/>
    </g>
    <path class="cls-10" d="M312.09,642.48,333,646a3,3,0,0,0,3.39-2.16l4.18-15.25A1,1,0,0,0,339,627.5c-1.65,1.19-7,3.19-12.73,6-5.93,2.86-12.33,6.5-14.27,7.06A1,1,0,0,0,312.09,642.48Z"/>
    <path class="cls-10" d="M420.72,642.48,399.86,646a3,3,0,0,1-3.39-2.16l-4.18-15.25a1,1,0,0,1,1.55-1.08c1.65,1.19,7,3.19,12.72,6,5.94,2.86,12.34,6.5,14.28,7.06A1,1,0,0,1,420.72,642.48Z"/>
    <path class="cls-10" d="M339,627.5c-1.65,1.19-7,3.19-12.73,6-5.93,2.86-12.33,6.5-14.27,7.06"/>
    <path class="cls-10" d="M339,627.5c-1.65,1.19-7,3.19-12.73,6-5.93,2.86-12.33,6.5-14.27,7.06"/>
    <path class="cls-11" d="M304.89,648.32c2-2,13-24,61-24s60.9,24,60.9,24"/>
    <g>
      <path class="cls-3" d="M185.1,547.32s-17.32,102-24.32,153-2,191-4,210a127.92,127.92,0,0,0-.47,25.4,4,4,0,0,0,4,3.6H178a4,4,0,0,0,4-3.69c1-13,6.29-58.36,30.76-107.31,29-58,153-100,153-100s-103.65-65-128-93C209.1,602.32,185.1,547.32,185.1,547.32Z"/>
      <path class="cls-3" d="M575.37,939.72a4,4,0,0,1-4,3.6H553.64a4,4,0,0,1-4-3.69c-.07-.82-.15-1.76-.25-2.83-1.53-15.86-7.57-58.61-30.51-104.48-4.88-9.77-12.46-19.19-21.69-28.12-31.3-30.28-81.59-54.78-110-67.14-7.2-3.13-13-5.49-16.71-7l-2.28-.89-.66-.25c-1.09-.43-1.67-.64-1.67-.64l.06,0,.34-.17h0c.09,0,.18-.11.31-.17l1.21-.63,1.37-.72,1.3-.68c16-8.39,69.69-37.36,101.53-63.36h0c10.16-8.31,18.08-16.3,21.85-23.23.43-.8.87-1.6,1.32-2.41,17.85-32.39,46.57-75.18,50.45-80.94l.44-.65.12.67c0,.18.07.39.11.64h0v0h0v0c2.17,12,18,100.17,24.55,147.64,7,51,2,191,4,210A128.18,128.18,0,0,1,575.37,939.72Z"/>
    </g>
    <g>
      <path class="cls-9" d="M262.91,914.32c3-6,15-11,22-12s24.56,3,28.28,6a16.12,16.12,0,0,1,4.72,18c-3,8-11,14-19,16s-23-1-29-6-8-5-9-10S262.91,914.32,262.91,914.32Z"/>
      <path class="cls-9" d="M470.76,924.32c-1,5-3,5-9,10s-21,8-29,6a28.85,28.85,0,0,1-17.32-12.52,21.44,21.44,0,0,1-1.68-3.48,16.13,16.13,0,0,1,4.1-17.46c.21-.2.41-.37.62-.54,3.73-3,21.28-7,28.28-6,5.48.78,14,4,18.91,8.25a15,15,0,0,1,2.21,2.34,8.88,8.88,0,0,1,.88,1.41S471.76,919.32,470.76,924.32Z"/>
    </g>
    <path class="cls-12" d="M185.89,545.15s.61,43.17,1.61,58.17,5,54,7,69,3,30,6,35,17,6,29,8,52,7,67,8,42,5,52,5h16.6s-103.6-14-120.6-18c-11.76-2.77-34,0-38-16s-15.85-101.92-16.43-112S185.89,545.15,185.89,545.15Z"/>
    <path class="cls-12" d="M546.5,555.32s-.06.47-.16,1.32v0h0v0c-.71,5.66-3.38,27.65-4.54,41.53-.12,1.47-.23,2.85-.31,4.11-1,15-7,54-9,69s-3,34-6,39-15,2-27,4c-10,1.66-39.25,5.39-57.48,7.19-3.72.36-7,.64-9.52.81-15,1-42,5-52,5h-16.6l.27,0h0l1.33-.18.85-.11,2.85-.39,1.3-.18c15.83-2.16,56.74-7.8,85.56-12.23,13.22-2,23.9-3.8,28.43-4.87,11.76-2.77,34,0,38-16,2.27-9.1,7.09-40.81,10.93-68.31,2.9-20.86,5.25-39.32,5.5-43.65.42-7.47,4.41-18.24,6.43-23.26.36-.91.66-1.63.87-2.11,0-.1.07-.19.11-.27Z"/>
    <circle class="cls-8" cx="942.77" cy="554.82" r="180.5"/>
    <g>
      <path class="cls-7" d="M545.78,555.15l-21.67,149a4,4,0,0,1-3.49,3.53L363.81,728.32s77.95-40,118-87S545.78,555.15,545.78,555.15Z"/>
      <path class="cls-7" d="M185.89,546.15l16.68,159a4,4,0,0,0,3.49,3.53l159,19.62s-103.6-69-126.6-93C219.41,615.4,185.89,546.15,185.89,546.15Z"/>
    </g>
    <path class="cls-3" d="M815.5,786.32s63,8,89,10,97,3,121-6,56-17,56-17-45-78-62-85-53-7-57-7-71,1-86,14-61,64-66,73S815.5,786.32,815.5,786.32Z"/>
    <path class="cls-13" d="M1121.5,915.32s-2,13-2.7,13.44a3.66,3.66,0,0,1-1.42-.1h-.07l-.85-.16c-2.45-.48-6.41-1.38-10.06-1.91l-.86-.12a20.86,20.86,0,0,0-6-.14c-2.08.42-16.92.83-34.43,1.17-20.58.41-44.86.71-56.38.81l-5.19,0c-7.47,0-27-2.72-43.28-4.53-3.53-.39-6.9-.74-10-1a87.06,87.06,0,0,0-12.75-.46c-4.58.42-13.86.66-24.13,1-14.37.5-30.7,1.23-38.87,3-3.53.76-10.57,1.64-19.22,2.52-25.65,2.62-65.55,5.23-70.78,4.48a4.22,4.22,0,0,1-1.43-.45h0c-4.46-2.45,1.52-12.79,2.44-15.55h37c8.57,0,22.78-1.3,36.34-2.47h0c7-.61,13.86-1.18,19.65-1.52,7.69-.45,19-.09,31.51.26,12.84.37,26.85.71,39.18.13,2.16-.1,4.27-.23,6.31-.39l4.15-.33c19.24-1.5,34.24-2.41,53.56-4.18,4.79-.44,9.84-.93,15.29-1.49a150.81,150.81,0,0,1,23.9-.75c13.26.73,21.74,3.41,31.1,4.75,10.74,1.53,16.78.13,22.77-.85l.87-.13c1.46-.23,2.94-.42,4.5-.52l.21,0a11.5,11.5,0,0,1,5.42.81,5.2,5.2,0,0,1,.85.43,2.61,2.61,0,0,1,.28.17A7.14,7.14,0,0,1,1121.5,915.32Z"/>
    <g>
      <path class="cls-9" d="M857.32,917.05c3-6,15-11,22-12s24.56,3,28.28,6a16.12,16.12,0,0,1,4.72,18c-3,8-11,14-19,16s-23-1-29-6-8-5-9-10S857.32,917.05,857.32,917.05Z"/>
      <path class="cls-9" d="M1065.17,927.05c0,.15-.06.3-.1.44-1,4.56-3.08,4.71-8.9,9.56-6,5-21,8-29,6-7.58-1.89-15.16-7.38-18.48-14.75-.19-.41-.36-.83-.52-1.25a15.65,15.65,0,0,1-.53-9.65,16.28,16.28,0,0,1,5.25-8.35l.32-.24c4.32-3,21.14-6.73,28-5.76a43.11,43.11,0,0,1,11.23,3.52c4.76,2.19,9.12,5.18,10.77,8.48,0,0,.36.84.78,2.14C1064.77,919.65,1065.82,923.78,1065.17,927.05Z"/>
    </g>
    <path class="cls-14" d="M837.08,788.43c-1.81,2.25-12.93,17.41-16,26.5s-24.25,62.66-27.28,71.75-7.34,32.64-3.34,37.64c3.22,4,19.51-4.29,32.64-4.29s65.69-4,79.84-3,76.81-1,89.94,0,81.86,0,95,0,24.76-.47,27.54-3.27,8.84-5.82,7.83-11.89S1093,814.93,1093,814.93s-17.29-32.77-24.31-37.61-18.13.22-26.22,3.25-34.36,5-54.57,6.07-68.72,4-88.93,3-44.47,1-51.54-2S837.08,788.43,837.08,788.43Z"/>
    <g>
      <path class="cls-15" d="M788.5,646.32c0,2,62,40,112,38s64-3,64-3-36-4-59,16-77,98-91,139c-12.3,36-25.38,82.88-28.37,93.7a4,4,0,0,1-3,2.83c-13.49,3.08-75.67,20.47-82.67,15.47-3.25-2.33,21-120,38-171S788.5,646.32,788.5,646.32Z"/>
      <path class="cls-15" d="M944.55,681.91c2.71-.3,5.9-.53,9.4-.59-2.42.14-4.57.29-6.47.45h0c-2.77.24-5,.48-6.75.7l-1.27.18c-1.45.2-2.48.38-3.11.5.58-.12,1.47-.29,2.62-.48l1.76-.28c1.12-.16,2.39-.33,3.79-.48Z"/>
      <path class="cls-15" d="M1203.5,945.32c-5,5-70.57-12.39-84.07-15.47a4,4,0,0,1-2-1.19l-.06-.07a3.85,3.85,0,0,1-.8-1.44.69.69,0,0,1,0-.13c-.66-2.39-1.82-6.56-3.35-12-.46-1.63-1-3.37-1.48-5.21-1.15-4-2.45-8.54-3.86-13.39-.25-.84-.5-1.7-.75-2.56-5.39-18.4-12.27-41.06-18.93-60.55-5-14.79-15.31-34.4-27.43-54.36l-2.1-3.43a622.9,622.9,0,0,0-39.66-57c-8.46-10.68-16.09-19.24-21.81-24.21-10.27-8.93-23.65-12.08-35.32-12.83l-2.36-.12h-.18c-1.79-.07-3.53-.08-5.2,0,1.8-.1,3.75-.2,5.87-.28H960c10.16-.38,23.91-.45,42.08.28,44.46,1.78,90.51-32.82,100.16-41.91h0c1.19-1.12,1.83-1.86,1.83-2.08,0,0,.16.33.48.95,1.12,2.27,4.19,8.48,8.44,17.29,1.38,2.87,2.89,6,4.5,9.39l.79,1.66c2.84,6,6,12.65,9.24,19.73l.78,1.7c12.75,27.62,27.4,61.19,35.77,86.28C1181.1,825.32,1210,938.82,1203.5,945.32Z"/>
    </g>
    <g>
      <circle class="cls-16" cx="847.57" cy="585.4" r="35"/>
      <circle class="cls-16" cx="1037.98" cy="585.4" r="35"/>
    </g>
    <path class="cls-17" d="M881.82,602.4c2-2,13-24,61-24s60.91,24,60.91,24"/>
    <g>
      <circle class="cls-14" cx="867.5" cy="537.32" r="12"/>
      <path class="cls-18" d="M884.5,524.82l-15.58,1.78a16.44,16.44,0,0,1-3.84,0l-15.58-1.78a2,2,0,0,1-2-2h0a2,2,0,0,1,2-2l15.58,1.78a16.44,16.44,0,0,0,3.84,0l15.58-1.78a2,2,0,0,1,2,2h0A2,2,0,0,1,884.5,524.82Z"/>
    </g>
    <g>
      <circle class="cls-14" cx="1013.25" cy="539.47" r="12"/>
      <path class="cls-18" d="M996.25,527l15.58,1.78a17.61,17.61,0,0,0,3.84,0l15.58-1.78a2,2,0,0,0,2-2h0a2,2,0,0,0-2-2l-15.58,1.78a17.61,17.61,0,0,1-3.84,0L996.25,523a2,2,0,0,0-2,2h0A2,2,0,0,0,996.25,527Z"/>
    </g>
    <circle class="cls-19" cx="815.5" cy="452.32" r="39"/>
    <circle class="cls-19" cx="684.5" cy="543.32" r="26"/>
    <circle class="cls-19" cx="713.5" cy="583.32" r="26"/>
    <circle class="cls-19" cx="746.5" cy="619.32" r="26"/>
    <circle class="cls-19" cx="866.5" cy="458.32" r="39"/>
    <circle class="cls-19" cx="943.5" cy="466.32" r="39"/>
    <circle class="cls-19" cx="988.5" cy="451.32" r="39"/>
    <circle class="cls-19" cx="1057.5" cy="463.32" r="39"/>
    <path class="cls-19" d="M1120.5,459.32a39,39,0,0,1-39,39,39.45,39.45,0,0,1-5.89-.44,39,39,0,0,1-12.22-73.12c1-.51,2-1,3-1.42a39,39,0,0,1,54.07,36Z"/>
    <ellipse cx="193.5" cy="841.82" rx="39" ry="19.5"/>
    <path class="cls-19" d="M783,430.32s-35.52,34-55.52,53-58,39.09-59,40,98,112,98,112,10.6-8.63,8.8-15.82-8.8-25.18-9.8-61.18,9-62,18-74,31-18,31-18Z"/>
    <path class="cls-20" d="M228.51,899.36c-.23,3.39-.61,6.93-1.12,10.53a190.12,190.12,0,0,1-5.23,25c-.17.6-.34,1.21-.52,1.8a2.33,2.33,0,0,1-.07.25c-.78,2.62-1.6,5.13-2.45,7.49l-.21.59c-.36,1-.7,1.93-1,2.85-3.09,8.53-5.15,14.34-7.44,17.44a7,7,0,0,1-2.36,2.18c-2.06,1.07-8,1.61-13.57,1.67a49.53,49.53,0,0,1-10.6-.72c-4.35-1.18-5.86,1.63-9-2.67-1.19-1.61-1.74-2.1-2.24-2.8-.81-1.16-1.46-2.94-4.59-11.5a124.77,124.77,0,0,1-3.66-12.13c-.18-.75-.37-1.51-.55-2.27q-.59-2.49-1.11-5.06c0-.06,0-.12,0-.18-.24-1.18-.47-2.36-.68-3.54a125.59,125.59,0,0,1-2.33-23.09c0-.84,0-1.66.08-2.44.44-7.54,2.54-16.63,4.93-24.13a70.89,70.89,0,0,1,5.1-12.58c1.3-2.23,3-4.77,4.71-7.23a70.32,70.32,0,0,1,6.31-7.75l.56-.56a16.81,16.81,0,0,1,2.16-1.81c3.32-2.18,6.67-1.26,11-1.2.45,0,.9,0,1.37,0,5-.16,9-.45,11.33.25a18.19,18.19,0,0,1,4.11,1.87l.1.05s.24.35.66,1c.79,1.26,2.2,3.63,3.89,7q.57,1.13,1.17,2.4a160.59,160.59,0,0,1,8.17,19.14C227.44,885.74,229,892.81,228.51,899.36Z"/>
    <path class="cls-19" d="M1218.5,560.32a26,26,0,0,1-43.73,19,23.77,23.77,0,0,1-3.32-3.76A26,26,0,0,1,1206,538.09h0A26,26,0,0,1,1218.5,560.32Z"/>
    <path class="cls-19" d="M1189.5,600.32a26,26,0,0,1-47.09,15.19,23.74,23.74,0,0,1-2-3.23,26,26,0,0,1,31-36.72,25.3,25.3,0,0,1,4.79,2.1,26.06,26.06,0,0,1,13.26,22.66Z"/>
    <path class="cls-19" d="M1156.5,636.32a26,26,0,0,1-26,26l-1,0-.86,0a25.68,25.68,0,0,1-10-2.8c-.29-.14-.56-.29-.84-.45a26,26,0,0,1-13.21-20.73c-.06-.64-.08-1.29-.08-1.95q0-.66,0-1.32a25.79,25.79,0,0,1,5.52-14.72,23.76,23.76,0,0,1,1.75-2,25.76,25.76,0,0,1,8.12-5.7c.29-.13.58-.26.88-.36a25.48,25.48,0,0,1,9.7-1.89h.54l.86,0a25.46,25.46,0,0,1,8.52,1.92,24.17,24.17,0,0,1,3.37,1.7,26,26,0,0,1,12.71,22.34Z"/>
    <path class="cls-19" d="M1208.5,540.32c.4.37-14.41,17.27-32.26,37.34l-1.47,1.66c-10.2,11.46-21.27,23.82-31,34.66q-.7.76-1.38,1.53l-11.32,12.6-.91,1-10.7,11.9c-.34.36-.64.69-.91,1l-2.07,2.3s-10.6-8.63-8.8-15.81c0-.18.09-.37.15-.57,0,0,0,0,0,0,.49-1.87,1.27-4.38,2.19-7.64,2.77-9.88,6.72-26.59,7.45-53a169.47,169.47,0,0,0-.51-19c-2.13-25.8-9.92-44.68-17.17-54.58-.1-.15-.21-.3-.32-.44a36.74,36.74,0,0,0-9.5-8.44,87.57,87.57,0,0,0-21.5-9.56l24.93-19.94,1.91-1.53,17.94-14.36.22-.17.06.1c.35.53,2.08,3.18,4.8,7.13,7.59,11,22.87,32.22,37.14,45.77,9.46,9,21.61,20,31.89,29.23,8.09,7.26,15,13.39,18.59,16.54h0Z"/>
    <g>
      <path class="cls-3" d="M1078.44,175.55c-2,32-2,28,3,55s2,38-4,56-9,13,0,27,13,5,9,17c-2.66,8-5.77,11.11-6.07,14.95-.16,1.93.4,4,2.07,7.05a135,135,0,0,1,7,13.27.06.06,0,0,0,0,0,29.41,29.41,0,0,1,1.49,4.52s0,0,0,.06a11.67,11.67,0,0,1,.25,4.46h0a5.86,5.86,0,0,1-3.07,4.32c-.2.11-.42.22-.65.32s-.7.31-1.11.51l-1.72.8h0l-8.91,4.24-3.22,1.53c-9.12,4.31-21.18,9.85-34,15.09a314.61,314.61,0,0,1-36.93,12.82h-.06c-8.16,2.16-19.49,5.13-32.33,8.27-3.09.76-6.27,1.53-9.51,2.3q-3.74.9-7.58,1.78l-3.33.76c-8.46,1.94-17.16,3.82-25.74,5.51h0c-8.07,1.59-16,3-23.56,4.16-19.61,3-36.4,4.07-44.94,1.22l-2.81-.95c-5.32-1.81-10.1-3.56-14.3-5.17-9.77-3.75-16.4-6.75-19.27-8.1l-1.62-.78c.26-.51,1.1-4.37,2.81-10.05,2.71-9,7.59-22.63,15.74-34.69,5.79-8.59,13.23-16.4,22.72-21.2L859,357l.06,0c1.09-.51,2.21-1,3.35-1.4,5.47-2,10.18-3.7,14.26-5.14l.3-.11c5.29-1.88,9.49-3.39,12.89-4.88,10.6-4.6,13.37-8.88,16.55-22.87,5-22,20-47,27-73s5-28,27-50,40-30,48-60,11-28,28-47,36-43,40-59,6-20,11-25a37.37,37.37,0,0,1,5.78-5.09,3.93,3.93,0,0,1,1.76-.67c1.75-.09,2.4,2.51.46,10.76-4,17,0,20-1,49s5,17-4,43S1080.44,143.55,1078.44,175.55Z"/>
      <path class="cls-3" d="M1170.39,417.15a8.07,8.07,0,0,1-.35,2.34c-2.9,9.86-24.21,11.5-55.19,19.59l-1.29.34-.28.07c-3.5.93-7.11,1.94-10.84,3.06a69.23,69.23,0,0,1-10.6,2.26q-2.73.38-5.51.59c-7.38.58-15,.42-22.83.32-6.06-.08-12.27-.13-18.65.23q-3.66.19-7.41.6c-3.32.37-6.68.87-10.08,1.48q-3.09.54-6.24,1.19c-12.64,2.59-25.85,6.19-39.49,8.88-5.63,1.11-11.34,2.06-17.1,2.73-1.69.2-3.38.37-5.08.51q-4.28.36-8.48.64l-2.34.15a381.28,381.28,0,0,1-43.37.5l-.58,0A244.13,244.13,0,0,1,854.41,455a202.44,202.44,0,0,1-25.12-8.43q-2.43-1-4.85-2.06c-6.42-2.83-12.67-5.22-18.64-7.28-8.1-2.81-15.68-5-22.5-7h0c-20.32-5.75-33.84-9-33.75-17.8.11-10.09,20.13-16.61,44.9-24,11.78-3.5,25.35-6.83,40.55-9.74,16.51-3.18,35-5.85,55.1-7.72a684.86,684.86,0,0,1,70.39-2.77l2.44,0q7.73.11,15.25.34c41.63,1.28,78.25,5.43,108.16,11.37l.7.14h0q11.78,2.35,22.1,5.07c1.9.49,3.77,1,5.6,1.51l1.79.51q5.33,1.53,10.2,3.16,3.9,1.29,7.5,2.65c.41.14.81.3,1.21.45l2.78,1.07q2.88,1.13,5.63,2.27a114.46,114.46,0,0,1,17,8.43,39.63,39.63,0,0,1,3.78,2.69l.36.29C1168.44,411.14,1170.43,414.08,1170.39,417.15Z"/>
      <path class="cls-15" d="M1091.16,374.9h0a7.54,7.54,0,0,1-1.72,2.64,10.22,10.22,0,0,0-1.35,1.68c-.61,1,.29.66-1,1h0c-.47.1-1.23.29-2.42.66h0q-.9.27-2.16.69c-5.58,1.86-34.68,7.19-63.6,9.53h0c-16.45,1.33-32.85,1.7-44.83-.1-.88-.13-1.73-.27-2.56-.43-4.26-.8-8.57-1.57-12.86-2.33-18.69-3.28-37.23-6.32-51.43-10.38-6.86-2-12.71-4.16-17.06-6.75-.13-.07-.26-.14-.38-.22-14.14-8.63-29.77-12.7-32-13.26l-.27-.06L859,357l.06,0c3.32-1.22,11-4.06,17.61-6.54l.3-.11,3.53-1.34c3.83-1.46,7-2.66,9.36-3.54,3.13-1.17,4.85-1.79,4.85-1.79s30.7,9.92,62.7,11.92c2.56.16,5.41.26,8.48.31,4.57.08,9.63,0,15-.09,36.06-.85,85.91-5.82,91.52-8.22,6-2.59,7.61-2.2,7.93-2.05l.07.05s7.64,14.39,8.82,19.7c0,.19.09.38.14.57a.06.06,0,0,0,0,0c.44,1.73,1,3.18,1.49,4.52,0,0,0,0,0,.06A6.56,6.56,0,0,1,1091.16,374.9Z"/>
    </g>
    <path class="cls-21" d="M1134.56,552.28,1132,607.33l-.14,3-.72,15.76-.09,2-1.43,31.14-.14,3-1,21-.22,4.7-2.4,52.47-.15,3.23-1.63,35.58-.13,2.81-4.64,101.33-.24,5.23-.87,18.92-.07,1.59-.08,1.84,0,.43-.58,12.68-.06,1.34-.14,3.1v.06l-.88,19.21a5.5,5.5,0,1,1-11-.5l1-20.78.14-3.12.33-7.17.13-2.91.14-3,.13-2.87.51-11,.25-5.56,1.38-30.11.23-5.14,3.31-72.21.14-3,1.73-37.53.13-2.9,3.36-73.35.21-4.66.11-2.5.16-3.45.69-15,.09-2,1.23-26.81.12-2.64,1.44-31.43.54-11.66v-.07l.3-6.51.37-8.12a5.14,5.14,0,0,1,.54-2.1,2.1,2.1,0,0,1,.15-.3,5.47,5.47,0,0,1,5-2.85,5.54,5.54,0,0,1,5,3.78A5.6,5.6,0,0,1,1134.56,552.28Z"/>
    <ellipse class="cls-22" cx="1080.42" cy="403.95" rx="16.92" ry="19.63"/>
    <path class="cls-22" d="M1198.5,405.32v80a65.16,65.16,0,0,1-64.21,65h-.79c-.67,0-1.33,0-2,0a69.24,69.24,0,0,1-7.39-.61c-.31,0-.62-.08-.92-.13q-3.15-.46-6.2-1.21a70.5,70.5,0,0,1-50.28-47.12,66,66,0,0,1-1.72-6.57,69.12,69.12,0,0,1-1.49-14.33v-75Z"/>
    <g>
      <ellipse class="cls-23" cx="1080.56" cy="390.71" rx="3.93" ry="3.92"/>
      <path class="cls-23" d="M1079.27,387a18.81,18.81,0,0,0-7.8,5.47c-4,5.21-6.42,17.45-6.42,17.45s2.81-7.89,6.09-10.41,10.7-5.1,10.7-5.1Z"/>
    </g>
    <path class="cls-22" d="M1131.4,404c0,.46,0,.92-.05,1.37-.6,10.2-8,18.26-17,18.26s-16.37-8.06-17-18.26c0-.45-.05-.91-.05-1.37,0-8.73,5-16.14,11.79-18.68a14.79,14.79,0,0,1,5.23-.95,16,16,0,0,1,12.36,6.13A21.25,21.25,0,0,1,1131.4,404Z"/>
    <g>
      <ellipse class="cls-23" cx="1114.61" cy="390.71" rx="3.93" ry="3.92"/>
      <path class="cls-23" d="M1113.32,387a18.81,18.81,0,0,0-7.8,5.47c-4,5.21-6.41,17.45-6.41,17.45s2.8-7.89,6.08-10.41,10.71-5.1,10.71-5.1Z"/>
    </g>
    <path class="cls-22" d="M1165.45,404c0,.46,0,.92,0,1.37a19.42,19.42,0,0,1-.38,3,6.16,6.16,0,0,1-.18.83c-2,8.33-8.57,14.45-16.42,14.45-8.83,0-16.08-7.75-16.92-17.67,0-.19,0-.39,0-.59,0-.45,0-.91,0-1.37a21,21,0,0,1,.1-2.11,21.46,21.46,0,0,1,2.73-8.74c3-5.29,8.27-8.78,14.19-8.78,8.17,0,15,6.62,16.64,15.45A22.11,22.11,0,0,1,1165.45,404Z"/>
    <g>
      <ellipse class="cls-23" cx="1148.66" cy="390.71" rx="3.93" ry="3.92"/>
      <path class="cls-23" d="M1147.37,387a18.81,18.81,0,0,0-7.8,5.47c-4,5.21-6.41,17.45-6.41,17.45s2.8-7.89,6.08-10.41,10.71-5.1,10.71-5.1Z"/>
    </g>
    <path class="cls-22" d="M1198.5,405c0,.12,0,.25,0,.37-.16,10.67-7.72,19.26-17,19.26a15.78,15.78,0,0,1-11.43-5.09,20.43,20.43,0,0,1-5.2-10.36c-.07-.37-.13-.74-.18-1.12a21.69,21.69,0,0,1-.2-2.69c0-.12,0-.25,0-.37a22,22,0,0,1,.61-5.18c2-8.33,8.56-14.45,16.41-14.45C1190.88,385.32,1198.5,394.11,1198.5,405Z"/>
    <g>
      <ellipse class="cls-23" cx="1182.71" cy="390.71" rx="3.93" ry="3.92"/>
      <path class="cls-23" d="M1181.42,387a18.81,18.81,0,0,0-7.8,5.47c-3.95,5.21-6.41,17.45-6.41,17.45s2.8-7.89,6.08-10.41,10.71-5.1,10.71-5.1Z"/>
    </g>
    <path class="cls-16" d="M1145.45,766.79c-1,5-3,5-9,10-4,3.34-12.06,5.8-19.34,6.46a30.49,30.49,0,0,1-9.66-.46c-8-2-16-8-19-16a16.11,16.11,0,0,1,4.73-18c3.42-2.76,18.53-6.36,26.38-6.15a17.27,17.27,0,0,1,1.89.15c7,1,19,6,22,12C1143.45,754.79,1146.45,761.79,1145.45,766.79Z"/>
    <path class="cls-24" d="M1192.5,586.32a25.78,25.78,0,0,1-8-1.24,26,26,0,0,1-31,39.28,26,26,0,0,1-23.08,38l-1,0-1,21-.22,4.7c12.75,27.62,27.4,61.19,35.77,86.28,17,51,45.9,164.5,39.4,171-5,5-70.57-12.39-84.07-15.47a4,4,0,0,1-2-1.19h-.07l-.88,19.21a5.5,5.5,0,1,1-11-.5l1-20.78-.86-.12a20.86,20.86,0,0,0-6-.14c-2.08.42-16.92.83-34.43,1.17-1,4.56-3.08,4.71-8.9,9.56-6,5-21,8-29,6-7.58-1.89-15.16-7.38-18.48-14.75l-5.19,0c-7.47,0-27-2.72-43.28-4.53-.12-2.26-.25-4.58-.37-6.94-.06-1.27-.13-2.56-.2-3.86-1.61-31.83-3.27-71.4-4.37-115.36-.08-3.07-.15-6.16-.23-9.27-.39-17.24-.69-35.11-.87-53.4-.17-17.36-.23-35.09-.14-53v-.61a2.8,2.8,0,0,0,0-.29c.14-26.12.58-52.7,1.42-79.22,1.07-34,2.8-67.83,5.37-100.54q.82-10.49,1.77-20.79.9-9.92,1.93-19.65,1.35-12.84,2.92-25.3.79-6.42,1.66-12.71c.27-1.95.54-3.88.81-5.81q1.91-13.32,4.08-26,1.18-6.86,2.45-13.52c.55-2.95,1.13-5.88,1.72-8.77q1.32-6.57,2.75-12.92.76-3.48,1.58-6.89c41.84-176.73,93.5-305,110.72-345.42a3.93,3.93,0,0,1,1.76-.67c1.75-.09,2.4,2.51.46,10.76-4,17,0,20-1,49s5,17-4,43-10,38-12,70-2,28,3,55,2,38-4,56-9,13,0,27,13,5,9,17c-2.66,8-5.77,11.11-6.07,14.95l.07.05s7.64,14.39,8.82,19.7c0,.19.09.38.14.57a.06.06,0,0,0,0,0,29.41,29.41,0,0,1,1.49,4.52s0,0,0,.06a6.56,6.56,0,0,1,.25,4.46h0a5.86,5.86,0,0,1-3.07,4.32c-.61,1,.29.66-1,1q11.78,2.35,22.1,5.07a14.79,14.79,0,0,1,5.23-.95,16,16,0,0,1,12.36,6.13q3.9,1.29,7.5,2.65c3-5.29,8.27-8.78,14.19-8.78,8.17,0,15,6.62,16.64,15.45,2-8.33,8.56-14.45,16.41-14.45,9.41,0,17,8.79,17,19.63,0,.12,0,.25,0,.37h0v80a64.5,64.5,0,0,1-11.11,36.23c8.09,7.26,15,13.39,18.59,16.54h0a26,26,0,0,1-13.5,48.22Z"/>
    <path class="cls-25" d="M575.37,938.72a4,4,0,0,1-4,3.6H553.64a4,4,0,0,1-4-3.69c-.07-.82-.15-1.76-.25-2.83-3.86-1.31-8.43-2.82-13.69-4.48-19-6-36-14-55-21a44.24,44.24,0,0,0-12.38-2.65l-.45,2.24a8.88,8.88,0,0,1,.88,1.41s3,7,2,12-3,5-9,10-21,8-29,6a28.85,28.85,0,0,1-17.32-12.52A67.74,67.74,0,0,1,389,934.41a80.72,80.72,0,0,1-18.47-.67c-1.76-.26-3.43-.57-5-.91V374.41c1.65-.05,3.32-.07,5-.08h1.24a181.1,181.1,0,0,1,46.18,5.79c71.54,18.77,105.57,77.74,114.27,95.26l.47.93c1.93,3.81,2.85,6,2.85,6l9.64,27.48c-.2-.27-3.45-4.58-8.08-10.24a180.25,180.25,0,0,1,9.26,55.15l.17-.4s-.06.47-.16,1.32v0c2.17,12,18,100.17,24.55,147.64,7,51,2,191,4,210A128.18,128.18,0,0,1,575.37,938.72Z"/>
    <path class="cls-25" d="M1145.45,766.79c-1,5-3,5-9,10-4,3.34-12.06,5.8-19.34,6.46l2.45-40.61a17.27,17.27,0,0,1,1.89.15c7,1,19,6,22,12C1143.45,754.79,1146.45,761.79,1145.45,766.79Z"/>
    <path class="cls-25" d="M1198.49,405.32h0v80a65.16,65.16,0,0,1-64.21,65h-.79c-.67,0-1.33,0-2,0V401.84a21.46,21.46,0,0,1,2.73-8.74c3-5.29,8.27-8.78,14.19-8.78,8.17,0,15,6.62,16.64,15.45,2-8.33,8.56-14.45,16.41-14.45,9.41,0,17,8.79,17,19.63C1198.5,405.07,1198.5,405.2,1198.49,405.32Z"/>
    <path class="cls-26" d="M258.07,907.33l-.56,2.28a.75.75,0,0,0,0,.16c-.47,1.89-1,3.9-1.49,6,0,.15-.07.29-.11.43-2.63,10.42-5.81,22-9.09,27.28-4.05,6.57-7,10.85-12.61,14-.26.16-.54.3-.82.45-6.16,3.19-11.07,6.35-16,7a34.55,34.55,0,0,1-6.9.43l-.23,0s4.05-8,7.67-17.42c.44-1.12.87-2.27,1.28-3.42.9-2.5,1.73-5,2.42-7.51a2.33,2.33,0,0,0,.07-.25c.17-.6.33-1.2.48-1.79.43-1.73.79-3.4,1-5,1-6.41,2.26-13.06,3.18-19.17,1.11-7.33,1.74-13.89.84-18.36-.64-3.15-1.7-7.2-3-11.47a182.19,182.19,0,0,0-7-19.54c-.58-1.29-1.11-2.45-1.62-3.49a61.36,61.36,0,0,0-3.87-7.09c-.37-.56-.56-.8-.56-.8s.07-.14.21-.37a9.11,9.11,0,0,1,6.55-4.07c1.22-.17,2.48-.37,3.79-.54a32.68,32.68,0,0,1,5.16-.33,24.54,24.54,0,0,1,5.06.61,26.27,26.27,0,0,1,4,1.26c7.48,3,13.11,6.64,18.28,22.06S261,895.51,258.07,907.33Z"/>
    <path class="cls-27" d="M273,909.6c-1.14,5.24-2.2,15.44-4.49,23.51a2.29,2.29,0,0,1-.07.28c-1.22,4.24-2.79,7.86-4.89,9.81-6.12,5.66-9.12,13.14-15.92,14.48a38.2,38.2,0,0,1-13.43-.26l-.83-.17a34.49,34.49,0,0,0,14.26-16.32,231.65,231.65,0,0,0,8.27-24.78c0-.14.08-.28.11-.43.56-2,1.06-4,1.49-6a.75.75,0,0,1,0-.16,60.54,60.54,0,0,0,1.66-11.26c.14-8.41-2.14-22.36-6-31.42s-11.24-17.86-17.94-19.72c-1.28-.36-2.56-.65-3.79-.88a57.14,57.14,0,0,0-5.7-.8c-2.28-.21-3.76-.21-3.76-.21a1.62,1.62,0,0,1-.34-.28c-.45-.48-1-1.62,1-3.56l.3-.27,0,0h0l.42-.37c.35-.29.75-.59,1.22-.91,1.2-.82,2.27-1.64,3.32-2.39l.72-.5a21.9,21.9,0,0,1,2-1.23c2.9-1.6,6.08-2.23,11.29-.45,8.72,3,19.35,9.65,24.43,18.88s8,16.31,8.1,25S274.72,901.52,273,909.6Z"/>
    <path class="cls-28" d="M204.42,814.78s3.39-1.6,11.46-.47,9.31.49,14.93,4.13a34.65,34.65,0,0,1,8,6.67,15.13,15.13,0,0,0-7.52,5.41,26.85,26.85,0,0,0-3.63,7.92l-5.21,3s2.48,0,0-1.24S206.6,836,203.5,831.32,204.42,814.78,204.42,814.78Z"/>
    <path class="cls-27" d="M169.23,842.33s2.52-2.19-6-6.53c-6.55-3.32-13.69-4.15-18.62-1.61-8.7,4.5-18.77,9.87-26,22.36s-13.47,34.59-12,48.21,3.18,28.15,10.09,34.88,11.93,11,18.14,12.15,10.25,2,10.25,2a58.33,58.33,0,0,1-9.23-16.49c-3.84-10.29-7.59-28.16-8.11-35.93s-1.27-16.43.47-25.75,3.68-12.95,9.44-17.43,12.48-10.77,18.65-13.33A38.58,38.58,0,0,1,169.23,842.33Z"/>
    <path class="cls-29" d="M282.9,910.08c-3,8.26-14.84,25-14.95,25,.14-.47.29-1,.46-1.7a2.29,2.29,0,0,0,.07-.28,153.74,153.74,0,0,0,4.16-25.05c.72-12.1,2.84-33.14-.95-42.42s-11-20.32-17.41-23.65-13-7.88-18.58-6.57a22.35,22.35,0,0,0-4.38,1.64c-.72.35-1.43.72-2.12,1.1-2.38,1.32-4.52,2.75-5.81,3.63-.11.07-.25-.11-.35-.36a2.25,2.25,0,0,1-.08-.24h0a.83.83,0,0,1,0-.52l.07-.11c.89-1.27,2.38-3.36,4-5.47.5-.65,1-1.3,1.49-1.92a34.14,34.14,0,0,1,4-4.52,20.44,20.44,0,0,1,2.82-1.9,25.17,25.17,0,0,1,2.7-1.36l.17-.07.59-.24c3.21-1.26,7-2,10.4-1,4.24,1.21,8,1.13,13.18,4a41,41,0,0,1,8.35,6.51c10.05,9.78,15.12,18.39,15.35,35.12S286.48,900.12,282.9,910.08Z"/>
    <path class="cls-28" d="M158,821.61s3.32-6.55,7-8.46,6-2.07,9.89-2c8.57.17,11.57,4.17,11.57,4.17.15-.4,2.09,5.43,0,11-2,5.42-12.83,6.23-12.83,6.23a21.16,21.16,0,0,0-5-6.13C165.5,824,158,821.61,158,821.61Z"/>
    <path class="cls-29" d="M168.83,840.68s6.07-8.76,5.45-8.76-7.9-11.35-18.43-11.21-27.53,4.41-33.66,8.83c-7.12,5.12-17.43,17.28-21.58,31s-6.51,23-4.44,37.87,5.92,25.33,7.83,29,7.57,9.2,9.44,10.41a34,34,0,0,0,3.13,1.82,27.43,27.43,0,0,1-5.41-10.16c-1.38-5.59-4.38-23.57-4.72-27.82s1.67-17.79,4-25.47,9-21.2,12.66-25.59,12.82-11.4,16.56-13.24,9.56-5.53,15.45-4.31a32.09,32.09,0,0,1,10.77,4.39A7.61,7.61,0,0,1,168.83,840.68Z"/>
    <path class="cls-26" d="M169.23,842.33c-.69-.1-4.76-2.83-16.44,4.15s-22.11,15.17-24.44,25.74-1.83,25.13.2,37.5,6.3,29.36,10.09,34.88,6.69,13.24,12.31,16.26,8.12,4.23,13.06,3.54,10.21-1.69,10.21-1.69S164.63,941.77,163.3,935s-4.65-22.87-2.94-33.43,4.93-25.17,7.94-31.41,13.38-18.78,13.38-18.78-1.84-6-6.87-7.24S169.23,842.33,169.23,842.33Z"/>
    <path class="cls-30" d="M186.85,815.42s.65-2.1,4.65-3.1,9-2,11,0a31.52,31.52,0,0,1,2.27,2.38s-1.27,11.12-2.27,12.87-4,4.75-7,3.75-9-1-10-2,0-1,0-2v-8A16.91,16.91,0,0,1,186.85,815.42Z"/>
    <path class="cls-3" d="M205.05,897c.64.62,4.51,4.38,10.29,9.39s5.82,7.54,5.82,7.54a26.54,26.54,0,0,0,15-19.26c3.77-17.46,3.4-25.28-1.72-33C227.53,876.3,222.54,888.48,205.05,897Z"/>
    <path class="cls-3" d="M156.94,863.32c5.87,16.57,14.17,24.3,28.41,33.28l-15.64,18C151,901.93,150.25,883.54,156.94,863.32Z"/>
    <path class="cls-3" d="M195.31,903.88c1.26,6.36,10.32,12.4,14.19,15.69l-28.61-1.51C182.2,918.15,195.33,904.46,195.31,903.88Z"/>
    <path class="cls-3" d="M143.21,905.12s9.11,15.13,13.61,18.88l12.34,10.29a1.77,1.77,0,0,0,2.28,0c2.74-2.89,7.25-6,10.71-2.31,7.76,9.39,9.94-1.52,16.88,1.55,9.5,5.11,7.67,5,16.37.48.12.11,5.72,1.86,8,.52C237.21,927.92,243.9,914.43,248,905c-3,16.31-10.14,30.83-24.81,43.54-.64,0-6.45-6.9-7.09-6.89-.86-.39-9.15,5.95-11,4.59l-5.4-3.82a1.74,1.74,0,0,0-1.62-.22c-10.67,4.38-9.94,3.8-19.18-2.57-2.12-1.22-7.66,4.28-9.16,3.92C158.74,936.81,146.38,917.37,143.21,905.12Z"/>
    <path class="cls-31" d="M270,842.82a133.84,133.84,0,0,0-7.64-14.7c-7.4-12.49-20.06-30-37.49-40.12A57.38,57.38,0,0,0,197,779.82c-.84,0-1.67,0-2.5.07a55.92,55.92,0,0,0-24.14,7.42c-16.81,9.34-30.58,25.62-39.45,38.14A170.59,170.59,0,0,0,120,842.82"/>
    <path class="cls-8" d="M226.11,784.6a9.47,9.47,0,0,1-1.24,3.4c-1.31,2-3.55,3.09-7.76,6.6s-12.26,5.86-19.61,6.48c-1,.09-2,.14-3,.14a25.47,25.47,0,0,1-6.39-.62c-7.07-1.77-14.14-6.66-17.75-13.29a20.76,20.76,0,0,1-1.25-2.71,16.12,16.12,0,0,1,4.72-18c2.71-2.18,12.72-4.89,20.67-5.82,1-.12,2.05-.21,3-.27a23.49,23.49,0,0,1,4.61.09c7,1,19,6,22,12C224.11,772.6,227.11,779.6,226.11,784.6Z"/>
    <path class="cls-32" d="M282.9,910.08c-3,8.26-14.84,25-14.95,25,.14-.47.29-1,.46-1.7-1.22,4.24-2.79,7.86-4.89,9.81-6.12,5.66-9.12,13.14-15.92,14.48a38.2,38.2,0,0,1-13.43-.26c-.26.16-.54.3-.82.45-6.16,3.19-11.07,6.35-16,7a34.55,34.55,0,0,1-6.9.43,7,7,0,0,1-2.36,2.18c-2.06,1.07-8,1.61-13.57,1.67V760.78c1-.12,2.05-.21,3-.27a23.49,23.49,0,0,1,4.61.09c7,1,19,6,22,12,0,0,3,7,2,12a9.47,9.47,0,0,1-1.24,3.4c17.43,10.15,30.09,27.63,37.49,40.12a41,41,0,0,1,8.35,6.51c10.05,9.78,15.12,18.39,15.35,35.12S286.48,900.12,282.9,910.08Z"/>
  </g>
</svg>
