<svg xmlns="http://www.w3.org/2000/svg" width="1920" height="1080" viewBox="0 0 1920 1080">
  <defs>
    <style>
      .cls-1 {
        fill: #020207;
      }

      .cls-2 {
        fill: #080816;
      }

      .cls-3 {
        fill: #0d0d21;
      }

      .cls-4 {
        fill: #14142d;
      }

      .cls-5 {
        fill: #1a1a35;
      }

      .cls-6 {
        fill: #222242;
      }

      .cls-7 {
        fill: #292951;
      }

      .cls-8 {
        fill: #bfbfb0;
        opacity: 0.36;
      }

      .cls-9 {
        fill: #f5ffae;
      }

      .cls-10 {
        fill: #333;
      }

      .cls-11 {
        stroke: #000;
        stroke-miterlimit: 10;
      }

      .cls-12 {
        fill: #fffdcf;
      }

      .cls-13 {
        fill: none;
      }

      .cls-14 {
        fill: #007033;
      }

      .cls-15 {
        fill: #00592a;
      }

      .cls-16 {
        fill: #0f0f0f;
      }

      .cls-17 {
        fill: #1a1a1a;
      }

      .cls-18 {
        fill: #f15a24;
      }
    </style>
  </defs>
  <g id="Backgrounds">
    <rect class="cls-1" width="1920" height="828"/>
    <circle class="cls-2" cx="960" cy="408.49" r="967.49"/>
    <circle class="cls-3" cx="960" cy="408.49" r="847.49"/>
    <circle class="cls-4" cx="960" cy="408.49" r="718.49"/>
    <circle class="cls-5" cx="960" cy="408.49" r="602.49"/>
    <circle class="cls-6" cx="960" cy="408.49" r="495.49"/>
    <circle class="cls-7" cx="960" cy="408.49" r="389"/>
    <circle class="cls-8" cx="960" cy="408.49" r="298"/>
    <circle class="cls-9" cx="960" cy="408.49" r="211"/>
    <path class="cls-10" d="M1022.24,239.91c-8.58-13.75-22.37-21.52-34.59-20.74l-.34-.54a14.7,14.7,0,0,0,1-2,15,15,0,0,0,1.25-6.32c.3-.07.6-.14.9-.23,3.92-1.16,6.73-4,7.22-6.82-2-2.14-5.85-2.95-9.77-1.79a9.52,9.52,0,0,0-1.1.39,15.36,15.36,0,0,0-1.63-2s-1.13-1.08-1.75-1.57a11.64,11.64,0,0,0,.45-1.08c1.37-3.85.77-7.76-1.27-9.85-2.89.34-5.82,3-7.19,6.84-.11.3-.2.59-.28.89a15.07,15.07,0,0,0-6.38.91,14.24,14.24,0,0,0-2,.93l-.52-.37c1.43-12.16-5.59-26.35-18.87-35.64-11.61-8.13-25.1-10.48-35.61-7.25,8.64,10.79,11.31,24,6.23,34.1a15.19,15.19,0,0,1,12.39,23.89c-.24.34-.49.68-.75,1h0a46.44,46.44,0,0,1,4.94,5.16c.93,1.11,1.93,2.38,2.95,3.82,3.62,5.1,2.41,21,2.41,21l.7,0c3.08-.05,15.54,0,20.44,3.87,1.38,1.1,2.6,2.16,3.66,3.15a45,45,0,0,1,4.89,5.21h0v0c.33-.24.68-.48,1-.7a15.18,15.18,0,0,1,23.19,13.65c10.35-4.54,23.41-1.17,33.73,8C1031.36,265.54,1029.73,251.94,1022.24,239.91Z"/>
    <path class="cls-11" d="M1751.5,645.34s-3,5,1,15c11.49,25.1-10.51,37.7-22,50-1,2,3-5.48,10-13,14-15,11-38,7-40s-8-4-9,0,5-7,5-7Z"/>
    <path class="cls-11" d="M1744.5,693.42c-22.85,4.22-35.89,5.13-51-12.08,5.15,6.71,5.94,14,19,17,8.63.48,25.24,1.12,28-1Z"/>
    <path class="cls-11" d="M1722.5,698.34c-3.57-3.22-7.22,18.4-8,21-2,7-2,8-7,15s0-9,1-10c2.66-2.67,8.36-22.23,5.45-25.82-1.45-1.18-4.2-3.9-4.2-3.9Z"/>
    <path class="cls-11" d="M1738.5,657.34c8.17,9.27-34,3.65-40,24a21.78,21.78,0,0,1,11-8c7-2,17-5,20-6s5.12,2.42,5.12,2.42Z"/>
    <g>
      <ellipse class="cls-12" cx="1810.53" cy="45.49" rx="1.69" ry="15.49"/>
      <ellipse class="cls-12" cx="1810.53" cy="45.49" rx="15.49" ry="1.69"/>
    </g>
    <g>
      <ellipse class="cls-12" cx="1498.53" cy="432.49" rx="1.69" ry="15.49"/>
      <ellipse class="cls-12" cx="1498.53" cy="432.49" rx="15.49" ry="1.69"/>
    </g>
    <g>
      <ellipse class="cls-12" cx="562.53" cy="790.49" rx="1.69" ry="15.49"/>
      <ellipse class="cls-12" cx="562.53" cy="790.49" rx="15.49" ry="1.69"/>
    </g>
    <g>
      <ellipse class="cls-12" cx="1410.53" cy="681.49" rx="1.69" ry="15.49"/>
      <ellipse class="cls-12" cx="1410.53" cy="681.49" rx="15.49" ry="1.69"/>
    </g>
    <g>
      <ellipse class="cls-12" cx="1872.53" cy="221.49" rx="1.69" ry="15.49"/>
      <ellipse class="cls-12" cx="1872.53" cy="221.49" rx="15.49" ry="1.69"/>
    </g>
    <g>
      <ellipse class="cls-12" cx="707.53" cy="53.49" rx="1.69" ry="15.49"/>
      <ellipse class="cls-12" cx="707.53" cy="53.49" rx="15.49" ry="1.69"/>
    </g>
    <g>
      <ellipse class="cls-12" cx="1038.53" cy="19.49" rx="1.69" ry="15.49"/>
      <ellipse class="cls-12" cx="1038.53" cy="19.49" rx="15.49" ry="1.69"/>
    </g>
    <g>
      <ellipse class="cls-12" cx="203.53" cy="106.49" rx="1.69" ry="15.49"/>
      <ellipse class="cls-12" cx="203.53" cy="106.49" rx="15.49" ry="1.69"/>
    </g>
    <g>
      <ellipse class="cls-12" cx="1395.53" cy="327.49" rx="1.69" ry="15.49"/>
      <ellipse class="cls-12" cx="1395.53" cy="327.49" rx="15.49" ry="1.69"/>
    </g>
    <g>
      <ellipse class="cls-12" cx="1600.53" cy="135.49" rx="0.84" ry="7.69" transform="translate(372.98 1171.43) rotate(-45)"/>
      <ellipse class="cls-12" cx="1600.53" cy="135.49" rx="7.69" ry="0.84" transform="translate(372.98 1171.43) rotate(-45)"/>
    </g>
    <g>
      <ellipse class="cls-12" cx="88.53" cy="283.49" rx="0.84" ry="7.69" transform="translate(-174.53 145.63) rotate(-45)"/>
      <ellipse class="cls-12" cx="88.53" cy="283.49" rx="7.69" ry="0.84" transform="translate(-174.53 145.63) rotate(-45)"/>
    </g>
    <g>
      <ellipse class="cls-12" cx="70.53" cy="461.49" rx="0.84" ry="7.69" transform="translate(-305.66 185.04) rotate(-45)"/>
      <ellipse class="cls-12" cx="70.53" cy="461.49" rx="7.69" ry="0.84" transform="translate(-305.66 185.04) rotate(-45)"/>
    </g>
    <g>
      <ellipse class="cls-12" cx="378.53" cy="540.49" rx="0.84" ry="7.69" transform="translate(-271.31 425.97) rotate(-45)"/>
      <ellipse class="cls-12" cx="378.53" cy="540.49" rx="7.69" ry="0.84" transform="translate(-271.31 425.97) rotate(-45)"/>
    </g>
    <g>
      <ellipse class="cls-12" cx="378.53" cy="710.49" rx="0.84" ry="7.69" transform="translate(-391.52 475.76) rotate(-45)"/>
      <ellipse class="cls-12" cx="378.53" cy="710.49" rx="7.69" ry="0.84" transform="translate(-391.52 475.76) rotate(-45)"/>
    </g>
    <g>
      <ellipse class="cls-12" cx="646.53" cy="525.49" rx="0.84" ry="7.69" transform="translate(-182.21 611.08) rotate(-45)"/>
      <ellipse class="cls-12" cx="646.53" cy="525.49" rx="7.69" ry="0.84" transform="translate(-182.21 611.08) rotate(-45)"/>
    </g>
    <g>
      <ellipse class="cls-12" cx="1316.53" cy="525.49" rx="0.84" ry="7.69" transform="translate(14.03 1084.84) rotate(-45)"/>
      <ellipse class="cls-12" cx="1316.53" cy="525.49" rx="7.69" ry="0.84" transform="translate(14.03 1084.84) rotate(-45)"/>
    </g>
    <g>
      <ellipse class="cls-12" cx="59.53" cy="35.49" rx="0.84" ry="7.69" transform="translate(-7.66 52.49) rotate(-45)"/>
      <ellipse class="cls-12" cx="59.53" cy="35.49" rx="7.69" ry="0.84" transform="translate(-7.66 52.49) rotate(-45)"/>
    </g>
    <g>
      <ellipse class="cls-12" cx="1255.53" cy="53.49" rx="1.38" ry="12.64" transform="translate(6.82 194.72) rotate(-8.89)"/>
      <ellipse class="cls-12" cx="1255.53" cy="53.49" rx="12.64" ry="1.38" transform="translate(6.82 194.72) rotate(-8.89)"/>
    </g>
    <g>
      <ellipse class="cls-12" cx="1526.53" cy="98.49" rx="1.38" ry="12.64" transform="translate(3.12 237.15) rotate(-8.89)"/>
      <ellipse class="cls-12" cx="1526.53" cy="98.49" rx="12.64" ry="1.38" transform="translate(3.12 237.15) rotate(-8.89)"/>
    </g>
    <g>
      <ellipse class="cls-12" cx="585.53" cy="45.49" rx="13.86" ry="1.51" transform="translate(402.27 603.46) rotate(-76.26)"/>
      <ellipse class="cls-12" cx="585.53" cy="45.49" rx="1.51" ry="13.86" transform="translate(402.27 603.46) rotate(-76.26)"/>
    </g>
    <g>
      <ellipse class="cls-12" cx="570.53" cy="353.49" rx="13.86" ry="1.51" transform="translate(91.64 823.73) rotate(-76.26)"/>
      <ellipse class="cls-12" cx="570.53" cy="353.49" rx="1.51" ry="13.86" transform="translate(91.64 823.73) rotate(-76.26)"/>
    </g>
    <g>
      <ellipse class="cls-12" cx="188.53" cy="427.49" rx="13.86" ry="1.51" transform="translate(-271.5 509.09) rotate(-76.26)"/>
      <ellipse class="cls-12" cx="188.53" cy="427.49" rx="1.51" ry="13.86" transform="translate(-271.5 509.09) rotate(-76.26)"/>
    </g>
    <g>
      <ellipse class="cls-12" cx="508.53" cy="645.49" rx="13.86" ry="1.51" transform="translate(-239.27 986.15) rotate(-76.26)"/>
      <ellipse class="cls-12" cx="508.53" cy="645.49" rx="1.51" ry="13.86" transform="translate(-239.27 986.15) rotate(-76.26)"/>
    </g>
    <g>
      <ellipse class="cls-12" cx="1713.53" cy="485.49" rx="13.86" ry="1.51" transform="translate(834.93 2034.67) rotate(-76.26)"/>
      <ellipse class="cls-12" cx="1713.53" cy="485.49" rx="1.51" ry="13.86" transform="translate(834.93 2034.67) rotate(-76.26)"/>
    </g>
    <g>
      <ellipse class="cls-12" cx="1157.53" cy="653.49" rx="13.86" ry="1.51" transform="translate(247.8 1622.67) rotate(-76.26)"/>
      <ellipse class="cls-12" cx="1157.53" cy="653.49" rx="1.51" ry="13.86" transform="translate(247.8 1622.67) rotate(-76.26)"/>
    </g>
    <g>
      <ellipse class="cls-12" cx="1887.53" cy="633.49" rx="13.86" ry="1.51" transform="translate(823.84 2316.53) rotate(-76.26)"/>
      <ellipse class="cls-12" cx="1887.53" cy="633.49" rx="1.51" ry="13.86" transform="translate(823.84 2316.53) rotate(-76.26)"/>
    </g>
    <g>
      <ellipse class="cls-12" cx="103.53" cy="669.49" rx="13.86" ry="1.51" transform="translate(-571.39 611.04) rotate(-76.26)"/>
      <ellipse class="cls-12" cx="103.53" cy="669.49" rx="1.51" ry="13.86" transform="translate(-571.39 611.04) rotate(-76.26)"/>
    </g>
    <g>
      <ellipse class="cls-12" cx="946.53" cy="94.49" rx="3.57" ry="0.39" transform="translate(629.92 991.49) rotate(-76.26)"/>
      <ellipse class="cls-12" cx="946.53" cy="94.49" rx="0.39" ry="3.57" transform="translate(629.92 991.49) rotate(-76.26)"/>
    </g>
    <g>
      <ellipse class="cls-12" cx="614.53" cy="138.49" rx="3.57" ry="0.39" transform="translate(334.04 702.54) rotate(-76.26)"/>
      <ellipse class="cls-12" cx="614.53" cy="138.49" rx="0.39" ry="3.57" transform="translate(334.04 702.54) rotate(-76.26)"/>
    </g>
    <g>
      <ellipse class="cls-12" cx="427.53" cy="411.49" rx="3.57" ry="0.39" transform="translate(-73.73 729.05) rotate(-76.26)"/>
      <ellipse class="cls-12" cx="427.53" cy="411.49" rx="0.39" ry="3.57" transform="translate(-73.73 729.05) rotate(-76.26)"/>
    </g>
    <g>
      <ellipse class="cls-12" cx="837.53" cy="184.49" rx="0.49" ry="4.52" transform="translate(-18.45 131.68) rotate(-8.89)"/>
      <ellipse class="cls-12" cx="837.53" cy="184.49" rx="4.52" ry="0.49" transform="translate(-18.45 131.68) rotate(-8.89)"/>
    </g>
    <g>
      <ellipse class="cls-12" cx="381.53" cy="53.49" rx="0.49" ry="4.52" transform="translate(-3.68 59.62) rotate(-8.89)"/>
      <ellipse class="cls-12" cx="381.53" cy="53.49" rx="4.52" ry="0.49" transform="translate(-3.68 59.62) rotate(-8.89)"/>
    </g>
    <g>
      <ellipse class="cls-12" cx="493.53" cy="160.49" rx="0.49" ry="4.52" transform="translate(-18.88 78.22) rotate(-8.89)"/>
      <ellipse class="cls-12" cx="493.53" cy="160.49" rx="4.52" ry="0.49" transform="translate(-18.88 78.22) rotate(-8.89)"/>
    </g>
    <g>
      <ellipse class="cls-12" cx="342.53" cy="312.49" rx="0.49" ry="4.52" transform="translate(-44.19 56.7) rotate(-8.89)"/>
      <ellipse class="cls-12" cx="342.53" cy="312.49" rx="4.52" ry="0.49" transform="translate(-44.19 56.7) rotate(-8.89)"/>
    </g>
    <g>
      <ellipse class="cls-12" cx="1338.53" cy="184.49" rx="0.49" ry="4.52" transform="translate(-12.43 209.13) rotate(-8.89)"/>
      <ellipse class="cls-12" cx="1338.53" cy="184.49" rx="4.52" ry="0.49" transform="translate(-12.43 209.13) rotate(-8.89)"/>
    </g>
    <g>
      <ellipse class="cls-12" cx="1643.53" cy="316.49" rx="0.49" ry="4.52" transform="translate(-29.17 257.86) rotate(-8.89)"/>
      <ellipse class="cls-12" cx="1643.53" cy="316.49" rx="4.52" ry="0.49" transform="translate(-29.17 257.86) rotate(-8.89)"/>
    </g>
    <g>
      <ellipse class="cls-12" cx="1857.53" cy="408.49" rx="0.49" ry="4.52" transform="translate(-40.82 292.05) rotate(-8.89)"/>
      <ellipse class="cls-12" cx="1857.53" cy="408.49" rx="4.52" ry="0.49" transform="translate(-40.82 292.05) rotate(-8.89)"/>
    </g>
    <rect class="cls-13" width="1918" height="1079"/>
    <path class="cls-14" d="M1955.92,716.37s-130-96.77-258.59-76.07S1468.66,766.81,1365.2,784.91,1164.32,718,1068.54,696s-257.77-11.32-362.28,74.34S459.63,873.43,385,839,121.49,728.27-12.88,745.13l-16.29,12.38,41.42,420.27,233.5,8.22,1688-72.12Z"/>
    <path class="cls-15" d="M-34.17,885.37s130-96.77,258.59-76.07S453.1,935.81,556.55,953.91,757.43,887,853.22,865s257.76-11.32,362.27,74.34S1553.37,1110.43,1628,1076s172.26-178.73,306.63-161.87l16.29,12.38-41.42,420.27L1676,1355-12,1282.88Z"/>
    <g>
      <ellipse class="cls-12" cx="1461.26" cy="233.01" rx="0.84" ry="7.69" transform="translate(263.23 1101.52) rotate(-45)"/>
      <ellipse class="cls-12" cx="1461.26" cy="233.01" rx="7.69" ry="0.84" transform="translate(263.23 1101.52) rotate(-45)"/>
    </g>
    <g>
      <path class="cls-16" d="M-37.55,926.14c9.39,0,96.42,25.6,131.4,34.13s90.44,20.48,108.36,16.21,85.33-17.92,94.71-23.89,57.17-20.48,57.17-20.48S309.72,965.39,291,972.22,175.76,997,142.48,997.81,50.34,983.31,24.74,979s-52.9-1.71-60.58.85S-37.55,926.14-37.55,926.14Z"/>
      <path class="cls-16" d="M268.76,973.07s48.64-2.56,68.26,14.5,42.67,23,51.2,26.45,29,19.63,29,19.63-49.49.85-74.23-17.07-79.89-33.94-79.89-33.94l-29.33-2.75Z"/>
      <path class="cls-16" d="M331.05,991.84s14.51,1.71,34.13-18.77,31.57-30.72,32.42-47.78,4.27-37.55,4.27-37.55S407,915.05,407,921.87s-4.27,29-14.51,43.52-17.91,14.5-23.89,29.86-6,22.19-6,22.19Z"/>
      <path class="cls-16" d="M401.87,933.82s4.27-3.41,22.18,10.24,19.63,24.74,26.45,34.13,9.39,24.74,11.1,28.15-17.07-22.18-29-33.27S413,960.27,407,960.27s-19.63,3.41-19.63,3.41Z"/>
      <path class="cls-16" d="M58.56,953.42s8,2.58,26.76-19.6,40.1-68.26,40.1-68.26,1.71-49.49-1.71-66.55-12.79-53.76-12.79-53.76,19.62,20.48,22.18,44.37,10.24,41.81,5.12,58.88-.85,22.18-9.39,41-11.09,21.33-15.36,41-10.6,23.74-2.31,37S122.86,985,122.86,985Z"/>
      <path class="cls-16" d="M126.36,898.49s44.28-34.64,46-44S186,812.66,186,802.42V717.1s11.09,31.57,8.53,55.46,0,46.07-6,68.26-12.8,32.42-29.86,46.07-13.66,12.8-29.87,25.6-21.33,16.21-24.74,27.3,5.12-33.27,5.12-33.27Z"/>
      <path class="cls-16" d="M183.44,848.5s9.39-15.36,35,4.26,33.28,34.13,46.08,43.52,43.51,15.36,46.93,15.36-3.42,6.82-22.19,6.82-33.27-3.41-49.49-16.21S221.84,875.8,209,872.39,188.56,869,177.47,875a98.41,98.41,0,0,1-23.89,8.53L180,856.18Z"/>
    </g>
    <g>
      <rect class="cls-17" x="11.23" y="909.97" width="37.59" height="59.79" rx="10.14"/>
      <path class="cls-17" d="M30.26,816h27A34.17,34.17,0,0,1,89.8,860.68L67.25,930.47h0c-11.6,35.89-62.38,35.89-74,0h0l-22.56-69.79C-37.22,836.11-22.59,816,3.24,816Z"/>
      <g>
        <path class="cls-17" d="M8.5,798,3,803.5a3.25,3.25,0,0,1-5.19-.82l-7-13.66-4.44-8.68A3.26,3.26,0,0,1-9.2,776l8.67,4.44,13.66,7a3.06,3.06,0,0,1,.82,5.19Z"/>
        <path class="cls-17" d="M51.55,798,57,803.5a3.25,3.25,0,0,0,5.19-.82l7-13.66,4.44-8.68A3.26,3.26,0,0,0,69.25,776l-8.68,4.44-13.66,7a3.06,3.06,0,0,0-.81,5.19Z"/>
      </g>
      <circle class="cls-17" cx="30.02" cy="816" r="41"/>
    </g>
    <g>
      <path class="cls-11" d="M1928.77,971.91s-147.43,107.66-172.8,111.48c-26.91,4-63.24,11.36-98.74,19.59-3.52-1.4-8.22-3.38-14.53-6.19-27.59-12.28-47.92-20.1-56.64-32.38s-29-27.91-29-27.91c-3.45-1.35-36.34-13.85-43.56-11.17,0,0-4.36-1.12,14.52,6.7,4,1.67,7.29,2.94,10,4,.58.83.81,2.64.15,7.15-1.45,10,1.46,10-10.16,16.75a82.24,82.24,0,0,0-10.37,5.19c-23,4-59.62-3.54-70.95,9.33-7.26,7.82-16,16.75-16,16.75,4-3.59,15.08-10.85,26.79-15.6,5,4.64,0,11-2.1,21.18a14.23,14.23,0,0,0-.16,1.56c-1.07,1.56-2.82,4.14-5.65,8.49-8.71,13.4-13.07,11.17-17.42,22.33s-2.91,15.63-2.91,20.1,1.45-8.93,7.26-17.86,5.81-12.29,13.07-15.64c6.78-3.12,6-6.35,9.37-4.9a62.93,62.93,0,0,1,5.15,11.6c2.91,10,2.91,15.63,2.91,15.63s1.45-23.44-2.91-30.14c-4.69-4.92,2.5-30.44,5.37-36.08a35.08,35.08,0,0,1,7.7-.77c10.06-.23,23.92-1.61,30.26,1.39-6.75,6-11.1,12.91-11.38,19.83,0,4.46,0,4.46,13.07-10s17.43-11.17,26.14-21.22,7.26-13.4,14.52-13.4a25.78,25.78,0,0,1,8.58,1.7l1.59,1.65c11.61,12.28,11.61,17.87,23.23,25.68s13.07,8.93,20.33,16.75,13.07,5.58,11.62,15.63a35.41,35.41,0,0,1-.95,4.48c-32.49,8.46-60.07,16.87-73,23-13-5.6-28.3-19.87-30.61-23-9.29-13.75-28.47-14-40.66-11.17,8.72,1.47,21.16,6.46,31.29,12.92,1.65,7.19,4.06,6.86-11,20.58-7.26,7.82-5.81,11.17-16,23.45s-14.52,14.52-14.52,14.52,23.23-11.17,26.14-19,11.61-12.28,20.33-23.44c3.6-4.62,6.21-5.5,7.89-5.37a28,28,0,0,1,2.27,3.13c5.81,7.82,8.71,7.82,7.26,15.63a19.29,19.29,0,0,0-.39,2c-8.7,5.46-14.39,10-15.93,13.36-1.22,2.69,9.06-.87,65.7-18.74,5.23-1.65,11.12-3.3,17.5-5,17.69,22.59,1.43,10.51-11.21,54.54-1.46.51-4.39,1.07-22.27-.46-26.14-2.23-43.56,5.59-52.28,0s-16-5.58-14.52-4.46c3.93,7,9.44,10.65,17.6,12.2-25.7,13.25-44.8-3.82-53.58-16.48-1.46-1.11-2.91,6.7,8.71,14.52s16,16.75,27.59,15.63,14.52-5.58,24.69-8.93a69.16,69.16,0,0,0,9.62-4c2.79-.14,5.75-.36,8.94-.66,18.88-1.12,30.49-4.47,34.85,1.12a65.91,65.91,0,0,1,4.82,7.29c-13.12,14.9-55.4,20.17-65.81,21.74,15.91,6,40.81,5.15,62.44-10,18.88-11.17,29-15.63,33.4-38s10.17-23.45,20.33-41.32c3.86-6.78,6.46-10.34,8.2-12.15,20.14-4.14,41.63-8.13,61.79-11.79,4.63,7.4,6.17,17.32,6.46,27.85-1.67,1.6-3.86,3.61-6.75,6.14-20.33,17.87-29,20.1-37.75,30.15-7.57,8.72-14,14.92-16.56,21.52-14.12,3.25-47,4.73-53.15,20.91a31.66,31.66,0,0,1,16-8.93c10.16-2.24,24.68-5.59,29-6.7a7.15,7.15,0,0,1,6.33,1.63c-1.81,6.36-4.63,12-3.42,12.88s7.67-18.15,15.8-28.08a45.31,45.31,0,0,1,7.43,2.4c5.35,2.06,9.44,24-5.77,40.49-32.31,4.54-51,5.25-72.65-13.69,7.49,7.49,8.62,15.63,27.59,19l1.92.08.19.12c4.23,4-4.06,25.85-7.91,28.83-1.46,1.12-8.72,19-1.46,11.17s7.26-8.93,10.17-16.75c.94-2.4,4.72-19.26,8.92-23,12.09.3,25.89.22,28.84-1.52a106.61,106.61,0,0,0-14.22,14.27c16.77-13.65,48.22-27.72,31.64-55.58-4.16-8-3.11-13.11-2.17-15.38,14.3-11.27,18.69-24.12,37.27-13.78-.12,2.73-.21,5.39-.25,8-1.45,19-8.71,32.38-23.23,58.06-5.13,9.07-9.23,29.47-7.26,31.26,3.6,3.29,33.4-41.31,42.11-58.06,3.47-6.67,6.93-25.89,9.85-46.62,2.25-2.09,4.91-4.41,7.58-7,5.8-5.58,10.16-3.35,24.68-3.35a27,27,0,0,1,7.21,1,108.57,108.57,0,0,0,10.22,7.89c13.07,8.93,8.71,6.7,11.61,14.51,1.78,2.92,3.23,5.58,4.43,8l-1-1.18c-19.42-8.34-27.69,32.1-41.2,32.21-10.17,3.35-29,13.4-29,13.4l-7.26,8.93s17.42-8.93,31.94-14.51,20.33-14.52,26.14-20.1c11.36-15.73,14.75-7.94,24.59-6.63,2.71,16.52-11.91,21.36-18.78,42.36,11.83-13.19,46.45-39.57,29-59.18a137,137,0,0,1-10.67-13,53.73,53.73,0,0,0,9.22,1.86c20.33,2.23,110.36-15.64,110.36-15.64s-39.38,1.52-70.92,1.83c-12.57-5.68-13.87-25.66-7.49-36.44,4.35-8.93,4.35-22.33,13.07-26.8s17.42-11.16,16-11.16c-28.25,9.29-36.8,20.17-42.11,44.66,0,5.58-1.45,8.93-4.36,15.63s0,8.93-4.35,11.17a27.17,27.17,0,0,0-3.8,2.43c-.74-.06-1.41-.13-2-.2-18.88-2.23-33.4-11.17-62.45-23.45-8.24-3.48-13.08-5.35-15.84-6.23.56-5.09,1.05-9.74,1.45-13.69,9.08-1.67,17.39-3.22,24.56-4.64,20-4,136.17-54,171.35-82.45C1966.92,986.68,1928.77,971.91,1928.77,971.91Z"/>
      <path class="cls-11" d="M1638.84,1018l-.31.25C1638.15,1018.81,1638.28,1018.66,1638.84,1018Z"/>
    </g>
    <g>
      <g>
        <path class="cls-18" d="M793.79,416l-8,84.36-160,12.53q1.14-66.3,2.57-131.85t3.51-131.85h98.8q-4.38,41.61-8.36,83.12T716.66,416q8.93.38,17.67.38H752q10.63,0,20.9-.19T793.79,416Z"/>
        <path class="cls-18" d="M920.06,329.45q-.72,11.35-1.33,22.48t-1.57,22.49l-51.26,2.66-1.21,15.23h36l-2.66,37.48L861.79,431l-1.21,17.66h51.26q-.72,13.29-1.51,26.41t-1.39,26.3l-104.22,2.42,3.87-174.34Z"/>
        <path class="cls-18" d="M1072,334.28l-44.25,168.3-60,3.38L913.41,336l57.31-5.32,23.22,99.14,22.48-99.14Z"/>
        <path class="cls-18" d="M1190.4,329.45q-.72,11.35-1.33,22.48t-1.57,22.49l-51.26,2.66L1135,392.31h36l-2.66,37.48L1132.13,431l-1.21,17.66h51.26q-.72,13.29-1.51,26.41t-1.39,26.3l-104.22,2.42,3.87-174.34Z"/>
        <path class="cls-18" d="M1300.79,434.87l-5.08,53.68-101.8,8q.72-42.19,1.63-83.9t2.24-83.91h62.87q-2.79,26.47-5.32,52.89t-3.63,53.26c3.79.17,7.54.24,11.25.24h11.24c4.51,0,9,0,13.3-.12S1296.27,434.87,1300.79,434.87Z"/>
        <path class="cls-18" d="M568.06,575.53l-10.64,80.18a67.86,67.86,0,0,0-11-2.09,107,107,0,0,0-11-.57,95.43,95.43,0,0,0-26.79,3.7,66.62,66.62,0,0,0-22.51,11.31,55.54,55.54,0,0,0-15.58,19q-5.79,11.4-5.79,26.79a42.76,42.76,0,0,0,3.13,17.1,31.73,31.73,0,0,0,8.84,12,37,37,0,0,0,13.48,7,60.77,60.77,0,0,0,17.1,2.28,74,74,0,0,0,14.63-1.52,123.46,123.46,0,0,0,15-4,139.7,139.7,0,0,0,14.44-5.7q7-3.22,12.92-6.65l-7.6,89.3a119.93,119.93,0,0,1-16,6.75q-8.65,2.94-17.77,5.13a168.9,168.9,0,0,1-18.24,3.32A141,141,0,0,1,487.12,840a112.6,112.6,0,0,1-105.54-70.2,117.51,117.51,0,0,1-8.83-45.69,197.86,197.86,0,0,1,9.31-61.28,149.7,149.7,0,0,1,27.36-50.44,128.38,128.38,0,0,1,44.74-34.2q26.7-12.54,61.46-12.54a179.7,179.7,0,0,1,26.89,2.09A89.11,89.11,0,0,1,568.06,575.53Z"/>
        <path class="cls-18" d="M725.24,736.79A87.74,87.74,0,0,1,722.7,758a83.11,83.11,0,0,1-7.32,19.17,79.5,79.5,0,0,1-11.6,16.38,74.17,74.17,0,0,1-15.36,12.76,74.53,74.53,0,0,1-39.84,11.24,76.13,76.13,0,0,1-20.73-2.78,78.34,78.34,0,0,1-18.44-7.8A74.76,74.76,0,0,1,582,779.16a80.49,80.49,0,0,1-7.62-18.56,77.86,77.86,0,0,1-2.72-20.67,84.57,84.57,0,0,1,9.85-39.66,82.35,82.35,0,0,1,11.55-16.44,76.07,76.07,0,0,1,15.17-12.94,73.2,73.2,0,0,1,18.2-8.46,69.87,69.87,0,0,1,20.67-3,90,90,0,0,1,32,5.44,67.65,67.65,0,0,1,40.5,40A86.84,86.84,0,0,1,725.24,736.79Zm-53.69,3.14a34,34,0,0,0-1.51-10.1,27.66,27.66,0,0,0-4.41-8.7,22.55,22.55,0,0,0-7.19-6.17,20.19,20.19,0,0,0-9.86-2.35,24,24,0,0,0-10.15,2,23.2,23.2,0,0,0-7.68,5.62,24.62,24.62,0,0,0-4.9,8.35,29.89,29.89,0,0,0-1.69,10.09,36.74,36.74,0,0,0,1.45,10.16,30.23,30.23,0,0,0,4.35,9.18,23.09,23.09,0,0,0,7.2,6.65,19.13,19.13,0,0,0,10,2.54A22.8,22.8,0,0,0,657.35,765a23.11,23.11,0,0,0,7.68-6,27.84,27.84,0,0,0,4.83-8.76A31.57,31.57,0,0,0,671.55,739.93Z"/>
        <path class="cls-18" d="M920.62,645.87,909.49,823.35l-55.13,2.42.48-93.58-24.9,75.45H808.66l-19.1-67.47-.25,78.35-55.85,1.69,2.42-167.09L798,650.7l24.66,80,32.89-84.87Z"/>
        <path class="cls-18" d="M1070.29,705.83a57.58,57.58,0,0,1-3.5,20.8,50.64,50.64,0,0,1-9.61,15.84A58,58,0,0,1,1042.85,754a88.88,88.88,0,0,1-17.59,7.68,116.86,116.86,0,0,1-19.41,4.35,157.25,157.25,0,0,1-19.7,1.52v56.34H929.8q0-27.69.13-55.14t.36-55.37q.24-14.75.12-29.5t.6-29.74a225,225,0,0,1,31-6.89,217.43,217.43,0,0,1,31.92-2.3,115.74,115.74,0,0,1,18.62,1.51,90.14,90.14,0,0,1,17.84,4.78,78.63,78.63,0,0,1,15.83,8.16,53.4,53.4,0,0,1,21,27.08A57.35,57.35,0,0,1,1070.29,705.83ZM1016.61,710q0-7.86-4.77-12.28t-12.4-4.41a34.34,34.34,0,0,0-5.25.42q-2.73.44-5.14,1L987.6,730a23.08,23.08,0,0,0,3.26.24h3.27a24.9,24.9,0,0,0,8.4-1.45,22.44,22.44,0,0,0,7.19-4.18,20.81,20.81,0,0,0,5-6.4A18,18,0,0,0,1016.61,710Z"/>
        <path class="cls-18" d="M1183.22,753.23l-5.08,53.68-101.8,8q.72-42.2,1.63-83.91t2.24-83.9h62.87q-2.79,26.48-5.32,52.89t-3.63,53.26q5.68.24,11.25.24h11.24q6.77,0,13.3-.12T1183.22,753.23Z"/>
        <path class="cls-18" d="M1303.4,647.8q-.74,11.37-1.33,22.49t-1.58,22.49l-51.26,2.66L1248,710.67h36l-2.66,37.48-36.27,1.21L1243.91,767h51.26q-.72,13.31-1.51,26.42t-1.39,26.3l-104.22,2.41,3.87-174.34Z"/>
        <path class="cls-18" d="M1435.3,649.25l-1.21,51.26-36,1.46-9.19,114.61-51,2.66.25-114.61-36,1.93,1.45-57.07Z"/>
        <path class="cls-18" d="M1556.45,647.8q-.73,11.37-1.33,22.49t-1.57,22.49l-51.27,2.66-1.21,15.23h36l-2.66,37.48-36.27,1.21L1497,767h51.27q-.74,13.31-1.52,26.42t-1.39,26.3l-104.22,2.41L1445,647.8Z"/>
      </g>
      <g>
        <path d="M784.6,406.81l-8,84.36-160,12.54q1.14-66.3,2.56-131.86T622.73,240h98.79q-4.37,41.61-8.36,83.12t-5.7,83.69q8.92.39,17.67.38H742.8q10.63,0,20.9-.19T784.6,406.81Z"/>
        <path d="M910.87,320.25q-.74,11.37-1.33,22.49T908,365.22l-51.26,2.66-1.21,15.24h36l-2.66,37.48-36.27,1.21-1.21,17.65h51.26q-.72,13.31-1.51,26.42t-1.39,26.29l-104.22,2.42,3.87-174.34Z"/>
        <path d="M1062.84,325.08l-44.25,168.3-60,3.39-54.4-170,57.3-5.32,23.22,99.14,22.49-99.14Z"/>
        <path d="M1181.21,320.25q-.74,11.37-1.33,22.49t-1.58,22.48L1127,367.88l-1.21,15.24h36l-2.66,37.48-36.27,1.21-1.21,17.65H1173q-.72,13.31-1.51,26.42t-1.39,26.29l-104.22,2.42,3.87-174.34Z"/>
        <path d="M1291.59,425.68l-5.08,53.68-101.8,8q.74-42.19,1.63-83.91t2.24-83.91h62.87q-2.78,26.48-5.32,52.9t-3.63,53.26q5.68.24,11.25.24H1265q6.78,0,13.3-.12T1291.59,425.68Z"/>
        <path d="M551.08,566.34l-10.64,80.17c-3.67-1,.44-1.71-3.24-2.09a106.83,106.83,0,0,0-11-.57,95.33,95.33,0,0,0-26.79,3.71,66.74,66.74,0,0,0-22.52,11.3,55.77,55.77,0,0,0-15.58,19q-5.79,11.4-5.79,26.79a42.69,42.69,0,0,0,3.13,17.1,31.84,31.84,0,0,0,8.84,12,36.93,36.93,0,0,0,13.49,7,60.67,60.67,0,0,0,17.1,2.28,74.92,74.92,0,0,0,14.63-1.52,124,124,0,0,0,15-4,143.24,143.24,0,0,0,14.43-5.7q7-3.23,12.92-6.65l-7.6,89.29a118.63,118.63,0,0,1-16.05,6.75q-8.64,2.94-17.76,5.13a166.49,166.49,0,0,1-18.24,3.32,141.1,141.1,0,0,1-17.48,1.14,112.56,112.56,0,0,1-105.54-70.2,117.48,117.48,0,0,1-8.84-45.69,198.09,198.09,0,0,1,9.31-61.27,150.09,150.09,0,0,1,27.36-50.45A128.45,128.45,0,0,1,445,569q26.7-12.54,61.47-12.54a178.16,178.16,0,0,1,26.88,2.09C542.49,559.94,543.23,562.54,551.08,566.34Z"/>
        <path d="M716,727.59a87.82,87.82,0,0,1-2.54,21.22A83,83,0,0,1,706.19,768a79.39,79.39,0,0,1-11.61,16.38,73.91,73.91,0,0,1-15.36,12.76,74.46,74.46,0,0,1-39.83,11.24,75.77,75.77,0,0,1-20.74-2.78,78.52,78.52,0,0,1-18.44-7.8,73.75,73.75,0,0,1-15.53-12.09A74.76,74.76,0,0,1,572.83,770a81.12,81.12,0,0,1-7.62-18.56,77.94,77.94,0,0,1-2.72-20.68A84.3,84.3,0,0,1,565,710.12a83,83,0,0,1,7.32-19,82.08,82.08,0,0,1,11.54-16.45,75.8,75.8,0,0,1,15.18-12.93,72.81,72.81,0,0,1,18.19-8.47,69.89,69.89,0,0,1,20.68-3,90,90,0,0,1,32,5.44,67.77,67.77,0,0,1,40.51,40A86.84,86.84,0,0,1,716,727.59Zm-53.68,3.14a34.25,34.25,0,0,0-1.51-10.09,27.63,27.63,0,0,0-4.42-8.71,22.52,22.52,0,0,0-7.19-6.16,20,20,0,0,0-9.85-2.36,24.07,24.07,0,0,0-10.16,2.05,23.3,23.3,0,0,0-7.68,5.63,24.46,24.46,0,0,0-4.89,8.34,29.94,29.94,0,0,0-1.7,10.09,37.12,37.12,0,0,0,1.45,10.16,30.18,30.18,0,0,0,4.36,9.19,23.18,23.18,0,0,0,7.19,6.65,19.26,19.26,0,0,0,10,2.54,22.79,22.79,0,0,0,10.21-2.24,23.11,23.11,0,0,0,7.68-6.05,27.75,27.75,0,0,0,4.84-8.76A31.79,31.79,0,0,0,662.36,730.73Z"/>
        <path d="M911.42,636.67,900.3,814.16l-55.14,2.41.49-93.58-24.91,75.45H799.46L780.36,731l-.24,78.35L724.26,811l2.42-167.09,62.14-2.41,24.67,80,32.88-84.87Z"/>
        <path d="M1061.1,696.64a57.27,57.27,0,0,1-3.51,20.79,50.64,50.64,0,0,1-9.61,15.84,58,58,0,0,1-14.33,11.49,89.18,89.18,0,0,1-17.59,7.67,117.78,117.78,0,0,1-19.4,4.36A159.28,159.28,0,0,1,977,758.3v56.34H920.61q0-27.69.12-55.13t.36-55.38q.24-14.75.12-29.5t.61-29.74A224.34,224.34,0,0,1,952.77,638a217.23,217.23,0,0,1,31.92-2.3,117,117,0,0,1,18.62,1.51,90,90,0,0,1,17.83,4.78,80,80,0,0,1,15.84,8.16,53.56,53.56,0,0,1,21,27.08A57.4,57.4,0,0,1,1061.1,696.64Zm-53.68,4.11q0-7.86-4.78-12.27t-12.39-4.42a34.51,34.51,0,0,0-5.26.43c-1.81.28-3.53.62-5.14,1l-1.45,35.31a23.3,23.3,0,0,0,3.26.24h3.27a24.65,24.65,0,0,0,8.4-1.45,22.49,22.49,0,0,0,7.19-4.17,21,21,0,0,0,5-6.41A18,18,0,0,0,1007.42,700.75Z"/>
        <path d="M1174,744l-5.08,53.68-101.8,8q.73-42.2,1.63-83.9t2.24-83.91h62.87q-2.78,26.48-5.32,52.89T1124.93,744q5.68.24,11.25.24h11.24q6.78,0,13.3-.12T1174,744Z"/>
        <path d="M1294.2,638.6q-.72,11.37-1.33,22.49t-1.57,22.49L1240,686.24l-1.2,15.23h36L1272.19,739l-36.27,1.21-1.21,17.65H1286q-.74,13.31-1.51,26.42t-1.39,26.3L1178.86,813l3.87-174.35Z"/>
        <path d="M1426.1,640.05l-1.2,51.27-36,1.45-9.19,114.62-51,2.65.24-114.61-36,1.93,1.45-57.06Z"/>
        <path d="M1547.25,638.6q-.72,11.37-1.33,22.49t-1.57,22.49l-51.26,2.66-1.21,15.23h36L1525.25,739,1489,740.16l-1.2,17.65H1539q-.73,13.31-1.51,26.42t-1.39,26.3L1431.91,813l3.87-174.35Z"/>
      </g>
    </g>
  </g>
</svg>
