<svg xmlns="http://www.w3.org/2000/svg" width="735" height="600" viewBox="0 0 735 600">
  <defs>
    <style>
      .cls-1 {
        fill: #f15a24;
      }
    </style>
  </defs>
  <g id="Title_screens" data-name="Title screens">
    <g>
      <g>
        <path class="cls-1" d="M247.69,239.84a88,88,0,0,1-21.8,19.36,143.09,143.09,0,0,1-27.82,13.72,153.83,153.83,0,0,1-30.45,8.18,173.44,173.44,0,0,1-29.7,2.72q-27.25,0-50.18-9.77a119.6,119.6,0,0,1-39.57-27,124.55,124.55,0,0,1-26-40.51,132.78,132.78,0,0,1-9.4-50.18A172.68,172.68,0,0,1,30.88,79.23a155.16,155.16,0,0,1,21.33-32A137.86,137.86,0,0,1,80.78,22.18a135,135,0,0,1,35-16.35A137.51,137.51,0,0,1,156.34,0q8.08,0,17.29.66A182.69,182.69,0,0,1,192,2.91a129.49,129.49,0,0,1,17.76,4.42,82,82,0,0,1,15.79,7l-5.26,71.8a95.91,95.91,0,0,0-21.71-5.36,175.11,175.11,0,0,0-21.9-1.41,84,84,0,0,0-28.1,4.61A67.32,67.32,0,0,0,125.8,97.18a62.41,62.41,0,0,0-15.32,21,67,67,0,0,0-5.64,28,68,68,0,0,0,2.63,18.89,48.7,48.7,0,0,0,8,16.16,41,41,0,0,0,13.35,11.37A38.17,38.17,0,0,0,147.32,197a61.57,61.57,0,0,0,14.75-1.88,32.39,32.39,0,0,0,13.07-6.39l.75-14.67-45.11-.75L133,116.91q28-.93,56-1.59t56.39-1.79Z"/>
        <path class="cls-1" d="M423.32,253.9,364,261.56l-7.17-27H329.55l-6,27-61-6L310.17,96.25l66.5-3.35Zm-70.81-56-9.09-41.62-8.85,41.62Z"/>
        <path class="cls-1" d="M610.76,89.79l-11,175.59-54.54,2.4.48-92.58-24.64,74.63H500l-18.9-66.74-.23,77.51-55.27,1.67L428,97l61.48-2.39,24.4,79.18,32.53-84Z"/>
        <path class="cls-1" d="M732.76,91.71Q732,102.95,731.45,114t-1.56,22.25l-50.72,2.63L678,153.9h35.64L711,191l-35.88,1.2-1.2,17.46h50.72q-.72,13.17-1.5,26.14t-1.37,26l-103.11,2.39,3.83-172.48Z"/>
        <path class="cls-1" d="M282.2,474.44a135.9,135.9,0,0,1-3.95,33,129,129,0,0,1-11.37,29.79,123.24,123.24,0,0,1-18,25.47A114.74,114.74,0,0,1,225,582.52,116,116,0,0,1,163,600a118.21,118.21,0,0,1-32.23-4.32,122.35,122.35,0,0,1-28.67-12.13A115,115,0,0,1,78,564.76a116.56,116.56,0,0,1-18.42-24.44,125.54,125.54,0,0,1-11.84-28.85,120.87,120.87,0,0,1-4.23-32.14,131.41,131.41,0,0,1,15.32-61.65,127.48,127.48,0,0,1,18-25.57A118.1,118.1,0,0,1,100.35,372a113.44,113.44,0,0,1,28.29-13.16,108.45,108.45,0,0,1,32.14-4.7q27.25,0,49.71,8.46a105.35,105.35,0,0,1,63,62.12Q282.21,447,282.2,474.44Zm-83.45,4.89a53.17,53.17,0,0,0-2.35-15.7,43.37,43.37,0,0,0-6.86-13.53,35.26,35.26,0,0,0-11.19-9.59A31.33,31.33,0,0,0,163,436.85,37.43,37.43,0,0,0,147.24,440a36.39,36.39,0,0,0-11.93,8.74,38.31,38.31,0,0,0-7.61,13,46.54,46.54,0,0,0-2.64,15.7,57.44,57.44,0,0,0,2.26,15.79,46.76,46.76,0,0,0,6.77,14.28,35.85,35.85,0,0,0,11.18,10.34,29.91,29.91,0,0,0,15.51,3.95,35.39,35.39,0,0,0,15.88-3.48,35.85,35.85,0,0,0,11.94-9.4,43.1,43.1,0,0,0,7.51-13.63A48.9,48.9,0,0,0,198.75,479.33Z"/>
        <path class="cls-1" d="M445.16,411.45,401.38,578l-59.33,3.35L288.23,413.12l56.69-5.26,23,98.08,22.25-98.08Z"/>
        <path class="cls-1" d="M562.26,406.66q-.72,11.25-1.31,22.25t-1.56,22.25l-50.72,2.63-1.19,15.07h35.64l-2.63,37.08-35.88,1.2-1.2,17.46h50.72q-.72,13.17-1.5,26.14t-1.37,26l-103.11,2.4L452,406.66Z"/>
        <path class="cls-1" d="M706.51,463.84a81.31,81.31,0,0,1-1.61,16.92,51.09,51.09,0,0,1-5.08,13.94,50.23,50.23,0,0,1-9,11.72,79.94,79.94,0,0,1-13.28,10.29L706,567.42,652.21,578l-18.42-51-14.83.48-2.16,49.76H565.37q.6-27.27,1.14-54.3t1.25-54.31q.24-13.75.48-27.27t1-27.27A154.29,154.29,0,0,1,602,405.77q8.19-1.14,16.63-1.56t17.28-.42a92.64,92.64,0,0,1,26.38,3.77,68.53,68.53,0,0,1,22.54,11.3,56.66,56.66,0,0,1,15.73,18.78Q706.51,448.89,706.51,463.84Zm-53.58,3.83a29.27,29.27,0,0,0-1.38-9.21,20.52,20.52,0,0,0-4.06-7.24,18.71,18.71,0,0,0-6.7-4.78,23.45,23.45,0,0,0-9.39-1.74,35.69,35.69,0,0,0-4.67.3,32,32,0,0,0-4.42.9l-1.92,44.49h2.87a43.39,43.39,0,0,0,10.47-1.31A31.14,31.14,0,0,0,643.3,485a22.6,22.6,0,0,0,6.94-7.06A19,19,0,0,0,652.93,467.67Z"/>
      </g>
      <g>
        <path d="M237.19,240.54a87.87,87.87,0,0,1-21.8,19.36,143.09,143.09,0,0,1-27.82,13.72,175.92,175.92,0,0,1-30.45,8.18,173.44,173.44,0,0,1-29.7,2.72q-27.26,0-50.18-9.77a119.6,119.6,0,0,1-39.57-27,124.55,124.55,0,0,1-26-40.51,132.78,132.78,0,0,1-9.4-50.18A172.68,172.68,0,0,1,20.38,79.93,154.89,154.89,0,0,1,41.71,48,138.12,138.12,0,0,1,70.28,22.88a135,135,0,0,1,35-16.35A137.51,137.51,0,0,1,145.84.7q8.08,0,17.3.66a182.85,182.85,0,0,1,18.32,2.25A129.49,129.49,0,0,1,199.22,8,82,82,0,0,1,215,15l-5.26,71.8A95.91,95.91,0,0,0,188,81.43,175,175,0,0,0,166.14,80,84,84,0,0,0,138,84.63,67.32,67.32,0,0,0,115.3,97.88,62.41,62.41,0,0,0,100,118.93a67,67,0,0,0-5.64,28A68,68,0,0,0,97,165.83,48.89,48.89,0,0,0,105,182a41,41,0,0,0,13.35,11.37,38.17,38.17,0,0,0,18.51,4.33,61.71,61.71,0,0,0,14.76-1.88,32.41,32.41,0,0,0,13.06-6.39l.75-14.67L120.28,174l2.26-56.39q28-.93,56-1.59t56.39-1.79Z"/>
        <path d="M412.82,243.4l-59.32,7.66-7.18-27H319.05l-6,27-61-6L299.67,85.75l66.5-3.35Zm-70.81-56-9.09-41.62-8.85,41.62Z"/>
        <path d="M600.26,79.29l-11,175.6-54.54,2.39.48-92.58-24.64,74.64H489.5l-18.9-66.75-.24,77.51-55.26,1.68,2.39-165.31L479,84.08l24.4,79.18,32.54-84Z"/>
        <path d="M722.26,81.21q-.72,11.24-1.31,22.25t-1.56,22.24l-50.71,2.63-1.2,15.08h35.64l-2.63,37.08-35.88,1.19-1.2,17.47h50.72q-.72,13.15-1.5,26.13t-1.37,26l-103.11,2.39L612,81.21Z"/>
        <path d="M271.7,463.94a136.33,136.33,0,0,1-3.94,33,129.42,129.42,0,0,1-11.38,29.79,123.24,123.24,0,0,1-18,25.47A114.74,114.74,0,0,1,214.47,572a115.73,115.73,0,0,1-61.94,17.48,118.21,118.21,0,0,1-32.23-4.32,121.93,121.93,0,0,1-28.67-12.13,115.22,115.22,0,0,1-24.15-18.79,116.91,116.91,0,0,1-18.42-24.44A125.81,125.81,0,0,1,37.22,501,120.87,120.87,0,0,1,33,468.83a131.41,131.41,0,0,1,15.32-61.65,128,128,0,0,1,18-25.57A118.71,118.71,0,0,1,89.85,361.5a113.44,113.44,0,0,1,28.29-13.16,108.44,108.44,0,0,1,32.14-4.69q27.25,0,49.72,8.45a105.35,105.35,0,0,1,63,62.13Q271.71,436.49,271.7,463.94Zm-83.45,4.89a53.17,53.17,0,0,0-2.35-15.7A43.37,43.37,0,0,0,179,439.6,35.26,35.26,0,0,0,167.85,430a31.33,31.33,0,0,0-15.32-3.66,37.5,37.5,0,0,0-15.78,3.19,36.32,36.32,0,0,0-11.94,8.74,38.4,38.4,0,0,0-7.61,13,46.58,46.58,0,0,0-2.63,15.7,57.37,57.37,0,0,0,2.25,15.79A46.89,46.89,0,0,0,123.59,497a36,36,0,0,0,11.18,10.34,29.91,29.91,0,0,0,15.51,3.95,35.39,35.39,0,0,0,15.88-3.48,35.85,35.85,0,0,0,11.94-9.4,43.16,43.16,0,0,0,7.52-13.62A49.26,49.26,0,0,0,188.25,468.83Z"/>
        <path d="M434.66,401l-43.78,166.5-59.33,3.35L277.73,402.62l56.7-5.26,23,98.08,22.25-98.08Z"/>
        <path d="M551.76,396.17q-.72,11.24-1.31,22.24t-1.56,22.25l-50.71,2.63L497,458.36h35.64L530,495.44l-35.88,1.2-1.2,17.46h50.72q-.72,13.17-1.5,26.14t-1.37,26l-103.11,2.39,3.83-172.48Z"/>
        <path d="M696,453.34a81.44,81.44,0,0,1-1.62,16.93,51,51,0,0,1-5.08,13.93,50.23,50.23,0,0,1-9,11.72,79.94,79.94,0,0,1-13.28,10.29l28.47,50.72-53.83,10.52-18.42-51-14.83.47-2.15,49.76H554.87q.6-27.27,1.14-54.3t1.25-54.3q.24-13.75.48-27.28t1-27.27a154.29,154.29,0,0,1,32.83-8.31q8.19-1.14,16.63-1.56t17.28-.42a92.59,92.59,0,0,1,26.38,3.77,68.41,68.41,0,0,1,22.55,11.31,56.55,56.55,0,0,1,15.72,18.78Q696,438.39,696,453.34Zm-53.59,3.83a29.27,29.27,0,0,0-1.38-9.21,20.36,20.36,0,0,0-4.06-7.24,18.71,18.71,0,0,0-6.7-4.78,23.42,23.42,0,0,0-9.39-1.74,35.69,35.69,0,0,0-4.67.3,32,32,0,0,0-4.42.9l-1.92,44.49h2.88a43.37,43.37,0,0,0,10.46-1.31,31.14,31.14,0,0,0,9.57-4.07,22.49,22.49,0,0,0,6.94-7.06A19,19,0,0,0,642.43,457.17Z"/>
      </g>
    </g>
  </g>
</svg>
