<svg xmlns="http://www.w3.org/2000/svg" width="450" height="450" viewBox="0 0 450 450">
  <defs>
    <style>
      .cls-1 {
        fill: #ffb8c1;
      }

      .cls-2 {
        fill: #e5414d;
      }
    </style>
  </defs>
  <g id="items">
    <g>
      <path class="cls-1" d="M21.61,224.78C23,216.38,16,213.38,41,200.38s32.68-13.17,48.34-31.09,16.4-9.73,31-23.82,25.62-19.86,31.62-41,20.1-44.85,30.06-61,17-17.57,22-33.35,18-10.78,26,6.22,25.18,37.19,48.59,48.09,30,29.07,42.21,48S345,170.38,374,185.38s58,33,54,53-15,34-47,52-71,31-89,57-11,16-38,37-39,45-45,56-8,10-10,7S175,403.66,162,377s-34.24-79.63-49.62-78.14S96,296.38,84,282.38s-33-29-44-39A238.9,238.9,0,0,1,21.61,224.78Z"/>
      <path class="cls-2" d="M141.49,187.73c5.1-53.82,61.56-106.79,104.07-52.49,8.36,10.68,10.89,25.95,11.36,38.41a24.84,24.84,0,0,0,20.43,23.56c12.36,2.23,27.27,6.89,36.73,16.66,48,49.54-12.23,98.22-66.24,95.91-29.65-1.27-65.34-8-86.4-12.48a24.79,24.79,0,0,1-19.58-22.54C140.37,253.36,138.69,217.24,141.49,187.73Z"/>
    </g>
  </g>
</svg>
