<?xml version="1.0" encoding="utf-8"?>
<!-- Generator: Adobe Illustrator 24.3.0, SVG Export Plug-In . SVG Version: 6.00 Build 0)  -->
<svg version="1.1" id="Layer_1" xmlns="http://www.w3.org/2000/svg" xmlns:xlink="http://www.w3.org/1999/xlink" x="0px" y="0px"
	 viewBox="0 0 357.5 358.2" style="enable-background:new 0 0 357.5 358.2;" xml:space="preserve">
<style type="text/css">
	.st0{stroke:#FFFFFF;stroke-miterlimit:10;}
</style>
<path class="st0" d="M178.1,3.6c-47.9,0-54,0.2-72.8,1.1s-31.6,3.8-42.8,8.2C50.9,17.4,41,23.4,31.2,33.3
	C21.4,43.1,15.4,53,10.8,64.6c-4.4,11.2-7.4,24.1-8.2,42.8c-0.8,18.8-1.1,24.8-1.1,72.8c0,47.9,0.2,53.9,1.1,72.8
	c0.9,18.8,3.8,31.6,8.2,42.8c4.5,11.6,10.5,21.5,20.4,31.3c9.8,9.8,19.7,15.9,31.3,20.4c11.2,4.4,24.1,7.3,42.8,8.2
	c18.8,0.9,24.8,1.1,72.8,1.1c47.9,0,53.9-0.2,72.8-1.1c18.8-0.9,31.6-3.8,42.9-8.2c11.6-4.5,21.4-10.6,31.2-20.4
	c9.8-9.8,15.8-19.7,20.4-31.3c4.3-11.2,7.3-24,8.2-42.8c0.8-18.8,1.1-24.8,1.1-72.8c0-47.9-0.2-53.9-1.1-72.8
	c-0.9-18.8-3.9-31.6-8.2-42.8C340.9,53,334.8,43.1,325,33.3s-19.6-15.8-31.3-20.4c-11.3-4.4-24.1-7.3-42.9-8.2
	C232,3.8,226,3.6,178.1,3.6L178.1,3.6z M162.3,35.4c4.7,0,9.9,0,15.8,0c47.1,0,52.7,0.2,71.3,1c17.2,0.8,26.5,3.7,32.8,6.1
	c8.2,3.2,14.1,7,20.3,13.2c6.2,6.2,10,12.1,13.2,20.3c2.4,6.2,5.3,15.6,6.1,32.8c0.8,18.6,1,24.2,1,71.3s-0.2,52.7-1,71.3
	c-0.8,17.2-3.7,26.5-6.1,32.8c-3.2,8.2-7,14.1-13.2,20.3c-6.2,6.2-12,10-20.3,13.2c-6.2,2.4-15.6,5.3-32.8,6.1
	c-18.6,0.8-24.2,1-71.3,1s-52.7-0.2-71.3-1c-17.2-0.8-26.5-3.7-32.8-6.1c-8.2-3.2-14.1-7-20.3-13.2s-10-12.1-13.2-20.3
	c-2.4-6.2-5.3-15.6-6.1-32.8c-0.8-18.6-1-24.2-1-71.3s0.2-52.7,1-71.3c0.8-17.2,3.7-26.5,6.1-32.8c3.2-8.2,7-14.1,13.2-20.3
	s12.1-10,20.3-13.2c6.2-2.4,15.6-5.3,32.8-6.1C123.1,35.6,129.4,35.4,162.3,35.4L162.3,35.4z M272.3,64.7
	c-11.7,0-21.2,9.5-21.2,21.2s9.5,21.2,21.2,21.2s21.2-9.5,21.2-21.2C293.5,74.2,284,64.7,272.3,64.7L272.3,64.7z M178.1,89.5
	c-50.1,0-90.6,40.6-90.6,90.6c0,50.1,40.6,90.6,90.6,90.6c50.1,0,90.6-40.6,90.6-90.6C268.7,130,228.2,89.5,178.1,89.5L178.1,89.5z
	 M178.1,121.3c32.5,0,58.8,26.3,58.8,58.8s-26.3,58.8-58.8,58.8s-58.8-26.3-58.8-58.8S145.6,121.3,178.1,121.3z"/>
</svg>
