<svg xmlns="http://www.w3.org/2000/svg" width="190" height="190" viewBox="0 0 190 190">
  <defs>
    <style>
      .cls-1 {
        fill: #666;
      }

      .cls-2 {
        fill: #e6e6e6;
      }
    </style>
  </defs>
  <g id="Backgrounds">
    <g>
      <circle class="cls-1" cx="90" cy="85" r="82.5"/>
      <path class="cls-2" d="M94.36,101.24H75.94a30.56,30.56,0,0,1,.65-9.67,21,21,0,0,1,2.81-6.49,17,17,0,0,1,4-4.19,41.91,41.91,0,0,1,4.3-2.78c1.4-.78,2.64-1.54,3.71-2.26a5.64,5.64,0,0,0,2.21-2.73,4.61,4.61,0,0,0,.21-2.26,4.71,4.71,0,0,0-1.11-2.43,7.35,7.35,0,0,0-2.84-1.93A12.65,12.65,0,0,0,85,65.71a37.57,37.57,0,0,0-4.66.35,51.14,51.14,0,0,0-5.64,1.09A54.86,54.86,0,0,0,68.88,69a31.94,31.94,0,0,0-5.15,2.43L61.34,50q2-1.2,4.55-2.48a39.8,39.8,0,0,1,5.58-2.29,48.94,48.94,0,0,1,6.65-1.66,44.83,44.83,0,0,1,20.41,1.19A31.4,31.4,0,0,1,109,50.23a26.26,26.26,0,0,1,7.09,8.86,26.79,26.79,0,0,1,2.61,12.07,19.77,19.77,0,0,1-1.47,8.31,15.54,15.54,0,0,1-3.76,5.15A22.4,22.4,0,0,1,108.31,88q-2.84,1.36-5.53,3a23.87,23.87,0,0,0-5,4A15.25,15.25,0,0,0,94.36,101.24Zm2.72,14.38a10.93,10.93,0,0,1-.92,4.47,12.25,12.25,0,0,1-2.48,3.63,11.8,11.8,0,0,1-3.63,2.45,10.94,10.94,0,0,1-4.41.9,11.09,11.09,0,0,1-4.47-.9,11.52,11.52,0,0,1-6.07-6.08,11.09,11.09,0,0,1-.9-4.47,11.63,11.63,0,0,1,3.35-8.14A11.89,11.89,0,0,1,81.17,105a10.78,10.78,0,0,1,4.47-.93,10.64,10.64,0,0,1,4.41.93,12.06,12.06,0,0,1,3.63,2.48,11.87,11.87,0,0,1,2.48,3.68A11.13,11.13,0,0,1,97.08,115.62Z"/>
    </g>
  </g>
</svg>
