<svg xmlns="http://www.w3.org/2000/svg" width="320" height="320" viewBox="0 0 320 320">
  <defs>
    <style>
      .cls-1 {
        fill: #fcee21;
      }

      .cls-2 {
        fill: #603813;
      }

      .cls-3 {
        fill: #009245;
      }

      .cls-4 {
        fill: #f9ed82;
      }
    </style>
  </defs>
  <g id="items">
    <g>
      <path class="cls-1" d="M67.19,50.56s2-9,16-19,14-19,30-20,36,3,55,3S217.75,26.4,228.47,31s33.72,22.58,46.72,38.58,22,33,29,48,16,46,12,65,6,27-7,39-11,6-14,25-8,32-15,41-1,11-9,11-15-4-30-5-15,7-34,11-29,8-53-3-16-11-27-19-1,1-20-12-41-48-48-61-19-57-19-80,8-60,14-67A82.78,82.78,0,0,1,67.19,50.56Z"/>
      <path class="cls-2" d="M100.19,24.56c-4-5-7.55-14.32-9.77-13.16s-5.23,7.16-7.23,10.16,7,9,7,9Z"/>
      <path class="cls-3" d="M83.19,21.56s3-5-11,4-6,10-21,18-14,5-25,20-15,13-15,32,7,23,0,37S.86,145.53,4,160.05s5.16,23.51,13.16,33.51,16.91,16.36,26,29.18,15,32.82,18,23.82-1-9-5-26S51.74,178.37,62.47,157s12.72-33.41,13.72-53.41-5.11-24.17,4-38C107.19,24.56,83.19,21.56,83.19,21.56Z"/>
      <path class="cls-4" d="M123.19,256.56c6,8,11,17,23,21s23,7,35,7,51,2,60-4,20-13,25-18,11-2,3,5-12.25,12.64-24.63,17.32-32.47,11.41-46.42,11.55-50.95-7.87-58.95-12.87-13-8.48-16-14.24-5-12.76-4-14.76S123.19,256.56,123.19,256.56Z"/>
      <path class="cls-4" d="M80.19,132.56c-1,3-11,17-13.49,27.49s-6.51,19.51-5.51,27.51,3,13,8,21S82.9,229.94,82.9,229.94s3.71-6.73,0-13.55-7.51-4.52-10.11-15.67.6-15.89,0-22,10.11-33,10.11-33Z"/>
    </g>
  </g>
</svg>
