<svg xmlns="http://www.w3.org/2000/svg" width="1200" height="600" viewBox="0 0 1200 600">
  <defs>
    <style>
      .cls-1 {
        fill: #f15a24;
      }
    </style>
  </defs>
  <g id="Title_screens" data-name="Title screens">
    <g>
      <g>
        <path class="cls-1" d="M433.79,176l-8,84.36-160,12.53q1.14-66.3,2.57-131.85T271.92,9.2h98.8q-4.38,41.61-8.36,83.12T356.66,176q8.93.38,17.67.38H392q10.63,0,20.9-.19T433.79,176Z"/>
        <path class="cls-1" d="M560.06,89.45q-.72,11.35-1.33,22.48t-1.57,22.49l-51.26,2.66-1.21,15.23h36l-2.66,37.48L501.79,191l-1.21,17.66h51.26q-.72,13.29-1.51,26.41t-1.39,26.3l-104.22,2.42,3.87-174.34Z"/>
        <path class="cls-1" d="M712,94.28l-44.25,168.3-60,3.38L553.41,96l57.31-5.32,23.22,99.14,22.48-99.14Z"/>
        <path class="cls-1" d="M830.4,89.45q-.72,11.35-1.33,22.48t-1.57,22.49l-51.26,2.66L775,152.31h36l-2.66,37.48L772.13,191l-1.21,17.66h51.26q-.72,13.29-1.51,26.41t-1.39,26.3l-104.22,2.42,3.87-174.34Z"/>
        <path class="cls-1" d="M940.79,194.87l-5.08,53.68-101.8,8q.72-42.19,1.63-83.9t2.24-83.91h62.87q-2.79,26.48-5.32,52.89t-3.63,53.26c3.79.17,7.54.24,11.25.24h11.24c4.51,0,8.95,0,13.3-.12S936.27,194.87,940.79,194.87Z"/>
        <path class="cls-1" d="M208.06,335.53l-10.64,80.18a67.86,67.86,0,0,0-11-2.09,107,107,0,0,0-11-.57,95.43,95.43,0,0,0-26.79,3.7,66.62,66.62,0,0,0-22.51,11.31,55.54,55.54,0,0,0-15.58,19q-5.79,11.4-5.79,26.79a42.76,42.76,0,0,0,3.13,17.1,31.73,31.73,0,0,0,8.84,12,37,37,0,0,0,13.48,7,60.77,60.77,0,0,0,17.1,2.28,74,74,0,0,0,14.63-1.52,123.46,123.46,0,0,0,15-4,139.7,139.7,0,0,0,14.44-5.7q7-3.22,12.92-6.65l-7.6,89.3a119.93,119.93,0,0,1-16,6.75q-8.66,2.94-17.77,5.13a168.9,168.9,0,0,1-18.24,3.32A141,141,0,0,1,127.12,600,112.6,112.6,0,0,1,21.58,529.8a117.51,117.51,0,0,1-8.83-45.69,197.86,197.86,0,0,1,9.31-61.28,149.7,149.7,0,0,1,27.36-50.44,128.38,128.38,0,0,1,44.74-34.2q26.7-12.54,61.46-12.54a179.7,179.7,0,0,1,26.89,2.09A89.11,89.11,0,0,1,208.06,335.53Z"/>
        <path class="cls-1" d="M365.24,496.79A87.74,87.74,0,0,1,362.7,518a83.11,83.11,0,0,1-7.32,19.17,79.5,79.5,0,0,1-11.6,16.38,74.17,74.17,0,0,1-15.36,12.76,74.53,74.53,0,0,1-39.84,11.24,76.13,76.13,0,0,1-20.73-2.78,78.34,78.34,0,0,1-18.44-7.8A74.76,74.76,0,0,1,222,539.16a80.49,80.49,0,0,1-7.62-18.56,77.86,77.86,0,0,1-2.72-20.67,84.57,84.57,0,0,1,9.85-39.66,82.35,82.35,0,0,1,11.55-16.44,76.07,76.07,0,0,1,15.17-12.94,73.2,73.2,0,0,1,18.2-8.46,69.87,69.87,0,0,1,20.67-3,90,90,0,0,1,32,5.44,67.65,67.65,0,0,1,40.5,40A86.84,86.84,0,0,1,365.24,496.79Zm-53.69,3.14a34,34,0,0,0-1.51-10.1,27.66,27.66,0,0,0-4.41-8.7,22.55,22.55,0,0,0-7.19-6.17,20.19,20.19,0,0,0-9.86-2.35,24,24,0,0,0-10.15,2.05,23.2,23.2,0,0,0-7.68,5.62,24.62,24.62,0,0,0-4.9,8.35,29.89,29.89,0,0,0-1.69,10.09,36.74,36.74,0,0,0,1.45,10.16,30.23,30.23,0,0,0,4.35,9.18,23.09,23.09,0,0,0,7.2,6.65,19.13,19.13,0,0,0,10,2.54A22.8,22.8,0,0,0,297.35,525a23.11,23.11,0,0,0,7.68-6,27.84,27.84,0,0,0,4.83-8.76A31.57,31.57,0,0,0,311.55,499.93Z"/>
        <path class="cls-1" d="M560.62,405.87,549.49,583.35l-55.13,2.42.48-93.58-24.9,75.45H448.66l-19.1-67.47-.25,78.35-55.85,1.69,2.42-167.09L438,410.7l24.66,80,32.89-84.87Z"/>
        <path class="cls-1" d="M710.29,465.83a57.58,57.58,0,0,1-3.5,20.8,50.64,50.64,0,0,1-9.61,15.84A58,58,0,0,1,682.85,514a88.88,88.88,0,0,1-17.59,7.68A116.86,116.86,0,0,1,645.85,526a157.25,157.25,0,0,1-19.7,1.52v56.34H569.8q0-27.69.13-55.14t.36-55.37q.24-14.74.12-29.5t.6-29.74a225,225,0,0,1,31-6.89,217.43,217.43,0,0,1,31.92-2.3,115.74,115.74,0,0,1,18.62,1.51,90.14,90.14,0,0,1,17.84,4.78,78.63,78.63,0,0,1,15.83,8.16,53.4,53.4,0,0,1,21,27.08A57.35,57.35,0,0,1,710.29,465.83ZM656.61,470q0-7.86-4.77-12.28t-12.4-4.41a34.34,34.34,0,0,0-5.25.42q-2.73.44-5.14,1L627.6,490a23.08,23.08,0,0,0,3.26.24h3.27a24.9,24.9,0,0,0,8.4-1.45,22.44,22.44,0,0,0,7.19-4.18,20.81,20.81,0,0,0,5-6.4A18,18,0,0,0,656.61,470Z"/>
        <path class="cls-1" d="M823.22,513.23l-5.08,53.68-101.8,8q.72-42.2,1.63-83.91t2.24-83.9h62.87q-2.79,26.48-5.32,52.89t-3.63,53.26q5.68.24,11.25.24h11.24q6.76,0,13.3-.12T823.22,513.23Z"/>
        <path class="cls-1" d="M943.4,407.8q-.74,11.37-1.33,22.49t-1.58,22.49l-51.26,2.66L888,470.67h36l-2.66,37.48-36.27,1.21L883.91,527h51.26q-.72,13.31-1.51,26.42t-1.39,26.3l-104.22,2.41,3.87-174.34Z"/>
        <path class="cls-1" d="M1075.3,409.25l-1.21,51.26-36,1.46-9.19,114.61-51,2.66.25-114.61-36,1.93,1.45-57.07Z"/>
        <path class="cls-1" d="M1196.45,407.8q-.73,11.37-1.33,22.49t-1.57,22.49l-51.27,2.66-1.21,15.23h36l-2.66,37.48-36.27,1.21L1137,527h51.27q-.74,13.31-1.52,26.42t-1.39,26.3l-104.22,2.41L1085,407.8Z"/>
      </g>
      <g>
        <path d="M424.6,166.81l-8,84.36-160,12.54q1.14-66.3,2.56-131.86T262.73,0h98.79q-4.36,41.61-8.36,83.12t-5.7,83.69q8.93.39,17.67.38H382.8q10.63,0,20.9-.19T424.6,166.81Z"/>
        <path d="M550.87,80.25q-.74,11.37-1.33,22.49T548,125.22l-51.26,2.66-1.21,15.24h36l-2.66,37.48-36.27,1.21-1.21,17.65h51.26q-.72,13.31-1.51,26.42t-1.39,26.29l-104.22,2.42,3.87-174.34Z"/>
        <path d="M702.84,85.08l-44.25,168.3-60,3.39-54.4-170,57.3-5.32,23.22,99.14,22.49-99.14Z"/>
        <path d="M821.21,80.25q-.74,11.37-1.33,22.49t-1.58,22.48L767,127.88l-1.21,15.24h36L799.2,180.6l-36.27,1.21-1.21,17.65H813q-.72,13.31-1.51,26.42t-1.39,26.29l-104.22,2.42,3.87-174.34Z"/>
        <path d="M931.59,185.68l-5.08,53.68-101.8,8q.74-42.19,1.63-83.91t2.24-83.91h62.87q-2.78,26.48-5.32,52.9t-3.63,53.26q5.68.24,11.25.24H905q6.78,0,13.3-.12T931.59,185.68Z"/>
        <path d="M191.08,326.34l-10.64,80.17c-3.67-1,.44-1.71-3.24-2.09a106.83,106.83,0,0,0-11-.57,95.33,95.33,0,0,0-26.79,3.71,66.74,66.74,0,0,0-22.52,11.3,55.77,55.77,0,0,0-15.58,19q-5.79,11.4-5.79,26.79a42.69,42.69,0,0,0,3.13,17.1,31.84,31.84,0,0,0,8.84,12,36.93,36.93,0,0,0,13.49,7,60.67,60.67,0,0,0,17.1,2.28,74.92,74.92,0,0,0,14.63-1.52,124,124,0,0,0,15-4,143.24,143.24,0,0,0,14.43-5.7q7-3.22,12.92-6.65l-7.6,89.29a118.63,118.63,0,0,1-16.05,6.75q-8.64,2.94-17.76,5.13a166.49,166.49,0,0,1-18.24,3.32,141.1,141.1,0,0,1-17.48,1.14A112.56,112.56,0,0,1,12.39,520.6a117.48,117.48,0,0,1-8.84-45.69,198.09,198.09,0,0,1,9.31-61.27,150.09,150.09,0,0,1,27.36-50.45A128.45,128.45,0,0,1,85,329q26.7-12.54,61.47-12.54a178.16,178.16,0,0,1,26.88,2.09C182.49,319.94,183.23,322.54,191.08,326.34Z"/>
        <path d="M356,487.59a87.82,87.82,0,0,1-2.54,21.22A83,83,0,0,1,346.19,528a79.39,79.39,0,0,1-11.61,16.38,73.91,73.91,0,0,1-15.36,12.76,74.46,74.46,0,0,1-39.83,11.24,75.77,75.77,0,0,1-20.74-2.78,78.52,78.52,0,0,1-18.44-7.8,73.75,73.75,0,0,1-15.53-12.09A74.76,74.76,0,0,1,212.83,530a81.12,81.12,0,0,1-7.62-18.56,77.94,77.94,0,0,1-2.72-20.68A84.3,84.3,0,0,1,205,470.12a83,83,0,0,1,7.32-19,82.08,82.08,0,0,1,11.54-16.45,75.8,75.8,0,0,1,15.18-12.93,72.81,72.81,0,0,1,18.19-8.47,69.89,69.89,0,0,1,20.68-3,90,90,0,0,1,32,5.44,67.77,67.77,0,0,1,40.51,40A86.84,86.84,0,0,1,356,487.59Zm-53.68,3.14a34.25,34.25,0,0,0-1.51-10.09,27.63,27.63,0,0,0-4.42-8.71,22.52,22.52,0,0,0-7.19-6.16,20,20,0,0,0-9.85-2.36,24.07,24.07,0,0,0-10.16,2,23.3,23.3,0,0,0-7.68,5.63,24.46,24.46,0,0,0-4.89,8.34,29.94,29.94,0,0,0-1.7,10.09,37.12,37.12,0,0,0,1.45,10.16,30.18,30.18,0,0,0,4.36,9.19,23.18,23.18,0,0,0,7.19,6.65,19.26,19.26,0,0,0,10,2.54,22.79,22.79,0,0,0,10.21-2.24,23.11,23.11,0,0,0,7.68-6.05,27.75,27.75,0,0,0,4.84-8.76A31.79,31.79,0,0,0,302.36,490.73Z"/>
        <path d="M551.42,396.67,540.3,574.16l-55.14,2.41.49-93.58-24.91,75.45H439.46L420.36,491l-.24,78.35L364.26,571l2.42-167.09,62.14-2.41,24.67,80,32.88-84.87Z"/>
        <path d="M701.1,456.64a57.27,57.27,0,0,1-3.51,20.79A50.64,50.64,0,0,1,688,493.27a58,58,0,0,1-14.33,11.49,89.18,89.18,0,0,1-17.59,7.67,117.78,117.78,0,0,1-19.4,4.36A159.28,159.28,0,0,1,617,518.3v56.34H560.61q0-27.69.12-55.13t.36-55.38q.24-14.75.12-29.5t.61-29.74A224.34,224.34,0,0,1,592.77,398a217.23,217.23,0,0,1,31.92-2.3,117,117,0,0,1,18.62,1.51A90,90,0,0,1,661.14,402,80,80,0,0,1,677,410.15a53.56,53.56,0,0,1,21,27.08A57.4,57.4,0,0,1,701.1,456.64Zm-53.68,4.11q0-7.86-4.78-12.27t-12.39-4.42a34.51,34.51,0,0,0-5.26.43c-1.81.28-3.53.62-5.14,1l-1.45,35.31a23.3,23.3,0,0,0,3.26.24h3.27a24.65,24.65,0,0,0,8.4-1.45,22.49,22.49,0,0,0,7.19-4.17,21,21,0,0,0,5-6.41A18,18,0,0,0,647.42,460.75Z"/>
        <path d="M814,504l-5.08,53.68-101.8,8q.74-42.2,1.63-83.9T711,397.88h62.87q-2.77,26.47-5.32,52.89T764.93,504q5.69.24,11.25.24h11.24q6.78,0,13.3-.12T814,504Z"/>
        <path d="M934.2,398.6q-.72,11.37-1.33,22.49t-1.57,22.49L880,446.24l-1.2,15.23h36L912.19,499l-36.27,1.21-1.21,17.65H926q-.74,13.31-1.51,26.42t-1.39,26.3L818.86,573l3.87-174.35Z"/>
        <path d="M1066.1,400.05l-1.2,51.27-36,1.45-9.19,114.62-51,2.65.24-114.61-36,1.93,1.45-57.06Z"/>
        <path d="M1187.25,398.6q-.72,11.37-1.33,22.49t-1.57,22.49l-51.26,2.66-1.21,15.23h36L1165.25,499,1129,500.16l-1.2,17.65H1179q-.73,13.31-1.51,26.42t-1.39,26.3L1071.91,573l3.87-174.35Z"/>
      </g>
    </g>
  </g>
</svg>
