<svg id="Layer_2" data-name="Layer 2" xmlns="http://www.w3.org/2000/svg" width="318.28mm" height="181.99mm" viewBox="0 0 902.22 515.88">
  <defs>
    <style>
      .cls-1 {
        fill: #c69696;
      }
    </style>
  </defs>
  <path class="cls-1" d="M43.77,211.65c-2.54-25.86.44-51.89-2-77.76A121.49,121.49,0,0,0,34,99.58c-3.78-9.49-8.69-19.21-9.91-29.48L1.69,76.16c12,18.59,29.57,35.09,50.54,42.89,22.36,8.32,44-1.34,61.29-15.79C128,91.09,146,72.5,139.89,51.59a22,22,0,0,0-25.2-15.65c-10.54,1.88-16.87,11.48-19.92,21-3.13,9.81-2.43,20.34-2.12,30.48.33,10.92.95,21.84,1.77,32.74,1.75,23.16,4.39,46.25,7.44,69.28,6.32,47.77,14.35,95.3,21.14,143,3,21.39,5.87,42.85,7.74,64.38.93,10.63,1.43,21.28,1.33,32-.1,10.08.13,20.24-2.68,29.79a56.06,56.06,0,0,1-14.24,23.73c-3,2.94-6.47,6.1-10.05,7.68a22.39,22.39,0,0,1-10.68,1.68c-9.71-1.11-18.47-7.31-25.36-13.94A82.11,82.11,0,0,1,63,471.07c1.9,2.29-1-1.37-1.42-2q-1.52-2.27-2.85-4.64c-.74-1.31-1.39-2.66-2.06-4-.27-.54-.5-1.09-.75-1.63,1.19,2.54.26.66,0,0a87.73,87.73,0,0,1-2.81-9c-.35-1.47-.66-2.94-.93-4.42-.11-.59-.19-1.2-.31-1.79-.62-3,.19,2.66-.06-.43s-.54-6.15-.58-9.26.06-6.36.3-9.53c.12-1.62.32-3.23.46-4.85.21-2.28,0-.17-.05.26.16-1.15.33-2.3.52-3.45a167.67,167.67,0,0,1,4.8-20.51c2.06-6.88,4.48-13.65,7.18-20.3.34-.85.69-1.7,1-2.54.82-2-1.14,2.55.3-.68.75-1.69,1.48-3.39,2.25-5.07q2.31-5.07,4.8-10.06a414.76,414.76,0,0,1,22.62-39.49q11.19-17.4,23.72-33.88l2.53-3.32c-1.88,2.46,1-1.21,1.44-1.82q2.88-3.66,5.83-7.28,4.68-5.75,9.55-11.33c5.56-6.35,11.62-12.09,17.42-18.2a157.19,157.19,0,0,0,34.84-59,149.65,149.65,0,0,0,6.65-33.13l-23.57,3.19c.13.51.2,1.05.35,1.56.64,2.1-.08-3.16-.1-.85,0,1.22.19,2.47.22,3.7.1,3.21,0,6.42-.16,9.63-.33,7.53-.84,15.05-.88,22.6-.11,17.24,1.83,36.34,12,50.88a54.36,54.36,0,0,0,21.94,18.69c13.17,6,26.47,2.21,37.36-6.54,15.36-12.33,20.85-31.11,24.79-49.58,4.2-19.74,9.21-44.72.09-63.79-5.85-12.22-26.21-3.63-21.94,9.24,6.41,19.29,9.67,39.51,16.47,58.66,6.22,17.51,16.25,33.75,34.91,39.65,16.53,5.22,36.55,1.81,48-11.86,11.18-13.31,14.8-30.71,17-47.5,2.77-20.64,3-41.51,5.72-62.16.75-5.83-5.15-11.16-10.41-11.78a12.06,12.06,0,0,0-13.16,8.59c-5.07,16.67,3.85,32.12,15.56,43.44a169,169,0,0,0,18,14.57c4.11,3,10.13,7.37,12.86,9.52a172.69,172.69,0,0,1,14.61,12.69c4.9,4.84,7.52,7.65,10.69,13.27.39.69,1.69,3.34,1.4,2.65s.68,2.08.85,2.69.32,1.37.46,2.06c0-.17-.16-2-.1-.6.05.93-.45,4.93.11,2.49a16.25,16.25,0,0,1-6.83,9.76c-.26.16-2.43,1.21-1.12.66,1.15-.49-.49.12-.61.16-.68.18-1.35.35-2,.47.54-.09,2.33-.09.18-.16s1.52.68-.63,0l-1.8-.52c1.45.42,1.18.6,0-.17-2.34-1.47.93.58-.76-.64-.33-.25-1.73-1.85.19.31-.2-.22-.44-1-.69-1.17-1.08-.55.61,1.59.15.33a4.72,4.72,0,0,1-.36-1.36c-.06,3.42.39-2.68-.08.42.09-.58,1.25-4.07.58-2.56a22.73,22.73,0,0,1,1.91-3.3c2-2.7,5.34-5.78,7.94-8.36,6-5.93,12.25-11.53,18.52-17.13,11.72-10.46,23.52-21,32.54-33.93,9.6-13.79,14-31.31,16.24-47.74,2.65-19.18,2-38.37-.29-57.55-1.9-16-4.68-28.82-5.26-44.37-.58-15.38-24.39-15.5-24,0,.92,36.26,2.55,72.5,7.51,108.46a423.09,423.09,0,0,0,10.06,51c3.36,12.64,6.64,25.51,12.41,37.32,6,12.34,16.27,22.21,30.42,23.52,11,1,20.68-6.55,27.94-13.93a104.9,104.9,0,0,0,23-36.83c6-16.07,6.31-34.13,7.13-51.09C574.85,93.7,571.5,51,564.42,8.78l-23.15,6.38c.38,1.5.68,3,1,4.54.18,1,.34,2,.49,3s1,5.08.13.74c1,5.15,1.24,10.6,1.75,15.82,1.32,13.52,2.44,27.06,3.74,40.58,3,31.34,6.38,63.06,14.2,93.63,5.66,22.11,15,52.58,39.31,60.62A29.18,29.18,0,0,0,634,224.8c9-11,12.73-25.65,15-39.44a264.58,264.58,0,0,0,3-54.52c-.6-13.18-1.19-27.95-7.09-40-5.09-10.43-23.46-5.71-22.36,6,2.86,30.65,3.77,62.39,16.23,91,6.45,14.83,17.4,27.25,33.33,32,25.1,7.46,40-22.58,46.28-41.64,8.73-26.33,5.71-54.68,8.72-81.86.65-5.85-5.06-11.15-10.41-11.78-5.59-.67-11.9,2.66-13.16,8.59-4.28,20.11-3.66,41.35-2.88,61.78.8,20.63,2.43,41.24,4.51,61.78,1.7,16.8,4.53,33.33,6.93,50,5.16,36,8.39,72.34,10,108.69q1.2,27.84,1,55.7c-.05,9-.18,18-.5,27-.24,6.91-.57,13.69-2.89,20.26-3.92,11.08-13,14.1-23.49,13.37a30.73,30.73,0,0,1-14.61-5.56A42.67,42.67,0,0,1,670,473c-15.34-26-12.13-60.61-3.28-88.42,9.82-30.85,28.6-58.1,49.18-82.75,21.34-25.55,44-50.75,69.31-72.51,24-20.63,51.79-37.62,82.89-44.63a127.2,127.2,0,0,1,22.15-2.95c6.48-.29,12-5.3,12-12,0-6.27-5.49-12.29-12-12-73.88,3.36-129.17,56.95-175.6,109s-93.82,119.88-75.3,193.71c7.68,30.61,32.09,59.5,66.45,55,17-2.2,30.09-12.49,36.28-28.44,6.31-16.26,4.88-35.74,5-52.86A1129.32,1129.32,0,0,0,742.15,318q-2.8-29.82-7.15-59.48-1-6.77-2-13.53-.53-3.37-1.08-6.75c-.21-1.28-.33-2.6-.64-3.86-.56-2.26-.11,0-.06.25-.19-1.15-.28-2.33-.41-3.49q-3-25.9-4.75-51.95c-1.55-22.83-2.85-46.05-.83-68.89.11-1.27.24-2.53.37-3.8.05-.45.12-.91.16-1.37.19-1.74-.34,2.24-.07.55.32-2,.65-4,1.08-6.06l-23.57-3.19c-2.28,20.56-.6,41.64-4.43,62a100.69,100.69,0,0,1-9.34,27c-1.87,3.71-3.31,6.2-5.67,8.51-1.13,1.12-2.49,1.79-3.65,2.79.58-.51-.43.22-.82.35,1.74-.56-1.06-.61.51,0a90.58,90.58,0,0,1-8.37-3.91c-.49-.25-1.81-1.41.27.29-.46-.38-.95-.76-1.38-1.18-1.11-1.08-2.2-2.15-3.24-3.3,0,0-1.93-2.47-.86-1,.93,1.25-.29-.45-.49-.76-.82-1.27-1.64-2.52-2.39-3.84s-1.34-2.43-1.95-3.67c-.32-.64-.6-1.29-.92-1.93-1.23-2.48.42,1.26-.51-1.14a141.17,141.17,0,0,1-6-19.93q-1.2-5.3-2.12-10.63c-.27-1.59-.54-3.17-.78-4.76-.13-.79-.24-1.58-.36-2.37-.06-.43-.51-3.65-.23-1.54-1.8-13.46-2.55-27-3.81-40.53l-22.36,6.06c1.08,2.22-1-3.33-.17-.34.24.91.57,1.8.81,2.71a68.45,68.45,0,0,1,1.44,6.83c.21,1.21.37,2.43.56,3.65-.61-3.82.06.7.16,1.59.35,3.23.61,6.46.81,9.7a265.36,265.36,0,0,1-.92,43.94c-.18,1.71-.38,3.43-.6,5.14.37-2.85-.33,2.09-.45,2.84-.57,3.52-1.25,7-2.07,10.5-.7,2.93-1.49,5.83-2.44,8.68-.49,1.46-1,2.9-1.58,4.33-.62,1.64,1.34-2.64.12-.29-.35.68-.65,1.39-1,2.07-.6,1.19-1.25,2.35-2,3.48-.31.48-.67.94-1,1.43-1.18,2,2-1.83.27-.34a13.73,13.73,0,0,0-2.16,2.22c-.9,1.3.72-.55,1.06-.75-.63.36-1.32.81-1.92,1.23-2.31,1.64,2.54-.58-.21.05-2.92.67,2.91.16-.12.06-.87,0-1.87-.12-2.73-.05-2.07.18,3,.84,1.08.15-.48-.17-1-.21-1.54-.35a14.54,14.54,0,0,1-2.49-.82c.08-.62,3.12,1.71.94.32-.3-.19-.64-.34-.94-.51a18.45,18.45,0,0,0-2.52-1.65c-1.22-.41,2.27,2.13.88.65-.46-.49-1-.9-1.5-1.36-.8-.77-1.53-1.6-2.28-2.4-.29-.3-.52-.66-.81-.95-1.65-1.64,1.56,2.42.31.41s-2.82-4.12-4.06-6.32-2.33-4.39-3.37-6.65c-.32-.71-.63-1.44-1-2.15.12.27,1,2.61.28.65-.59-1.55-1.22-3.08-1.79-4.63-2.2-6-4-12.22-5.63-18.44a403.21,403.21,0,0,1-8.17-42.19l-.75-5.22c0-.38-.52-3.88-.14-1-.11-.88-.23-1.75-.34-2.63q-.75-5.76-1.41-11.53c-.86-7.37-1.63-14.75-2.36-22.13-1.42-14.52-2.61-29.07-4-43.59-1-10.13-1.71-20.57-4.17-30.48C562.85,2.49,555.79-1.28,549.65.4c-6.77,1.86-9.45,8.35-8.38,14.76A572.28,572.28,0,0,1,549.38,116c-.18,16.51-.79,33.69-2.83,49.83-1.52,12.11-7,23.56-14.13,33.64a69.65,69.65,0,0,1-9.67,10.75c-.79.71-1.61,1.41-2.44,2.08,1.72-1.38-.41.23-1.1.68s-1.48.87-2.22,1.3c-2.35,1.39,1.43-.44-.22.12-2.34.79.45.07.49.06a5,5,0,0,1-1.45,0c.21,0,1.79.36.41,0-.5-.11-3.17-.92-2.15-.51,1.24.5-.32-.18-.48-.28-.58-.38-1.2-.72-1.79-1.1,1.82,1.19-.76-.74-1.25-1.24s-2.07-2.37-1.6-1.75-1.05-1.64-1.36-2.12c-.85-1.38-1.62-2.79-2.34-4.24a33.07,33.07,0,0,1-2.27-5.28c-1.06-2.85-2-5.74-2.89-8.65-1.65-5.46-3.14-11-4.64-16.48a412.86,412.86,0,0,1-9.61-46.45c-5.4-35.81-6.65-72.2-7.56-108.36h-24c.53,14.1,3.34,28.78,5,42.06,2.18,17.63,3.28,35.44,1.42,53.16-1.61,15.3-6.19,32.71-15.34,44.44-10.24,13.13-23.75,23.63-36,34.8-11.82,10.8-27.87,23.63-27,41.35.71,15,13.91,26.43,28.77,25.89,15.5-.56,29.76-13.95,32.65-29,2.94-15.31-4.95-29-14.71-40.15-10.35-11.81-23.38-21.11-36-30.29-6.61-4.79-13.08-9.82-18.59-16.09a32.85,32.85,0,0,1-5.14-8c.12.33-.88-4.68-.76-3-.2-2.75-.13-2.13.68-4.78l-23.57-3.19c-2.14,16.43-2.68,33-4.25,49.48-.18,1.86-.37,3.73-.58,5.59-.08.66-.67,5.47-.41,3.5-.55,4.09-1.24,8.16-2.1,12.19a103.26,103.26,0,0,1-2.66,10.09q-.8,2.46-1.76,4.87c1-2.42-.84,1.68-1.27,2.49-.74,1.38-1.57,2.69-2.41,4-.32.51-.7,1-1.06,1.49,1.82-2.43,0-.08-.41.31-.94.92-1.85,1.85-2.85,2.71-1.25,1.08,2.43-1.23,0-.06-.75.36-1.52.92-2.25,1.34-.15.08-2.77,1.21-1,.51s-1,.28-1.13.31l-1.81.49c-.09,0-3.16.58-1.28.3S317,225,317,225c-.7,0-1.41.05-2.12.05-1.28,0-2.54-.1-3.81-.14-2.52-.07,1,.39-1.52-.18-1.63-.36-3.21-.78-4.81-1.24-.61-.17-2.72-1.15-.55-.13-.62-.29-1.23-.59-1.83-.91s-4.56-3.09-2.56-1.47a51.16,51.16,0,0,1-4-3.81c-.42-.42-1.85-2.21-.4-.33-.42-.55-.82-1.12-1.21-1.69-1-1.47-1.93-3-2.78-4.56a48.7,48.7,0,0,1-3.91-8.67c-7.13-19.46-10.35-40.14-16.88-59.8l-21.94,9.25c1.09,2.28-.44-2.62,0,0a16.47,16.47,0,0,0,.47,1.62c.21.79.91,5.33.57,2.32a82.46,82.46,0,0,1,.4,12.07c-.14,4.12-.5,8.23-1,12.33,0,.22-.28,2.33-.06.62-.16,1.28-.36,2.55-.56,3.82-.33,2.12-.69,4.22-1.08,6.33a210.42,210.42,0,0,1-5.71,23.62c-.82,2.68-1.77,5.3-2.77,7.92,1.47-3.84-.89,1.52-1.57,2.66a31.9,31.9,0,0,1-3.83,5.35c-2.89,3.23-5.65,5.84-9.6,7.53,1.47-.63-2.5.68-2.23.62-.26.06-2.29.22-.71.11a7.39,7.39,0,0,1-3.88-.9c-4.1-2.08-5.25-2.92-7.6-5.15a43.17,43.17,0,0,1-3.56-3.85c.32.39,1.2,1.83,0,0-.65-1-1.33-2-1.94-3-.78-1.34-1.45-2.71-2.13-4.1-1.46-3,.66,2.23-.37-.94-.21-.66-.47-1.3-.68-2a83.36,83.36,0,0,1-2.68-11.23c-.62-3.35.16,1.58-.08-.5-.11-.88-.21-1.77-.29-2.66-.17-1.77-.29-3.55-.38-5.33-.18-3.7-.21-7.41-.15-11.12.21-13.29,3.06-27.85-.31-40.92a12,12,0,0,0-13.16-8.6c-6.23.94-9.84,5.67-10.41,11.79-1.9,20.52-9.63,40.56-20.85,57.84-7,10.81-16.14,19.29-24.83,28.62-15.14,16.26-28.78,34.06-41.51,52.23C69.11,312.8,54,338.57,42.51,366.08c-10.75,25.77-18.15,54-14.09,82.08a79.14,79.14,0,0,0,13.44,34.5C53,498.28,70,512.17,89.47,515c24,3.53,43.86-12.48,55.42-32.3,11.06-19,11.49-40.53,11.16-61.91s-3-42.85-5.75-64.1c-2.91-22.78-6.27-45.51-9.73-68.22-6.92-45.33-14.31-90.61-19.19-136.21C119,130.21,117.22,108,116.6,85.83c-.12-4.61-.33-9.26-.2-13.87a35.18,35.18,0,0,1,.25-3.7c-.07.59-.34,1.82.16-.59.21-1,.45-2.09.74-3.11.13-.46,1.48-4,.72-2.39.33-.71.77-1.37,1.11-2.08,1.48-3.08.08-.08.07-.28l.73-.78c-1.14.74-1.15.75,0,0-.34.43-2.34.45-.09.16-.16,0-3.12-.07-1.61.26s-1.23-.84-1.46-1c1.57,1.09.15.35-.15-.27.61,1.18.58,1.11-.1-.24l.24,1-.12-1.17c.06.72.08,1.43.07,2.14,0,.39-.16,2.38.12.14a24.07,24.07,0,0,1-1.49,5.61c.67-1.73,0,0-.2.35a33.92,33.92,0,0,1-1.76,3c.35-.51,1.58-1.84-.41.49-1,1.15-2,2.31-3,3.45-6.73,7.55-14.13,14.71-22.91,19.85-7.68,4.51-16,6.62-23.21,4.85C55.58,95.53,47.8,90.69,41,84.87A96.58,96.58,0,0,1,22.41,64.05,12.34,12.34,0,0,0,8.86,58.53C4.2,59.81-.56,65,.05,70.1c2.65,22.33,15.59,41.33,17.71,63.79,2.45,25.87-.53,51.9,2,77.76.64,6.45,5.06,12,12,12,6,0,12.64-5.51,12-12Z"/>
  <path class="cls-1" d="M379.35,109.72c41.76,17.8,86.9,1.06,128.18-10.08,43.72-11.81,87.75-23.51,132.72-29.53a435.26,435.26,0,0,1,74.64-3.74c6.48.25,12-5.69,12-12a12.19,12.19,0,0,0-12-12c-44.63-1.74-89.17,4.47-132.71,13.86-43.07,9.29-85.07,22.63-127.93,32.67-20.08,4.7-43.1,8.49-62.78.09-6-2.53-12.86-1.78-16.42,4.31-2.95,5-1.69,13.86,4.3,16.42Z"/>
</svg>
