<svg xmlns="http://www.w3.org/2000/svg" width="190" height="190" viewBox="0 0 190 190">
  <defs>
    <style>
      .cls-1 {
        fill: #666;
      }

      .cls-2 {
        fill: #e6e6e6;
      }
    </style>
  </defs>
  <g id="Backgrounds">
    <circle class="cls-1" cx="92.72" cy="87.87" r="82.5"/>
    <g>
      <path class="cls-2" d="M80.85,35.91,76.5,38.4a12.17,12.17,0,0,1-12.79,0l-4.34-2.49c-.52,0-1,.88-1.16,2.14a.84.84,0,0,0-.1.39V75.65l0,.1a2.33,2.33,0,0,0-1.52.69l-5.33,5.32L46,76.44a2.4,2.4,0,0,0-3.4,3.4l5.32,5.32-5.32,5.32A2.41,2.41,0,0,0,46,93.89l5.32-5.32,5.33,5.32A2.41,2.41,0,1,0,60,90.48l-5.32-5.32L60,79.84a2.4,2.4,0,0,0,0-3.4,2.52,2.52,0,0,0-.25-.21V44.06l3.92,2.25a12.17,12.17,0,0,0,12.79,0l4.35-2.49c.69,0,1.26-1.57,1.26-3.51v-.88C82.11,37.49,81.54,35.91,80.85,35.91Z"/>
      <path class="cls-2" d="M146.85,57.91,142.5,60.4a12.17,12.17,0,0,1-12.79,0l-4.34-2.49c-.52,0-1,.88-1.16,2.14a.84.84,0,0,0-.1.39V97.65l0,.1a2.33,2.33,0,0,0-1.52.69l-5.33,5.32L112,98.44a2.4,2.4,0,1,0-3.4,3.4l5.32,5.32-5.32,5.32a2.41,2.41,0,1,0,3.4,3.41l5.32-5.32,5.33,5.32a2.41,2.41,0,1,0,3.4-3.41l-5.32-5.32,5.32-5.32a2.4,2.4,0,0,0,0-3.4,2.52,2.52,0,0,0-.25-.21V66.06l3.92,2.25a12.17,12.17,0,0,0,12.79,0l4.35-2.49c.69,0,1.26-1.57,1.26-3.51v-.88C148.11,59.49,147.54,57.91,146.85,57.91Z"/>
      <path class="cls-2" d="M99.85,78.91,95.5,81.4a12.17,12.17,0,0,1-12.79,0l-4.34-2.49c-.52,0-1,.88-1.16,2.14a.84.84,0,0,0-.1.39v37.21l0,.1a2.33,2.33,0,0,0-1.52.69l-5.33,5.32L65,119.44a2.4,2.4,0,0,0-3.4,3.4l5.32,5.32-5.32,5.32a2.41,2.41,0,1,0,3.4,3.41l5.32-5.32,5.33,5.32a2.41,2.41,0,1,0,3.4-3.41l-5.32-5.32L79,122.84a2.4,2.4,0,0,0,0-3.4,2.52,2.52,0,0,0-.25-.21V87.06l3.92,2.25a12.17,12.17,0,0,0,12.79,0l4.35-2.49c.69,0,1.26-1.57,1.26-3.51v-.88C101.11,80.49,100.54,78.91,99.85,78.91Z"/>
    </g>
  </g>
</svg>
