<svg xmlns="http://www.w3.org/2000/svg" width="190" height="190" viewBox="0 0 190 190">
  <defs>
    <style>
      .cls-1 {
        fill: #666;
      }

      .cls-2 {
        fill: #e6e6e6;
      }
    </style>
  </defs>
  <g id="Backgrounds">
    <g>
      <circle class="cls-1" cx="92.72" cy="87.87" r="82.5"/>
      <g>
        <path class="cls-2" d="M80.61,35.92l-4.35,2.49a12.22,12.22,0,0,1-12.79,0l-4.34-2.49c-.52,0-1,.88-1.16,2.13a.87.87,0,0,0-.1.39V75.9c-1.94-3.78-5.36-6.3-9.27-6.3-6,0-10.94,6-10.94,13.48s4.9,13.47,10.94,13.47c5.75,0,10.47-5.46,10.91-12.39a.67.67,0,0,0,0-.24v-.84h0v-39l3.92,2.25a12.22,12.22,0,0,0,12.79,0l4.35-2.49c.69,0,1.26-1.58,1.26-3.52v-.88C81.87,37.49,81.3,35.92,80.61,35.92Z"/>
        <path class="cls-2" d="M99.7,79.18l-4.34,2.49a12.17,12.17,0,0,1-12.79,0l-4.34-2.49c-.52,0-1,.88-1.16,2.14a.84.84,0,0,0-.1.39v37.45c-1.94-3.78-5.37-6.29-9.27-6.29-6,0-10.94,6-10.94,13.47s4.9,13.48,10.94,13.48c5.75,0,10.47-5.46,10.91-12.4a.61.61,0,0,0,0-.24v-.84h0v-39l3.92,2.25a12.17,12.17,0,0,0,12.79,0l4.34-2.49c.7,0,1.27-1.57,1.27-3.51V82.7C101,80.76,100.4,79.18,99.7,79.18Z"/>
        <path class="cls-2" d="M146.52,58.19l-4.34,2.49a12.22,12.22,0,0,1-12.79,0L125,58.19c-.52,0-1,.88-1.16,2.13a.88.88,0,0,0-.1.4V98.17c-1.94-3.78-5.36-6.3-9.26-6.3-6,0-11,6-11,13.48s4.9,13.47,11,13.47c5.75,0,10.46-5.46,10.91-12.39a1,1,0,0,0,0-.24v-.84h0v-39l3.93,2.25a12.22,12.22,0,0,0,12.79,0l4.34-2.49c.7,0,1.26-1.57,1.26-3.52V61.7C147.78,59.76,147.22,58.19,146.52,58.19Z"/>
      </g>
    </g>
  </g>
</svg>
