<svg xmlns="http://www.w3.org/2000/svg" width="1920" height="1080" viewBox="0 0 1920 1080">
  <defs>
    <style>
      .cls-1 {
        fill: #020207;
      }

      .cls-2 {
        fill: #080816;
      }

      .cls-3 {
        fill: #0d0d21;
      }

      .cls-4 {
        fill: #14142d;
      }

      .cls-5 {
        fill: #1a1a35;
      }

      .cls-6 {
        fill: #222242;
      }

      .cls-7 {
        fill: #292951;
      }

      .cls-8 {
        fill: #bfbfb0;
        opacity: 0.36;
      }

      .cls-9 {
        fill: #f5ffae;
      }

      .cls-10 {
        fill: #333;
      }

      .cls-11 {
        stroke: #000;
        stroke-miterlimit: 10;
      }

      .cls-12 {
        fill: #fffdcf;
      }

      .cls-13 {
        fill: none;
      }

      .cls-14 {
        fill: #007033;
      }

      .cls-15 {
        fill: #00592a;
      }

      .cls-16 {
        fill: #0f0f0f;
      }

      .cls-17 {
        fill: #1a1a1a;
      }

      .cls-18 {
        fill: #f15a24;
      }
    </style>
  </defs>
  <g id="Backgrounds">
    <rect class="cls-1" width="1920" height="828"/>
    <circle class="cls-2" cx="960" cy="408.49" r="967.49"/>
    <circle class="cls-3" cx="960" cy="408.49" r="847.49"/>
    <circle class="cls-4" cx="960" cy="408.49" r="718.49"/>
    <circle class="cls-5" cx="960" cy="408.49" r="602.49"/>
    <circle class="cls-6" cx="960" cy="408.49" r="495.49"/>
    <circle class="cls-7" cx="960" cy="408.49" r="389"/>
    <circle class="cls-8" cx="960" cy="408.49" r="298"/>
    <circle class="cls-9" cx="960" cy="408.49" r="211"/>
    <path class="cls-10" d="M1022.24,239.91c-8.58-13.75-22.37-21.52-34.59-20.74l-.34-.54a14.7,14.7,0,0,0,1-2,15,15,0,0,0,1.25-6.32c.3-.07.6-.14.9-.23,3.92-1.16,6.73-4,7.22-6.82-2-2.14-5.85-2.95-9.77-1.79a9.52,9.52,0,0,0-1.1.39,15.36,15.36,0,0,0-1.63-2s-1.13-1.08-1.75-1.57a11.64,11.64,0,0,0,.45-1.08c1.37-3.85.77-7.76-1.27-9.85-2.89.34-5.82,3-7.19,6.84-.11.3-.2.59-.28.89a15.07,15.07,0,0,0-6.38.91,14.24,14.24,0,0,0-2,.93l-.52-.37c1.43-12.16-5.59-26.35-18.87-35.64-11.61-8.13-25.1-10.48-35.61-7.25,8.64,10.79,11.31,24,6.23,34.1a15.19,15.19,0,0,1,12.39,23.89c-.24.34-.49.68-.75,1h0a46.44,46.44,0,0,1,4.94,5.16c.93,1.11,1.93,2.38,2.95,3.82,3.62,5.1,2.41,21,2.41,21l.7,0c3.08-.05,15.54,0,20.44,3.87,1.38,1.1,2.6,2.16,3.66,3.15a45,45,0,0,1,4.89,5.21h0v0c.33-.24.68-.48,1-.7a15.18,15.18,0,0,1,23.19,13.65c10.35-4.54,23.41-1.17,33.73,8C1031.36,265.54,1029.73,251.94,1022.24,239.91Z"/>
    <path class="cls-11" d="M1751.5,645.34s-3,5,1,15c11.49,25.1-10.51,37.7-22,50-1,2,3-5.48,10-13,14-15,11-38,7-40s-8-4-9,0,5-7,5-7Z"/>
    <path class="cls-11" d="M1744.5,693.42c-22.85,4.22-35.89,5.13-51-12.08,5.15,6.71,5.94,14,19,17,8.63.48,25.24,1.12,28-1Z"/>
    <path class="cls-11" d="M1722.5,698.34c-3.57-3.22-7.22,18.4-8,21-2,7-2,8-7,15s0-9,1-10c2.66-2.67,8.36-22.23,5.45-25.82-1.45-1.18-4.2-3.9-4.2-3.9Z"/>
    <path class="cls-11" d="M1738.5,657.34c8.17,9.27-34,3.65-40,24a21.78,21.78,0,0,1,11-8c7-2,17-5,20-6s5.12,2.42,5.12,2.42Z"/>
    <g>
      <ellipse class="cls-12" cx="1810.53" cy="45.49" rx="1.69" ry="15.49"/>
      <ellipse class="cls-12" cx="1810.53" cy="45.49" rx="15.49" ry="1.69"/>
    </g>
    <g>
      <ellipse class="cls-12" cx="1498.53" cy="432.49" rx="1.69" ry="15.49"/>
      <ellipse class="cls-12" cx="1498.53" cy="432.49" rx="15.49" ry="1.69"/>
    </g>
    <g>
      <ellipse class="cls-12" cx="562.53" cy="790.49" rx="1.69" ry="15.49"/>
      <ellipse class="cls-12" cx="562.53" cy="790.49" rx="15.49" ry="1.69"/>
    </g>
    <g>
      <ellipse class="cls-12" cx="1410.53" cy="681.49" rx="1.69" ry="15.49"/>
      <ellipse class="cls-12" cx="1410.53" cy="681.49" rx="15.49" ry="1.69"/>
    </g>
    <g>
      <ellipse class="cls-12" cx="1872.53" cy="221.49" rx="1.69" ry="15.49"/>
      <ellipse class="cls-12" cx="1872.53" cy="221.49" rx="15.49" ry="1.69"/>
    </g>
    <g>
      <ellipse class="cls-12" cx="707.53" cy="53.49" rx="1.69" ry="15.49"/>
      <ellipse class="cls-12" cx="707.53" cy="53.49" rx="15.49" ry="1.69"/>
    </g>
    <g>
      <ellipse class="cls-12" cx="1038.53" cy="19.49" rx="1.69" ry="15.49"/>
      <ellipse class="cls-12" cx="1038.53" cy="19.49" rx="15.49" ry="1.69"/>
    </g>
    <g>
      <ellipse class="cls-12" cx="203.53" cy="106.49" rx="1.69" ry="15.49"/>
      <ellipse class="cls-12" cx="203.53" cy="106.49" rx="15.49" ry="1.69"/>
    </g>
    <g>
      <ellipse class="cls-12" cx="1395.53" cy="327.49" rx="1.69" ry="15.49"/>
      <ellipse class="cls-12" cx="1395.53" cy="327.49" rx="15.49" ry="1.69"/>
    </g>
    <g>
      <ellipse class="cls-12" cx="1600.53" cy="135.49" rx="0.84" ry="7.69" transform="translate(372.98 1171.43) rotate(-45)"/>
      <ellipse class="cls-12" cx="1600.53" cy="135.49" rx="7.69" ry="0.84" transform="translate(372.98 1171.43) rotate(-45)"/>
    </g>
    <g>
      <ellipse class="cls-12" cx="88.53" cy="283.49" rx="0.84" ry="7.69" transform="translate(-174.53 145.63) rotate(-45)"/>
      <ellipse class="cls-12" cx="88.53" cy="283.49" rx="7.69" ry="0.84" transform="translate(-174.53 145.63) rotate(-45)"/>
    </g>
    <g>
      <ellipse class="cls-12" cx="70.53" cy="461.49" rx="0.84" ry="7.69" transform="translate(-305.66 185.04) rotate(-45)"/>
      <ellipse class="cls-12" cx="70.53" cy="461.49" rx="7.69" ry="0.84" transform="translate(-305.66 185.04) rotate(-45)"/>
    </g>
    <g>
      <ellipse class="cls-12" cx="378.53" cy="540.49" rx="0.84" ry="7.69" transform="translate(-271.31 425.97) rotate(-45)"/>
      <ellipse class="cls-12" cx="378.53" cy="540.49" rx="7.69" ry="0.84" transform="translate(-271.31 425.97) rotate(-45)"/>
    </g>
    <g>
      <ellipse class="cls-12" cx="378.53" cy="710.49" rx="0.84" ry="7.69" transform="translate(-391.52 475.76) rotate(-45)"/>
      <ellipse class="cls-12" cx="378.53" cy="710.49" rx="7.69" ry="0.84" transform="translate(-391.52 475.76) rotate(-45)"/>
    </g>
    <g>
      <ellipse class="cls-12" cx="646.53" cy="525.49" rx="0.84" ry="7.69" transform="translate(-182.21 611.08) rotate(-45)"/>
      <ellipse class="cls-12" cx="646.53" cy="525.49" rx="7.69" ry="0.84" transform="translate(-182.21 611.08) rotate(-45)"/>
    </g>
    <g>
      <ellipse class="cls-12" cx="1316.53" cy="525.49" rx="0.84" ry="7.69" transform="translate(14.03 1084.84) rotate(-45)"/>
      <ellipse class="cls-12" cx="1316.53" cy="525.49" rx="7.69" ry="0.84" transform="translate(14.03 1084.84) rotate(-45)"/>
    </g>
    <g>
      <ellipse class="cls-12" cx="59.53" cy="35.49" rx="0.84" ry="7.69" transform="translate(-7.66 52.49) rotate(-45)"/>
      <ellipse class="cls-12" cx="59.53" cy="35.49" rx="7.69" ry="0.84" transform="translate(-7.66 52.49) rotate(-45)"/>
    </g>
    <g>
      <ellipse class="cls-12" cx="1255.53" cy="53.49" rx="1.38" ry="12.64" transform="translate(6.82 194.72) rotate(-8.89)"/>
      <ellipse class="cls-12" cx="1255.53" cy="53.49" rx="12.64" ry="1.38" transform="translate(6.82 194.72) rotate(-8.89)"/>
    </g>
    <g>
      <ellipse class="cls-12" cx="1526.53" cy="98.49" rx="1.38" ry="12.64" transform="translate(3.12 237.15) rotate(-8.89)"/>
      <ellipse class="cls-12" cx="1526.53" cy="98.49" rx="12.64" ry="1.38" transform="translate(3.12 237.15) rotate(-8.89)"/>
    </g>
    <g>
      <ellipse class="cls-12" cx="585.53" cy="45.49" rx="13.86" ry="1.51" transform="translate(402.27 603.46) rotate(-76.26)"/>
      <ellipse class="cls-12" cx="585.53" cy="45.49" rx="1.51" ry="13.86" transform="translate(402.27 603.46) rotate(-76.26)"/>
    </g>
    <g>
      <ellipse class="cls-12" cx="570.53" cy="353.49" rx="13.86" ry="1.51" transform="translate(91.64 823.73) rotate(-76.26)"/>
      <ellipse class="cls-12" cx="570.53" cy="353.49" rx="1.51" ry="13.86" transform="translate(91.64 823.73) rotate(-76.26)"/>
    </g>
    <g>
      <ellipse class="cls-12" cx="188.53" cy="427.49" rx="13.86" ry="1.51" transform="translate(-271.5 509.09) rotate(-76.26)"/>
      <ellipse class="cls-12" cx="188.53" cy="427.49" rx="1.51" ry="13.86" transform="translate(-271.5 509.09) rotate(-76.26)"/>
    </g>
    <g>
      <ellipse class="cls-12" cx="508.53" cy="645.49" rx="13.86" ry="1.51" transform="translate(-239.27 986.15) rotate(-76.26)"/>
      <ellipse class="cls-12" cx="508.53" cy="645.49" rx="1.51" ry="13.86" transform="translate(-239.27 986.15) rotate(-76.26)"/>
    </g>
    <g>
      <ellipse class="cls-12" cx="1713.53" cy="485.49" rx="13.86" ry="1.51" transform="translate(834.93 2034.67) rotate(-76.26)"/>
      <ellipse class="cls-12" cx="1713.53" cy="485.49" rx="1.51" ry="13.86" transform="translate(834.93 2034.67) rotate(-76.26)"/>
    </g>
    <g>
      <ellipse class="cls-12" cx="1157.53" cy="653.49" rx="13.86" ry="1.51" transform="translate(247.8 1622.67) rotate(-76.26)"/>
      <ellipse class="cls-12" cx="1157.53" cy="653.49" rx="1.51" ry="13.86" transform="translate(247.8 1622.67) rotate(-76.26)"/>
    </g>
    <g>
      <ellipse class="cls-12" cx="1887.53" cy="633.49" rx="13.86" ry="1.51" transform="translate(823.84 2316.53) rotate(-76.26)"/>
      <ellipse class="cls-12" cx="1887.53" cy="633.49" rx="1.51" ry="13.86" transform="translate(823.84 2316.53) rotate(-76.26)"/>
    </g>
    <g>
      <ellipse class="cls-12" cx="103.53" cy="669.49" rx="13.86" ry="1.51" transform="translate(-571.39 611.04) rotate(-76.26)"/>
      <ellipse class="cls-12" cx="103.53" cy="669.49" rx="1.51" ry="13.86" transform="translate(-571.39 611.04) rotate(-76.26)"/>
    </g>
    <g>
      <ellipse class="cls-12" cx="946.53" cy="94.49" rx="3.57" ry="0.39" transform="translate(629.92 991.49) rotate(-76.26)"/>
      <ellipse class="cls-12" cx="946.53" cy="94.49" rx="0.39" ry="3.57" transform="translate(629.92 991.49) rotate(-76.26)"/>
    </g>
    <g>
      <ellipse class="cls-12" cx="614.53" cy="138.49" rx="3.57" ry="0.39" transform="translate(334.04 702.54) rotate(-76.26)"/>
      <ellipse class="cls-12" cx="614.53" cy="138.49" rx="0.39" ry="3.57" transform="translate(334.04 702.54) rotate(-76.26)"/>
    </g>
    <g>
      <ellipse class="cls-12" cx="427.53" cy="411.49" rx="3.57" ry="0.39" transform="translate(-73.73 729.05) rotate(-76.26)"/>
      <ellipse class="cls-12" cx="427.53" cy="411.49" rx="0.39" ry="3.57" transform="translate(-73.73 729.05) rotate(-76.26)"/>
    </g>
    <g>
      <ellipse class="cls-12" cx="837.53" cy="184.49" rx="0.49" ry="4.52" transform="translate(-18.45 131.68) rotate(-8.89)"/>
      <ellipse class="cls-12" cx="837.53" cy="184.49" rx="4.52" ry="0.49" transform="translate(-18.45 131.68) rotate(-8.89)"/>
    </g>
    <g>
      <ellipse class="cls-12" cx="381.53" cy="53.49" rx="0.49" ry="4.52" transform="translate(-3.68 59.62) rotate(-8.89)"/>
      <ellipse class="cls-12" cx="381.53" cy="53.49" rx="4.52" ry="0.49" transform="translate(-3.68 59.62) rotate(-8.89)"/>
    </g>
    <g>
      <ellipse class="cls-12" cx="493.53" cy="160.49" rx="0.49" ry="4.52" transform="translate(-18.88 78.22) rotate(-8.89)"/>
      <ellipse class="cls-12" cx="493.53" cy="160.49" rx="4.52" ry="0.49" transform="translate(-18.88 78.22) rotate(-8.89)"/>
    </g>
    <g>
      <ellipse class="cls-12" cx="342.53" cy="312.49" rx="0.49" ry="4.52" transform="translate(-44.19 56.7) rotate(-8.89)"/>
      <ellipse class="cls-12" cx="342.53" cy="312.49" rx="4.52" ry="0.49" transform="translate(-44.19 56.7) rotate(-8.89)"/>
    </g>
    <g>
      <ellipse class="cls-12" cx="1338.53" cy="184.49" rx="0.49" ry="4.52" transform="translate(-12.43 209.13) rotate(-8.89)"/>
      <ellipse class="cls-12" cx="1338.53" cy="184.49" rx="4.52" ry="0.49" transform="translate(-12.43 209.13) rotate(-8.89)"/>
    </g>
    <g>
      <ellipse class="cls-12" cx="1643.53" cy="316.49" rx="0.49" ry="4.52" transform="translate(-29.17 257.86) rotate(-8.89)"/>
      <ellipse class="cls-12" cx="1643.53" cy="316.49" rx="4.52" ry="0.49" transform="translate(-29.17 257.86) rotate(-8.89)"/>
    </g>
    <g>
      <ellipse class="cls-12" cx="1857.53" cy="408.49" rx="0.49" ry="4.52" transform="translate(-40.82 292.05) rotate(-8.89)"/>
      <ellipse class="cls-12" cx="1857.53" cy="408.49" rx="4.52" ry="0.49" transform="translate(-40.82 292.05) rotate(-8.89)"/>
    </g>
    <rect class="cls-13" width="1918" height="1079"/>
    <path class="cls-14" d="M1955.92,716.37s-130-96.77-258.59-76.07S1468.66,766.81,1365.2,784.91,1164.32,718,1068.54,696s-257.77-11.32-362.28,74.34S459.63,873.43,385,839,121.49,728.27-12.88,745.13l-16.29,12.38,41.42,420.27,233.5,8.22,1688-72.12Z"/>
    <path class="cls-15" d="M-34.17,885.37s130-96.77,258.59-76.07S453.1,935.81,556.55,953.91,757.43,887,853.22,865s257.76-11.32,362.27,74.34S1553.37,1110.43,1628,1076s172.26-178.73,306.63-161.87l16.29,12.38-41.42,420.27L1676,1355-12,1282.88Z"/>
    <g>
      <ellipse class="cls-12" cx="1461.26" cy="233.01" rx="0.84" ry="7.69" transform="translate(263.23 1101.52) rotate(-45)"/>
      <ellipse class="cls-12" cx="1461.26" cy="233.01" rx="7.69" ry="0.84" transform="translate(263.23 1101.52) rotate(-45)"/>
    </g>
    <g>
      <path class="cls-16" d="M-37.55,926.14c9.39,0,96.42,25.6,131.4,34.13s90.44,20.48,108.36,16.21,85.33-17.92,94.71-23.89,57.17-20.48,57.17-20.48S309.72,965.39,291,972.22,175.76,997,142.48,997.81,50.34,983.31,24.74,979s-52.9-1.71-60.58.85S-37.55,926.14-37.55,926.14Z"/>
      <path class="cls-16" d="M268.76,973.07s48.64-2.56,68.26,14.5,42.67,23,51.2,26.45,29,19.63,29,19.63-49.49.85-74.23-17.07-79.89-33.94-79.89-33.94l-29.33-2.75Z"/>
      <path class="cls-16" d="M331.05,991.84s14.51,1.71,34.13-18.77,31.57-30.72,32.42-47.78,4.27-37.55,4.27-37.55S407,915.05,407,921.87s-4.27,29-14.51,43.52-17.91,14.5-23.89,29.86-6,22.19-6,22.19Z"/>
      <path class="cls-16" d="M401.87,933.82s4.27-3.41,22.18,10.24,19.63,24.74,26.45,34.13,9.39,24.74,11.1,28.15-17.07-22.18-29-33.27S413,960.27,407,960.27s-19.63,3.41-19.63,3.41Z"/>
      <path class="cls-16" d="M58.56,953.42s8,2.58,26.76-19.6,40.1-68.26,40.1-68.26,1.71-49.49-1.71-66.55-12.79-53.76-12.79-53.76,19.62,20.48,22.18,44.37,10.24,41.81,5.12,58.88-.85,22.18-9.39,41-11.09,21.33-15.36,41-10.6,23.74-2.31,37S122.86,985,122.86,985Z"/>
      <path class="cls-16" d="M126.36,898.49s44.28-34.64,46-44S186,812.66,186,802.42V717.1s11.09,31.57,8.53,55.46,0,46.07-6,68.26-12.8,32.42-29.86,46.07-13.66,12.8-29.87,25.6-21.33,16.21-24.74,27.3,5.12-33.27,5.12-33.27Z"/>
      <path class="cls-16" d="M183.44,848.5s9.39-15.36,35,4.26,33.28,34.13,46.08,43.52,43.51,15.36,46.93,15.36-3.42,6.82-22.19,6.82-33.27-3.41-49.49-16.21S221.84,875.8,209,872.39,188.56,869,177.47,875a98.41,98.41,0,0,1-23.89,8.53L180,856.18Z"/>
    </g>
    <g>
      <rect class="cls-17" x="11.23" y="909.97" width="37.59" height="59.79" rx="10.14"/>
      <path class="cls-17" d="M30.26,816h27A34.17,34.17,0,0,1,89.8,860.68L67.25,930.47h0c-11.6,35.89-62.38,35.89-74,0h0l-22.56-69.79C-37.22,836.11-22.59,816,3.24,816Z"/>
      <g>
        <path class="cls-17" d="M8.5,798,3,803.5a3.25,3.25,0,0,1-5.19-.82l-7-13.66-4.44-8.68A3.26,3.26,0,0,1-9.2,776l8.67,4.44,13.66,7a3.06,3.06,0,0,1,.82,5.19Z"/>
        <path class="cls-17" d="M51.55,798,57,803.5a3.25,3.25,0,0,0,5.19-.82l7-13.66,4.44-8.68A3.26,3.26,0,0,0,69.25,776l-8.68,4.44-13.66,7a3.06,3.06,0,0,0-.81,5.19Z"/>
      </g>
      <circle class="cls-17" cx="30.02" cy="816" r="41"/>
    </g>
    <g>
      <path class="cls-11" d="M1928.77,971.91s-147.43,107.66-172.8,111.48c-26.91,4-63.24,11.36-98.74,19.59-3.52-1.4-8.22-3.38-14.53-6.19-27.59-12.28-47.92-20.1-56.64-32.38s-29-27.91-29-27.91c-3.45-1.35-36.34-13.85-43.56-11.17,0,0-4.36-1.12,14.52,6.7,4,1.67,7.29,2.94,10,4,.58.83.81,2.64.15,7.15-1.45,10,1.46,10-10.16,16.75a82.24,82.24,0,0,0-10.37,5.19c-23,4-59.62-3.54-70.95,9.33-7.26,7.82-16,16.75-16,16.75,4-3.59,15.08-10.85,26.79-15.6,5,4.64,0,11-2.1,21.18a14.23,14.23,0,0,0-.16,1.56c-1.07,1.56-2.82,4.14-5.65,8.49-8.71,13.4-13.07,11.17-17.42,22.33s-2.91,15.63-2.91,20.1,1.45-8.93,7.26-17.86,5.81-12.29,13.07-15.64c6.78-3.12,6-6.35,9.37-4.9a62.93,62.93,0,0,1,5.15,11.6c2.91,10,2.91,15.63,2.91,15.63s1.45-23.44-2.91-30.14c-4.69-4.92,2.5-30.44,5.37-36.08a35.08,35.08,0,0,1,7.7-.77c10.06-.23,23.92-1.61,30.26,1.39-6.75,6-11.1,12.91-11.38,19.83,0,4.46,0,4.46,13.07-10s17.43-11.17,26.14-21.22,7.26-13.4,14.52-13.4a25.78,25.78,0,0,1,8.58,1.7l1.59,1.65c11.61,12.28,11.61,17.87,23.23,25.68s13.07,8.93,20.33,16.75,13.07,5.58,11.62,15.63a35.41,35.41,0,0,1-.95,4.48c-32.49,8.46-60.07,16.87-73,23-13-5.6-28.3-19.87-30.61-23-9.29-13.75-28.47-14-40.66-11.17,8.72,1.47,21.16,6.46,31.29,12.92,1.65,7.19,4.06,6.86-11,20.58-7.26,7.82-5.81,11.17-16,23.45s-14.52,14.52-14.52,14.52,23.23-11.17,26.14-19,11.61-12.28,20.33-23.44c3.6-4.62,6.21-5.5,7.89-5.37a28,28,0,0,1,2.27,3.13c5.81,7.82,8.71,7.82,7.26,15.63a19.29,19.29,0,0,0-.39,2c-8.7,5.46-14.39,10-15.93,13.36-1.22,2.69,9.06-.87,65.7-18.74,5.23-1.65,11.12-3.3,17.5-5,17.69,22.59,1.43,10.51-11.21,54.54-1.46.51-4.39,1.07-22.27-.46-26.14-2.23-43.56,5.59-52.28,0s-16-5.58-14.52-4.46c3.93,7,9.44,10.65,17.6,12.2-25.7,13.25-44.8-3.82-53.58-16.48-1.46-1.11-2.91,6.7,8.71,14.52s16,16.75,27.59,15.63,14.52-5.58,24.69-8.93a69.16,69.16,0,0,0,9.62-4c2.79-.14,5.75-.36,8.94-.66,18.88-1.12,30.49-4.47,34.85,1.12a65.91,65.91,0,0,1,4.82,7.29c-13.12,14.9-55.4,20.17-65.81,21.74,15.91,6,40.81,5.15,62.44-10,18.88-11.17,29-15.63,33.4-38s10.17-23.45,20.33-41.32c3.86-6.78,6.46-10.34,8.2-12.15,20.14-4.14,41.63-8.13,61.79-11.79,4.63,7.4,6.17,17.32,6.46,27.85-1.67,1.6-3.86,3.61-6.75,6.14-20.33,17.87-29,20.1-37.75,30.15-7.57,8.72-14,14.92-16.56,21.52-14.12,3.25-47,4.73-53.15,20.91a31.66,31.66,0,0,1,16-8.93c10.16-2.24,24.68-5.59,29-6.7a7.15,7.15,0,0,1,6.33,1.63c-1.81,6.36-4.63,12-3.42,12.88s7.67-18.15,15.8-28.08a45.31,45.31,0,0,1,7.43,2.4c5.35,2.06,9.44,24-5.77,40.49-32.31,4.54-51,5.25-72.65-13.69,7.49,7.49,8.62,15.63,27.59,19l1.92.08.19.12c4.23,4-4.06,25.85-7.91,28.83-1.46,1.12-8.72,19-1.46,11.17s7.26-8.93,10.17-16.75c.94-2.4,4.72-19.26,8.92-23,12.09.3,25.89.22,28.84-1.52a106.61,106.61,0,0,0-14.22,14.27c16.77-13.65,48.22-27.72,31.64-55.58-4.16-8-3.11-13.11-2.17-15.38,14.3-11.27,18.69-24.12,37.27-13.78-.12,2.73-.21,5.39-.25,8-1.45,19-8.71,32.38-23.23,58.06-5.13,9.07-9.23,29.47-7.26,31.26,3.6,3.29,33.4-41.31,42.11-58.06,3.47-6.67,6.93-25.89,9.85-46.62,2.25-2.09,4.91-4.41,7.58-7,5.8-5.58,10.16-3.35,24.68-3.35a27,27,0,0,1,7.21,1,108.57,108.57,0,0,0,10.22,7.89c13.07,8.93,8.71,6.7,11.61,14.51,1.78,2.92,3.23,5.58,4.43,8l-1-1.18c-19.42-8.34-27.69,32.1-41.2,32.21-10.17,3.35-29,13.4-29,13.4l-7.26,8.93s17.42-8.93,31.94-14.51,20.33-14.52,26.14-20.1c11.36-15.73,14.75-7.94,24.59-6.63,2.71,16.52-11.91,21.36-18.78,42.36,11.83-13.19,46.45-39.57,29-59.18a137,137,0,0,1-10.67-13,53.73,53.73,0,0,0,9.22,1.86c20.33,2.23,110.36-15.64,110.36-15.64s-39.38,1.52-70.92,1.83c-12.57-5.68-13.87-25.66-7.49-36.44,4.35-8.93,4.35-22.33,13.07-26.8s17.42-11.16,16-11.16c-28.25,9.29-36.8,20.17-42.11,44.66,0,5.58-1.45,8.93-4.36,15.63s0,8.93-4.35,11.17a27.17,27.17,0,0,0-3.8,2.43c-.74-.06-1.41-.13-2-.2-18.88-2.23-33.4-11.17-62.45-23.45-8.24-3.48-13.08-5.35-15.84-6.23.56-5.09,1.05-9.74,1.45-13.69,9.08-1.67,17.39-3.22,24.56-4.64,20-4,136.17-54,171.35-82.45C1966.92,986.68,1928.77,971.91,1928.77,971.91Z"/>
      <path class="cls-11" d="M1638.84,1018l-.31.25C1638.15,1018.81,1638.28,1018.66,1638.84,1018Z"/>
    </g>
    <g>
      <g>
        <path class="cls-18" d="M840.19,479.84a88,88,0,0,1-21.8,19.36,143.09,143.09,0,0,1-27.82,13.72,153.83,153.83,0,0,1-30.45,8.18,173.44,173.44,0,0,1-29.7,2.72q-27.25,0-50.18-9.77a119.6,119.6,0,0,1-39.57-27,124.55,124.55,0,0,1-26-40.51,132.78,132.78,0,0,1-9.4-50.18,172.68,172.68,0,0,1,18.14-77.16,155.16,155.16,0,0,1,21.33-32,137.86,137.86,0,0,1,28.57-25.09,135,135,0,0,1,35-16.35,137.51,137.51,0,0,1,40.6-5.83q8.08,0,17.29.66a182.69,182.69,0,0,1,18.33,2.25,129.49,129.49,0,0,1,17.76,4.42,82,82,0,0,1,15.79,7l-5.26,71.8A95.91,95.91,0,0,0,791,320.73a175.11,175.11,0,0,0-21.9-1.41,84,84,0,0,0-28.1,4.61,67.32,67.32,0,0,0-22.74,13.25A62.41,62.41,0,0,0,703,358.23a67,67,0,0,0-5.64,28A68,68,0,0,0,700,405.13a48.7,48.7,0,0,0,8,16.16,41,41,0,0,0,13.35,11.37A38.17,38.17,0,0,0,739.82,437a61.57,61.57,0,0,0,14.75-1.88,32.39,32.39,0,0,0,13.07-6.39l.75-14.67-45.11-.75,2.25-56.39q28-.93,56-1.59t56.39-1.79Z"/>
        <path class="cls-18" d="M1015.82,493.9l-59.33,7.66-7.17-27H922.05l-6,27-61-6,47.61-159.33,66.5-3.35Zm-70.81-56-9.09-41.62-8.85,41.62Z"/>
        <path class="cls-18" d="M1203.26,329.79l-11,175.59-54.54,2.4.48-92.58-24.64,74.63h-21.06l-18.9-66.74-.23,77.51-55.27,1.67,2.4-165.3,61.48-2.39,24.4,79.18,32.53-84Z"/>
        <path class="cls-18" d="M1325.26,331.71q-.72,11.24-1.31,22.24t-1.56,22.25l-50.72,2.63-1.19,15.07h35.64L1303.49,431l-35.88,1.2-1.2,17.46h50.72q-.72,13.17-1.5,26.14t-1.37,26l-103.11,2.39L1215,331.71Z"/>
        <path class="cls-18" d="M874.7,714.44a135.9,135.9,0,0,1-4,33,129,129,0,0,1-11.37,29.79,123.24,123.24,0,0,1-18,25.47,114.74,114.74,0,0,1-23.87,19.83A116,116,0,0,1,755.53,840a118.21,118.21,0,0,1-32.23-4.32,122.35,122.35,0,0,1-28.67-12.13,115,115,0,0,1-24.15-18.79,116.56,116.56,0,0,1-18.42-24.44,125.54,125.54,0,0,1-11.84-28.85A120.87,120.87,0,0,1,636,719.33a131.41,131.41,0,0,1,15.32-61.65,127.48,127.48,0,0,1,18-25.57A118.1,118.1,0,0,1,692.85,612a113.44,113.44,0,0,1,28.29-13.16,108.45,108.45,0,0,1,32.14-4.7q27.26,0,49.71,8.46a105.35,105.35,0,0,1,63,62.12Q874.71,687,874.7,714.44Zm-83.45,4.89a53.17,53.17,0,0,0-2.35-15.7A43.37,43.37,0,0,0,782,690.1a35.26,35.26,0,0,0-11.19-9.59,31.33,31.33,0,0,0-15.32-3.66A37.43,37.43,0,0,0,739.74,680a36.39,36.39,0,0,0-11.93,8.74,38.31,38.31,0,0,0-7.61,13,46.54,46.54,0,0,0-2.64,15.7,57.44,57.44,0,0,0,2.26,15.79,46.76,46.76,0,0,0,6.77,14.28,35.85,35.85,0,0,0,11.18,10.34,29.91,29.91,0,0,0,15.51,3.95,35.39,35.39,0,0,0,15.88-3.48,35.85,35.85,0,0,0,11.94-9.4,43.1,43.1,0,0,0,7.51-13.63A48.9,48.9,0,0,0,791.25,719.33Z"/>
        <path class="cls-18" d="M1037.66,651.45,993.88,818l-59.33,3.35L880.73,653.12l56.69-5.26,23,98.08,22.25-98.08Z"/>
        <path class="cls-18" d="M1154.76,646.66q-.72,11.25-1.31,22.25t-1.56,22.25l-50.72,2.63L1100,708.86h35.64L1133,745.94l-35.88,1.2-1.2,17.46h50.72q-.72,13.17-1.5,26.14t-1.37,26l-103.11,2.4,3.83-172.49Z"/>
        <path class="cls-18" d="M1299,703.84a81.31,81.31,0,0,1-1.61,16.92,51.09,51.09,0,0,1-5.08,13.94,50.23,50.23,0,0,1-9,11.72,79.94,79.94,0,0,1-13.28,10.29l28.47,50.71L1244.71,818l-18.42-51-14.83.48-2.16,49.76h-51.43q.6-27.27,1.14-54.3t1.25-54.31q.24-13.75.48-27.27t1-27.27a154.29,154.29,0,0,1,32.83-8.31q8.19-1.14,16.63-1.56t17.28-.42a92.64,92.64,0,0,1,26.38,3.77,68.53,68.53,0,0,1,22.54,11.3,56.66,56.66,0,0,1,15.73,18.78Q1299,688.89,1299,703.84Zm-53.58,3.83a29.27,29.27,0,0,0-1.38-9.21,20.52,20.52,0,0,0-4.06-7.24,18.71,18.71,0,0,0-6.7-4.78,23.45,23.45,0,0,0-9.39-1.74,35.69,35.69,0,0,0-4.67.3,32,32,0,0,0-4.42.9l-1.92,44.49h2.87a43.39,43.39,0,0,0,10.47-1.31,31.14,31.14,0,0,0,9.57-4.07,22.6,22.6,0,0,0,6.94-7.06A19,19,0,0,0,1245.43,707.67Z"/>
      </g>
      <g>
        <path d="M829.69,480.54a87.87,87.87,0,0,1-21.8,19.36,143.09,143.09,0,0,1-27.82,13.72,175.92,175.92,0,0,1-30.45,8.18,173.44,173.44,0,0,1-29.7,2.72q-27.25,0-50.18-9.77a119.6,119.6,0,0,1-39.57-27,124.55,124.55,0,0,1-26-40.51,132.78,132.78,0,0,1-9.4-50.18,172.68,172.68,0,0,1,18.14-77.16,154.89,154.89,0,0,1,21.33-32,138.12,138.12,0,0,1,28.57-25.09,135,135,0,0,1,35-16.35,137.51,137.51,0,0,1,40.6-5.83q8.08,0,17.3.66A182.85,182.85,0,0,1,774,243.61,129.49,129.49,0,0,1,791.72,248a82,82,0,0,1,15.79,7l-5.26,71.8a95.91,95.91,0,0,0-21.71-5.36,175,175,0,0,0-21.9-1.41,84,84,0,0,0-28.1,4.61,67.32,67.32,0,0,0-22.74,13.25,62.41,62.41,0,0,0-15.32,21.05,67,67,0,0,0-5.64,28,68,68,0,0,0,2.63,18.89,48.89,48.89,0,0,0,8,16.16,41,41,0,0,0,13.35,11.37,38.17,38.17,0,0,0,18.51,4.33,61.71,61.71,0,0,0,14.76-1.88,32.41,32.41,0,0,0,13.06-6.39l.75-14.67L712.78,414,715,357.61q28-.93,56-1.59t56.39-1.79Z"/>
        <path d="M1005.32,483.4,946,491.06l-7.18-27H911.55l-6,27-61-6,47.61-159.33,66.5-3.35Zm-70.81-56-9.09-41.62-8.85,41.62Z"/>
        <path d="M1192.76,319.29l-11,175.6-54.54,2.39.48-92.58-24.64,74.64h-21l-18.9-66.75-.24,77.51-55.26,1.68L1010,326.47l61.48-2.39,24.4,79.18,32.54-84Z"/>
        <path d="M1314.76,321.21q-.72,11.24-1.31,22.25t-1.56,22.24l-50.71,2.63-1.2,15.08h35.64L1293,420.49l-35.88,1.19-1.2,17.47h50.72q-.72,13.16-1.5,26.13t-1.37,26l-103.11,2.39,3.83-172.48Z"/>
        <path d="M864.2,703.94a136.33,136.33,0,0,1-3.94,33,129.42,129.42,0,0,1-11.38,29.79,123.24,123.24,0,0,1-18,25.47A114.74,114.74,0,0,1,807,812,115.73,115.73,0,0,1,745,829.5a118.21,118.21,0,0,1-32.23-4.32,121.93,121.93,0,0,1-28.67-12.13A115.22,115.22,0,0,1,660,794.26a116.91,116.91,0,0,1-18.42-24.44A125.81,125.81,0,0,1,629.72,741a120.87,120.87,0,0,1-4.23-32.14,131.41,131.41,0,0,1,15.32-61.65,128,128,0,0,1,18-25.57,118.71,118.71,0,0,1,23.59-20.11,113.44,113.44,0,0,1,28.29-13.16,108.44,108.44,0,0,1,32.14-4.69q27.26,0,49.72,8.45a105.35,105.35,0,0,1,63,62.13Q864.21,676.49,864.2,703.94Zm-83.45,4.89a53.17,53.17,0,0,0-2.35-15.7,43.37,43.37,0,0,0-6.86-13.53A35.26,35.26,0,0,0,760.35,670,31.33,31.33,0,0,0,745,666.35a37.5,37.5,0,0,0-15.78,3.19,36.32,36.32,0,0,0-11.94,8.74,38.4,38.4,0,0,0-7.61,13,46.58,46.58,0,0,0-2.63,15.7,57.37,57.37,0,0,0,2.25,15.79A46.89,46.89,0,0,0,716.09,737a36,36,0,0,0,11.18,10.34,29.91,29.91,0,0,0,15.51,3.95,35.39,35.39,0,0,0,15.88-3.48,35.85,35.85,0,0,0,11.94-9.4,43.16,43.16,0,0,0,7.52-13.62A49.26,49.26,0,0,0,780.75,708.83Z"/>
        <path d="M1027.16,641l-43.78,166.5-59.33,3.35L870.23,642.62l56.7-5.26,23,98.08,22.25-98.08Z"/>
        <path d="M1144.26,636.17q-.72,11.24-1.31,22.24t-1.56,22.25l-50.71,2.63-1.2,15.07h35.64l-2.63,37.08-35.88,1.2-1.2,17.46h50.72q-.72,13.17-1.5,26.14t-1.37,26l-103.11,2.39L1034,636.17Z"/>
        <path d="M1288.52,693.34a81.44,81.44,0,0,1-1.62,16.93,51,51,0,0,1-5.08,13.93,50.23,50.23,0,0,1-9,11.72,79.94,79.94,0,0,1-13.28,10.29L1288,796.93l-53.83,10.52-18.42-51L1201,757l-2.15,49.76h-51.44q.6-27.27,1.14-54.3t1.25-54.3q.24-13.75.48-27.28t1-27.27a154.29,154.29,0,0,1,32.83-8.31q8.19-1.14,16.63-1.56t17.28-.42a92.59,92.59,0,0,1,26.38,3.77,68.41,68.41,0,0,1,22.55,11.31,56.55,56.55,0,0,1,15.72,18.78Q1288.51,678.39,1288.52,693.34Zm-53.59,3.83a29.27,29.27,0,0,0-1.38-9.21,20.36,20.36,0,0,0-4.06-7.24,18.71,18.71,0,0,0-6.7-4.78,23.42,23.42,0,0,0-9.39-1.74,35.69,35.69,0,0,0-4.67.3,32,32,0,0,0-4.42.9l-1.92,44.49h2.88a43.37,43.37,0,0,0,10.46-1.31,31.14,31.14,0,0,0,9.57-4.07,22.49,22.49,0,0,0,6.94-7.06A19,19,0,0,0,1234.93,697.17Z"/>
      </g>
    </g>
  </g>
</svg>
