<svg xmlns="http://www.w3.org/2000/svg" width="510.89" height="111.64" viewBox="0 0 510.89 111.64">
  <defs>
    <style>
      .cls-1 {
        fill: #333;
      }
    </style>
  </defs>
  <g id="Backgrounds">
    <path class="cls-1" d="M507.4,63c7.79-4,9-11.26,1-15.86A11.82,11.82,0,0,0,502.25,46c2.21-2.16,3.67-4.54,3.92-7.14,1.36-14.08-10.68-21-21.83-12.31-4.26,3.32-7.64,9.09-10.2,15v0A35.38,35.38,0,0,0,470,25.31a35.82,35.82,0,0,0-11.65-13.06l0,0-.92-.6a35.57,35.57,0,0,0-19-5.58L388.49,5.9h-1.44l-27.76-.14-.08.06-56.63-.17-29.71-.09L218.54,5.4h0L188.8,5.32,80.79,5A36,36,0,0,0,44.85,40.74v.6c-3.66-7.19-8.93-15.49-15.2-19.18C17.47,15,6.43,23.42,9.6,37.21a9.5,9.5,0,0,0,1.86,3.73C2.94,42.91,0,49.7,6.64,56.09a11.86,11.86,0,0,0,5.71,2.63,11.78,11.78,0,0,0-5.53,6C2.11,78,12.12,87.67,25,81.92,33,78.36,40.36,68,44.79,60.63h0l0,17.81a35.38,35.38,0,0,0,2,12v0a36,36,0,0,0,3.91,7.8c.14.19.27.38.4.58s.43.61.68.93a35.78,35.78,0,0,0,28.69,14.6l17.87,0,26.25.08,57.89.17,26.25.08,85,.25h.73l61.84.18,22,.06,59.74.18A36,36,0,0,0,474,79.7l0-10c5.34,6.34,12.87,13.76,20.22,15.94,13.56,4,22.24-6.82,15.83-19.43A9.46,9.46,0,0,0,507.4,63Z"/>
  </g>
</svg>
