<svg xmlns="http://www.w3.org/2000/svg" width="513.86" height="115.44" viewBox="0 0 513.86 115.44">
  <defs>
    <style>
      .cls-1 {
        fill: #73558e;
      }

      .cls-2 {
        fill: #5b4472;
      }

      .cls-3 {
        fill: #eae665;
      }

      .cls-4 {
        fill: #f15a24;
      }
    </style>
  </defs>
  <g id="Backgrounds">
    <g>
      <g>
        <path class="cls-1" d="M463.58,54.76s37.12-6.19,43.53,6.43-2.27,23.46-15.83,19.43S463.58,54.76,463.58,54.76Z"/>
        <path class="cls-2" d="M463,53.66s32.42-17.3,42.47-11.51S511,58,497.07,60.31,463,53.66,463,53.66Z"/>
        <path class="cls-1" d="M465,55.72s36.81-7.81,38.16-21.89-10.68-21-21.83-12.31S465,55.72,465,55.72Z"/>
      </g>
      <g>
        <path class="cls-1" d="M47.3,48.94S9.78,46,6.6,32.21s7.87-22.22,20-15S47.3,48.94,47.3,48.94Z"/>
        <path class="cls-2" d="M47.63,50.16s-35.64,9-44,.93S2.1,34.35,16.13,35.48,47.63,50.16,47.63,50.16Z"/>
        <path class="cls-1" d="M46.14,47.67S8.53,46.36,3.82,59.7s5.3,23,18.22,17.22S46.14,47.67,46.14,47.67Z"/>
      </g>
      <path class="cls-1" d="M471.14,36.46V37l0,12.68v7l0,8h0l0,10a36,36,0,0,1-35.95,35.74l-59.74-.18-22-.06L291.45,110h-.73l-85-.25-26.25-.08-57.89-.17-26.25-.08-17.87,0a35.78,35.78,0,0,1-28.69-14.6c-.25-.32-.48-.63-.68-.93s-.26-.39-.4-.58a36,36,0,0,1-3.91-7.8v0a35.38,35.38,0,0,1-2-12l0-17.81V46.1l0-9.78v-.58A36,36,0,0,1,77.79,0l108,.32L215.53.4h0l54.33.16,29.71.09,56.64.17L385.48.9h0l49.91.15a35.57,35.57,0,0,1,19,5.58l.92.6,0,0A35.82,35.82,0,0,1,467,20.31,35.38,35.38,0,0,1,471.14,36.46Z"/>
      <path class="cls-3" d="M467,20.31l-2.22,1.86S425.38,46.44,412,61c-19.29,21.06-36.68,49.24-36.68,49.24l-22-.06s28.62-45,48.56-64.48c14-13.73,52.59-39.09,52.59-39.09l.92.6,0,0a36.28,36.28,0,0,1,9.27,9.14Z"/>
      <path class="cls-3" d="M385.49.9s-40.1,28.79-56.19,53S291.44,110,291.44,110l-26.36-.14s34.83-53,50.8-71.34S356.29.76,356.29.76Z"/>
      <path class="cls-3" d="M299.58.65C295.72,3.46,259,30.49,243.72,53.41c-15.87,23.88-37.4,55.49-38,56.36l-26.25-.08c2.59-4,35.49-54,50.82-71.64C244.56,21.64,265.54,4.13,269.87.56Z"/>
      <path class="cls-3" d="M215.53.4c-2.75,2-40.54,29.56-56,52.89s-36.35,54-37.91,56.23l-26.25-.08c3.15-4.8,35.56-54,50.74-71.51C160.52,21.31,181.84,3.57,185.8.32Z"/>
      <path class="cls-3" d="M126,.15c-1.35.48-28.35,29.79-40.85,46.18s-32,53-32,53a43.26,43.26,0,0,1-4.43-4.52c-.25-.32-.48-.63-.68-.93s-.26-.39-.4-.58a36,36,0,0,1-3.91-7.8v0C42.91,80.86,63,49.81,73.89,36.68S105.41.09,105.41.09Z"/>
    </g>
    <g>
      <g>
        <path class="cls-4" d="M218,45.78a16.68,16.68,0,0,1-1,6,15,15,0,0,1-2.8,4.62A16.14,16.14,0,0,1,210,59.79,26.67,26.67,0,0,1,204.87,62a35,35,0,0,1-5.64,1.26,45.32,45.32,0,0,1-5.73.44v15H177.11q0-4,0-7.8c0-2.54,0-5,0-7.55s0-5,0-7.54,0-5.14.06-7.84c0-2.86.05-5.71,0-8.57s0-5.75.18-8.65a66.09,66.09,0,0,1,9-2,63.85,63.85,0,0,1,9.28-.66,34,34,0,0,1,5.41.43,27,27,0,0,1,5.19,1.39,23.54,23.54,0,0,1,4.6,2.38,16.08,16.08,0,0,1,3.68,3.39,15.72,15.72,0,0,1,2.44,4.5A16.69,16.69,0,0,1,218,45.78ZM202.36,47A4.65,4.65,0,0,0,201,43.41a5.14,5.14,0,0,0-3.61-1.28,10,10,0,0,0-1.52.12q-.79.12-1.5.3l-.42,10.27a7.88,7.88,0,0,0,1,.07h.95a7,7,0,0,0,2.44-.43,6.4,6.4,0,0,0,2.09-1.21,6.11,6.11,0,0,0,1.46-1.86A5.31,5.31,0,0,0,202.36,47Z"/>
        <path class="cls-4" d="M250.87,58.16,249.4,73.77l-29.61,2.32q.21-12.27.48-24.4t.65-24.4H239.2q-.81,7.7-1.55,15.38T236.6,58.16c1.1.05,2.19.07,3.27.07h3.27c1.31,0,2.6,0,3.87,0S249.56,58.16,250.87,58.16Z"/>
        <path class="cls-4" d="M296.86,75.17l-17.44,2.25-2.11-7.94h-8l-1.75,7.94-17.93-1.75,14-46.83,19.55-1ZM276,58.72l-2.67-12.23-2.6,12.23Z"/>
        <path class="cls-4" d="M342.77,30.6l-19.34,27-.91,22H305.86l.42-21.86L296.22,31.65l17.93-2.25L317,44.59,325.9,29.4Z"/>
      </g>
      <g>
        <path d="M214,41.78a16.68,16.68,0,0,1-1,6,15,15,0,0,1-2.8,4.62A16.14,16.14,0,0,1,206,55.79,26.67,26.67,0,0,1,200.87,58a35,35,0,0,1-5.64,1.26,45.32,45.32,0,0,1-5.73.44v15H173.11q0-4,0-7.8c0-2.54,0-5,0-7.55s0-5,0-7.54,0-5.14.06-7.84c0-2.86.05-5.71,0-8.57s0-5.75.18-8.65a66.09,66.09,0,0,1,9-2,63.85,63.85,0,0,1,9.28-.66,34,34,0,0,1,5.41.43,27,27,0,0,1,5.19,1.39,23.54,23.54,0,0,1,4.6,2.38,16.08,16.08,0,0,1,3.68,3.39,15.72,15.72,0,0,1,2.44,4.5A16.69,16.69,0,0,1,214,41.78ZM198.36,43A4.65,4.65,0,0,0,197,39.41a5.14,5.14,0,0,0-3.61-1.28,10,10,0,0,0-1.52.12q-.79.12-1.5.3l-.42,10.27a7.88,7.88,0,0,0,1,.07h.95a7,7,0,0,0,2.44-.43,6.4,6.4,0,0,0,2.09-1.21,6.11,6.11,0,0,0,1.46-1.86A5.31,5.31,0,0,0,198.36,43Z"/>
        <path d="M246.87,54.16,245.4,69.77l-29.61,2.32q.21-12.27.48-24.4t.65-24.4H235.2q-.81,7.7-1.55,15.38T232.6,54.16c1.1.05,2.19.07,3.27.07h3.27c1.31,0,2.6,0,3.87,0S245.56,54.16,246.87,54.16Z"/>
        <path d="M292.86,71.17l-17.44,2.25-2.11-7.94h-8l-1.75,7.94-17.93-1.75,14-46.83,19.55-1ZM272,54.72l-2.67-12.23-2.6,12.23Z"/>
        <path d="M338.77,26.6l-19.34,27-.91,22H301.86l.42-21.86L292.22,27.65l17.93-2.25L313,40.59,321.9,25.4Z"/>
      </g>
    </g>
  </g>
</svg>
