<svg xmlns="http://www.w3.org/2000/svg" width="190" height="190" viewBox="0 0 190 190">
  <defs>
    <style>
      .cls-1 {
        fill: #666;
      }

      .cls-2 {
        fill: #ccc;
      }
    </style>
  </defs>
  <g id="Backgrounds">
    <circle class="cls-1" cx="90" cy="85" r="82.5"/>
    <path class="cls-2" d="M95.26,42.94A42.08,42.08,0,0,0,52.9,80,2,2,0,0,1,51,81.69H45.19a2,2,0,0,0-1.7,2.94l11,19a2,2,0,0,0,3.4,0l11-19a2,2,0,0,0-1.69-2.94H61.8a2,2,0,0,1-1.94-2.28,35.27,35.27,0,1,1,36.7,40.83,2,2,0,0,0-1.88,2v2.91a2,2,0,0,0,2,2,42.09,42.09,0,0,0,40.06-41.65C137,62.62,118.05,43.24,95.26,42.94Z"/>
  </g>
</svg>
