<svg xmlns="http://www.w3.org/2000/svg" width="350" height="350" viewBox="0 0 350 350">
  <defs>
    <style>
      .cls-1 {
        fill: #ce741b;
      }

      .cls-2 {
        fill: #d87023;
      }

      .cls-3 {
        fill: #f7931e;
      }

      .cls-4 {
        fill: #ed8620;
      }
    </style>
  </defs>
  <g id="items">
    <path class="cls-1" d="M295.16,101.19c-26-10-8-32-19.57-49.77s-49.43,2.77-66.43-3.23-24-28-43-24.08c-14.76,3-7.2,33.37-2.62,47.71a103.44,103.44,0,0,0-13.6,1.52A105.21,105.21,0,0,0,99.34,97.5,106.05,106.05,0,0,0,72,221.3c-10.64,0-58.8,1.29-63.49,20.4C3.27,263.2,23,258.59,49.69,266.44s10.57,31.25,23.55,48,49-6.78,66.47-2.18,26.19,26,44.81,20.51c15.29-4.47,3.25-37.3-2.2-50a105.33,105.33,0,0,0,21.07-4.95,104.13,104.13,0,0,0,15.28-6.69,106.18,106.18,0,0,0,53.94-114.33v0a105.42,105.42,0,0,0-3.29-12.45c10.78.83,58.63,3.44,64.84-15.18C341.16,108.19,321.16,111.19,295.16,101.19Z"/>
    <path class="cls-2" d="M163.16,76.19c-1-2-19-51.17,0-55.08s26,18.08,43,24.08S261,30.64,272.59,48.42s-6.43,39.77,19.57,49.77,46,7,39,28-67,15-67,15Z"/>
    <path class="cls-2" d="M177.05,274.89c1.16,1.91,23.09,49.45,4.47,54.9s-27.38-15.91-44.81-20.51-53.5,19-66.47,2.18,3.17-40.16-23.55-48S.27,260.2,5.54,238.7,71.1,218.31,71.1,218.31Z"/>
    <path class="cls-3" d="M271.66,174.69a106.13,106.13,0,0,1-56,93.48,104.13,104.13,0,0,1-15.28,6.69,105.65,105.65,0,0,1-34.73,5.83h-.11a107.21,107.21,0,0,1-18.31-1.6,105,105,0,0,1-43-18A105.93,105.93,0,0,1,86,104.8a106.27,106.27,0,0,1,46.24-30.73,106.62,106.62,0,0,1,52.95-3.58,103.69,103.69,0,0,1,18.76,5.32,106.06,106.06,0,0,1,44.2,32.29,0,0,0,0,1,0,0,105.42,105.42,0,0,1,21.48,45.7v0A106.83,106.83,0,0,1,271.66,174.69Z"/>
    <path class="cls-4" d="M129,274.18a105.61,105.61,0,0,1-24.71-13.07C97.4,249.24,90.06,235.38,88,227c-4.16-16.89,11.16-52.11,6.57-88.31A138.72,138.72,0,0,0,86,104.8,105,105,0,0,1,96.34,94.5c8.2,14.37,17.65,31.87,20.82,41.39,6,18-12,64-7.68,91.11C112.32,244.81,122.41,263.48,129,274.18Z"/>
    <path class="cls-4" d="M70,220.32a106.14,106.14,0,0,1,3.41-97.79,103.62,103.62,0,0,1,4.79,11.36C83.83,150.89,68.08,192.87,70,220.32Z"/>
    <path class="cls-4" d="M165.55,280.69a107.21,107.21,0,0,1-18.31-1.6c-5.88-14.3-11.48-29.49-13.24-39.23-4.16-23,11.16-71.06,6.57-120.42a247.36,247.36,0,0,0-8.36-45.37,106.22,106.22,0,0,1,14.73-3.73c6.86,16.85,13.63,34.7,16.22,45.29,6,24.54-12,87.26-7.68,124.23C157.12,253.85,161.16,268.23,165.55,280.69Z"/>
    <path class="cls-4" d="M207.48,232.86a185.49,185.49,0,0,0,8.19,35.31,104.13,104.13,0,0,1-15.28,6.69c-6.29-15.08-12.52-31.63-14.39-42-4.16-23,11.16-71.06,6.57-120.42a249.21,249.21,0,0,0-7.41-41.95,103.69,103.69,0,0,1,18.76,5.32c5,12.71,9.29,24.83,11.24,32.82C221.16,133.17,203.16,195.89,207.48,232.86Z"/>
    <path class="cls-4" d="M269.61,153.82v0c-2.71,20.64-6.44,43.76-6.78,63.26a105.62,105.62,0,0,1-17.72,27.75,104.66,104.66,0,0,1-3.11-12c-4.16-23,11.16-71.06,6.57-120.42-.14-1.46-.28-2.9-.44-4.32A105.42,105.42,0,0,1,269.61,153.82Z"/>
  </g>
</svg>
