<svg xmlns="http://www.w3.org/2000/svg" width="1920" height="1080" viewBox="0 0 1920 1080">
  <defs>
    <style>
      .cls-1 {
        fill: #fffdcf;
      }

      .cls-2 {
        opacity: 0.26;
      }

      .cls-3 {
        fill: #4d4d4d;
      }

      .cls-4 {
        fill: gray;
      }

      .cls-5 {
        fill: #f15a24;
      }
    </style>
  </defs>
  <g id="Backgrounds">
    <g>
      <ellipse class="cls-1" cx="59.53" cy="35.49" rx="0.84" ry="7.69" transform="translate(-7.66 52.49) rotate(-45)"/>
      <ellipse class="cls-1" cx="59.53" cy="35.49" rx="7.69" ry="0.84" transform="translate(-7.66 52.49) rotate(-45)"/>
    </g>
    <rect class="cls-2" x="-66" y="-17.62" width="2052" height="1115.24"/>
    <g>
      <rect class="cls-3" x="683.69" y="244.52" width="563.31" height="601.1" rx="93.82"/>
      <rect class="cls-4" x="673" y="234.37" width="563.31" height="601.1" rx="93.82"/>
    </g>
    <g>
      <g>
        <path class="cls-5" d="M884.63,312.78a12.62,12.62,0,0,1-1.1,5.47,10.33,10.33,0,0,1-3,3.79,12.42,12.42,0,0,1-4.46,2.2,20.54,20.54,0,0,1-5.49.7,11.52,11.52,0,0,1-2.48-.3c-.91-.2-1.82-.45-2.74-.75s-1.82-.62-2.68-1-1.61-.67-2.27-1l1-9.07a16.07,16.07,0,0,0,4.35,1.8,19.4,19.4,0,0,0,4.71.61c.29,0,.65,0,1.06,0a5.11,5.11,0,0,0,1.19-.2,2.61,2.61,0,0,0,1-.52,1.29,1.29,0,0,0,.39-1,1.11,1.11,0,0,0-.27-.75,2.13,2.13,0,0,0-.72-.51,4.43,4.43,0,0,0-1-.3,10.94,10.94,0,0,0-1.09-.15c-.35,0-.69-.05-1-.05h-.74a9.93,9.93,0,0,1-3.62-.62,8.16,8.16,0,0,1-2.8-1.77A8,8,0,0,1,861,306.6a9.8,9.8,0,0,1-.64-3.62,10.54,10.54,0,0,1,1.1-4.89,11.45,11.45,0,0,1,2.93-3.68,13.31,13.31,0,0,1,4.22-2.32,15.21,15.21,0,0,1,4.93-.81c.75,0,1.53,0,2.33.08a21.35,21.35,0,0,1,2.39.29,21.92,21.92,0,0,1,2.33.53,14.9,14.9,0,0,1,2.15.81l-.88,9.39a27.81,27.81,0,0,0-3.29-.89,16.45,16.45,0,0,0-3.37-.36h-.77c-.32,0-.65,0-1,.07s-.7.1-1.05.17a4.81,4.81,0,0,0-.95.31,2.08,2.08,0,0,0-.67.52,1.15,1.15,0,0,0-.23.77,1,1,0,0,0,.38.78,2.35,2.35,0,0,0,.93.41,5.93,5.93,0,0,0,1.25.13c.45,0,.9,0,1.35,0l1.25-.07c.38,0,.7,0,.94,0A9.36,9.36,0,0,1,880,305a7.42,7.42,0,0,1,4.08,4.42A10,10,0,0,1,884.63,312.78Z"/>
        <path class="cls-5" d="M911.91,305.94a28.59,28.59,0,0,1-.28,4q-3.95.26-7.86.82L896,311.9a5.75,5.75,0,0,0,1.88,2.66,4.9,4.9,0,0,0,3.07,1,6.81,6.81,0,0,0,2-.35,16,16,0,0,0,2.18-.87,21.64,21.64,0,0,0,2.08-1.12c.67-.4,1.24-.76,1.72-1.09l-1.11,10.5a10.52,10.52,0,0,1-2,1.18,13.83,13.83,0,0,1-2.18.79,18.13,18.13,0,0,1-2.29.44,19.57,19.57,0,0,1-2.27.13,13.19,13.19,0,0,1-4.18-.62,12.4,12.4,0,0,1-3.44-1.75,12.94,12.94,0,0,1-2.69-2.64,15.69,15.69,0,0,1-1.92-3.33,19.7,19.7,0,0,1-1.16-3.82,21.27,21.27,0,0,1-.39-4.07,24.13,24.13,0,0,1,.39-4.3,21.62,21.62,0,0,1,1.2-4.14,17.46,17.46,0,0,1,2-3.68,14.31,14.31,0,0,1,2.83-3,12.67,12.67,0,0,1,3.66-2,13.6,13.6,0,0,1,4.52-.72,11.73,11.73,0,0,1,3.76.57,10.37,10.37,0,0,1,3,1.57,10.7,10.7,0,0,1,2.31,2.39,13.61,13.61,0,0,1,1.62,3,18.67,18.67,0,0,1,1,3.49A22.12,22.12,0,0,1,911.91,305.94Zm-9.25-1.2a6.08,6.08,0,0,0-.14-1.33,4.07,4.07,0,0,0-.45-1.24,2.57,2.57,0,0,0-.82-.91,2.14,2.14,0,0,0-1.27-.36,2.75,2.75,0,0,0-1.63.49,5,5,0,0,0-1.21,1.25,7.85,7.85,0,0,0-.84,1.63,14.07,14.07,0,0,0-.48,1.62l6.84-.65Z"/>
        <path class="cls-5" d="M937.9,292l-.23,9.8-6.89.28L930,323.56l-9.76.5-.88-21.45-6.89.37.28-10.92Z"/>
        <path class="cls-5" d="M963.7,292l-.23,9.8-6.89.28-.83,21.46-9.76.5-.88-21.45-6.89.37.28-10.92Z"/>
        <path class="cls-5" d="M977.09,292.06l-1.62,31.5-9.76.5-.92-31.35Z"/>
        <path class="cls-5" d="M1007.66,312.92c0,1.74,0,3.46-.06,5.17s-.1,3.42-.18,5.14L994.11,323q.69-4.1,1.2-8.17a66.45,66.45,0,0,0,.51-8.25c0-.2,0-.52,0-1s0-.95-.09-1.51-.11-1.14-.2-1.73a11.38,11.38,0,0,0-.34-1.63,5,5,0,0,0-.53-1.22.91.91,0,0,0-.75-.47,2,2,0,0,0-1.33.46,3.55,3.55,0,0,0-.91,1.19,7.62,7.62,0,0,0-.56,1.63,14.12,14.12,0,0,0-.31,1.8c-.07.61-.12,1.17-.14,1.7s0,1,0,1.31q-.12,4.1-.18,8.13c0,2.69-.11,5.4-.19,8.15l-11.79.51q.47-8.18.89-16.24t.68-16.23l10.92-.55-.1,3.7a14,14,0,0,1,1.4-1.48,9.17,9.17,0,0,1,1.61-1.19,8.35,8.35,0,0,1,1.81-.79,7.11,7.11,0,0,1,2-.29,8.51,8.51,0,0,1,3.44.65,7.8,7.8,0,0,1,2.55,1.76,10.08,10.08,0,0,1,1.78,2.62,18.42,18.42,0,0,1,1.15,3.23,28.21,28.21,0,0,1,.67,3.57c.16,1.24.26,2.46.31,3.66s.09,2.37.09,3.49Z"/>
        <path class="cls-5" d="M1037.78,319.44a10.84,10.84,0,0,1-2.68,2.38,17.56,17.56,0,0,1-3.42,1.69,21.17,21.17,0,0,1-3.75,1,20.58,20.58,0,0,1-3.65.34,16.48,16.48,0,0,1-6.17-1.13,14.48,14.48,0,0,1-4.87-3.16,14.31,14.31,0,0,1-3.2-4.82,15.82,15.82,0,0,1-1.16-6.1,20.41,20.41,0,0,1,.58-4.9,19.56,19.56,0,0,1,1.65-4.47,18.21,18.21,0,0,1,2.63-3.81,16.41,16.41,0,0,1,3.51-3,16.66,16.66,0,0,1,4.31-1.94,18,18,0,0,1,5-.68c.67,0,1.38,0,2.13.08s1.51.15,2.26.28a16.14,16.14,0,0,1,2.18.54,10.44,10.44,0,0,1,1.94.86l-.64,8.83a12.41,12.41,0,0,0-2.67-.66,22.76,22.76,0,0,0-2.7-.17,11.76,11.76,0,0,0-3.46.5,8.24,8.24,0,0,0-2.79,1.46,7,7,0,0,0-1.89,2.43,7.82,7.82,0,0,0-.69,3.38,8.55,8.55,0,0,0,.32,2.32,6.09,6.09,0,0,0,1,2,4.94,4.94,0,0,0,1.64,1.4,4.74,4.74,0,0,0,2.28.53,7.74,7.74,0,0,0,1.81-.23,4,4,0,0,0,1.61-.79l.09-1.8-5.55-.09.28-6.94c2.29-.08,4.59-.14,6.89-.2s4.61-.12,6.93-.21Z"/>
        <path class="cls-5" d="M1063.24,312.78a12.62,12.62,0,0,1-1.1,5.47,10.33,10.33,0,0,1-3,3.79,12.51,12.51,0,0,1-4.46,2.2,20.54,20.54,0,0,1-5.49.7,11.61,11.61,0,0,1-2.49-.3q-1.35-.3-2.73-.75c-.93-.3-1.82-.62-2.68-1s-1.61-.67-2.27-1l1-9.07a16.27,16.27,0,0,0,4.36,1.8,19.4,19.4,0,0,0,4.71.61c.29,0,.65,0,1.06,0a5.11,5.11,0,0,0,1.19-.2,2.61,2.61,0,0,0,1-.52,1.29,1.29,0,0,0,.39-1,1.11,1.11,0,0,0-.27-.75,2.13,2.13,0,0,0-.72-.51,4.43,4.43,0,0,0-1-.3,10.94,10.94,0,0,0-1.09-.15c-.36,0-.69-.05-1-.05h-.74a9.93,9.93,0,0,1-3.62-.62,8.16,8.16,0,0,1-2.8-1.77,8,8,0,0,1-1.82-2.77A9.8,9.8,0,0,1,1039,303a10.54,10.54,0,0,1,1.1-4.89,11.45,11.45,0,0,1,2.93-3.68,13.31,13.31,0,0,1,4.22-2.32,15.21,15.21,0,0,1,4.93-.81c.75,0,1.53,0,2.33.08a21.35,21.35,0,0,1,2.39.29,21.92,21.92,0,0,1,2.33.53,14.9,14.9,0,0,1,2.15.81l-.88,9.39a27.46,27.46,0,0,0-3.3-.89,16.28,16.28,0,0,0-3.36-.36h-.77c-.32,0-.65,0-1,.07s-.7.1-1,.17a4.6,4.6,0,0,0-1,.31,2,2,0,0,0-.67.52,1.15,1.15,0,0,0-.23.77,1,1,0,0,0,.38.78,2.35,2.35,0,0,0,.93.41,5.93,5.93,0,0,0,1.25.13c.45,0,.9,0,1.35,0l1.25-.07c.38,0,.7,0,.94,0a9.36,9.36,0,0,1,3.33.79,7.42,7.42,0,0,1,4.08,4.42A10,10,0,0,1,1063.24,312.78Z"/>
      </g>
      <g>
        <path d="M881.34,309.49a12.59,12.59,0,0,1-1.1,5.47,10.32,10.32,0,0,1-3,3.79,12.55,12.55,0,0,1-4.47,2.2,20.54,20.54,0,0,1-5.49.7,11.52,11.52,0,0,1-2.48-.3c-.9-.2-1.82-.45-2.74-.75s-1.82-.62-2.67-1-1.62-.67-2.28-1l1-9.06a16.52,16.52,0,0,0,4.35,1.79,18.92,18.92,0,0,0,4.71.61l1.06,0a5.58,5.58,0,0,0,1.19-.21,2.61,2.61,0,0,0,1-.52,1.23,1.23,0,0,0,.4-1,1.12,1.12,0,0,0-.28-.75,2,2,0,0,0-.72-.51,4.43,4.43,0,0,0-1-.3,10.55,10.55,0,0,0-1.09-.15c-.35,0-.68,0-1,0H866a10,10,0,0,1-3.62-.63,7.79,7.79,0,0,1-4.61-4.54,9.56,9.56,0,0,1-.65-3.62,10.66,10.66,0,0,1,1.1-4.89,11.45,11.45,0,0,1,2.93-3.68,13.42,13.42,0,0,1,4.22-2.32,15.21,15.21,0,0,1,4.93-.81c.75,0,1.53,0,2.33.08s1.6.15,2.4.29,1.56.32,2.32.53a14.9,14.9,0,0,1,2.15.81l-.88,9.39a27.81,27.81,0,0,0-3.29-.89,16.45,16.45,0,0,0-3.37-.36h-.77c-.32,0-.65,0-1,.07s-.69.1-1,.17a4.81,4.81,0,0,0-1,.32,1.83,1.83,0,0,0-.67.52,1.11,1.11,0,0,0-.23.76,1,1,0,0,0,.38.79,2.34,2.34,0,0,0,.93.4,5.39,5.39,0,0,0,1.25.13c.45,0,.9,0,1.35,0l1.25-.07c.38,0,.7,0,.95,0a9.47,9.47,0,0,1,3.33.79,7.73,7.73,0,0,1,2.5,1.78,7.57,7.57,0,0,1,1.58,2.65A10.11,10.11,0,0,1,881.34,309.49Z"/>
        <path d="M908.62,302.65a30.16,30.16,0,0,1-.27,4c-2.64.17-5.26.45-7.87.82l-7.81,1.12a5.75,5.75,0,0,0,1.88,2.66,4.84,4.84,0,0,0,3.07,1,6.81,6.81,0,0,0,2-.35,16.62,16.62,0,0,0,2.19-.87c.72-.34,1.41-.72,2.08-1.12s1.23-.76,1.71-1.08l-1.11,10.49a10.2,10.2,0,0,1-2,1.18,12.9,12.9,0,0,1-2.18.79,18.13,18.13,0,0,1-2.29.44,19.61,19.61,0,0,1-2.27.14,13.19,13.19,0,0,1-4.18-.63,12.18,12.18,0,0,1-3.43-1.74,12.8,12.8,0,0,1-2.7-2.65,15.69,15.69,0,0,1-1.92-3.33,18.82,18.82,0,0,1-1.15-3.82,20.47,20.47,0,0,1-.4-4.06,23.28,23.28,0,0,1,.4-4.31,21.29,21.29,0,0,1,1.19-4.13,17.29,17.29,0,0,1,2-3.69,14.51,14.51,0,0,1,2.83-3,12.62,12.62,0,0,1,3.67-2,13.52,13.52,0,0,1,4.52-.72,11.71,11.71,0,0,1,3.75.57,10.36,10.36,0,0,1,3,1.57,10.7,10.7,0,0,1,2.31,2.39,13.61,13.61,0,0,1,1.62,3,18,18,0,0,1,.95,3.5A22,22,0,0,1,908.62,302.65Zm-9.25-1.2a6.81,6.81,0,0,0-.13-1.33,4.36,4.36,0,0,0-.46-1.24A2.65,2.65,0,0,0,898,298a2.14,2.14,0,0,0-1.27-.36,2.71,2.71,0,0,0-1.63.5,4.76,4.76,0,0,0-1.21,1.24A7.58,7.58,0,0,0,893,301a12.48,12.48,0,0,0-.49,1.62l6.84-.64Z"/>
        <path d="M934.61,288.73l-.23,9.8-6.89.28-.83,21.46-9.76.51L916,299.32l-6.89.37.28-10.91Z"/>
        <path d="M960.41,288.73l-.23,9.8-6.89.28-.83,21.46-9.76.51-.88-21.46-6.89.37.28-10.91Z"/>
        <path d="M973.8,288.78l-1.62,31.49-9.76.51-.92-31.36Z"/>
        <path d="M1004.37,309.63c0,1.74,0,3.47-.06,5.17s-.1,3.42-.17,5.14l-13.32-.23q.69-4.09,1.2-8.17a66.41,66.41,0,0,0,.51-8.24c0-.2,0-.53,0-1s0-1-.1-1.52-.11-1.14-.19-1.73a11.33,11.33,0,0,0-.35-1.63,4.65,4.65,0,0,0-.53-1.22.91.91,0,0,0-.75-.47,2,2,0,0,0-1.33.46,3.5,3.5,0,0,0-.9,1.19,7.62,7.62,0,0,0-.57,1.63,16.3,16.3,0,0,0-.31,1.81c-.07.6-.12,1.16-.14,1.69s0,1,0,1.31c-.07,2.73-.14,5.44-.18,8.13s-.11,5.41-.19,8.15l-11.79.51q.47-8.16.89-16.23t.68-16.23l10.92-.56-.1,3.7a16.33,16.33,0,0,1,1.4-1.48,8.86,8.86,0,0,1,3.42-2,7.11,7.11,0,0,1,2-.29,8.51,8.51,0,0,1,3.44.65,7.8,7.8,0,0,1,2.55,1.76,9.84,9.84,0,0,1,1.78,2.62,18.42,18.42,0,0,1,1.15,3.23,26.54,26.54,0,0,1,.67,3.57c.16,1.24.26,2.46.32,3.67s.08,2.36.08,3.49Z"/>
        <path d="M1034.49,316.15a10.64,10.64,0,0,1-2.68,2.38,17.56,17.56,0,0,1-3.42,1.69,22.09,22.09,0,0,1-3.75,1,21.52,21.52,0,0,1-3.65.33,16.48,16.48,0,0,1-6.17-1.13,14.26,14.26,0,0,1-8.07-8,15.82,15.82,0,0,1-1.16-6.1,20.47,20.47,0,0,1,.58-4.9,20,20,0,0,1,1.65-4.47,18.47,18.47,0,0,1,2.63-3.81,16.54,16.54,0,0,1,7.82-4.91,17.64,17.64,0,0,1,5-.69c.66,0,1.37,0,2.12.09a21.43,21.43,0,0,1,2.26.27,16.17,16.17,0,0,1,2.18.55,9.8,9.8,0,0,1,1.94.85l-.64,8.83a12.41,12.41,0,0,0-2.67-.66,22.76,22.76,0,0,0-2.7-.17,11.65,11.65,0,0,0-3.45.5,8.14,8.14,0,0,0-2.8,1.47,7,7,0,0,0-1.89,2.42,7.85,7.85,0,0,0-.69,3.38,8.13,8.13,0,0,0,.33,2.32,5.88,5.88,0,0,0,1,2,4.94,4.94,0,0,0,1.64,1.4,4.63,4.63,0,0,0,2.28.53,7.25,7.25,0,0,0,1.81-.23,3.91,3.91,0,0,0,1.61-.78l.09-1.81-5.55-.09.28-6.94c2.3-.07,4.59-.14,6.89-.19s4.61-.13,6.94-.22Z"/>
        <path d="M1060,309.49a12.59,12.59,0,0,1-1.1,5.47,10.32,10.32,0,0,1-3,3.79,12.55,12.55,0,0,1-4.47,2.2,20.54,20.54,0,0,1-5.49.7,11.52,11.52,0,0,1-2.48-.3c-.91-.2-1.82-.45-2.74-.75s-1.82-.62-2.67-1-1.62-.67-2.28-1l1-9.06a16.52,16.52,0,0,0,4.35,1.79,18.92,18.92,0,0,0,4.71.61l1.06,0a5.58,5.58,0,0,0,1.19-.21,2.61,2.61,0,0,0,1-.52,1.27,1.27,0,0,0,.4-1,1.12,1.12,0,0,0-.28-.75,2.13,2.13,0,0,0-.72-.51,4.43,4.43,0,0,0-1-.3,10.55,10.55,0,0,0-1.09-.15c-.35,0-.68,0-1,0h-.74a10,10,0,0,1-3.62-.63,7.79,7.79,0,0,1-4.61-4.54,9.56,9.56,0,0,1-.65-3.62,10.54,10.54,0,0,1,1.1-4.89,11.45,11.45,0,0,1,2.93-3.68,13.31,13.31,0,0,1,4.22-2.32,15.21,15.21,0,0,1,4.93-.81c.75,0,1.53,0,2.33.08s1.6.15,2.4.29,1.56.32,2.32.53a14.9,14.9,0,0,1,2.15.81l-.88,9.39a27.81,27.81,0,0,0-3.29-.89,16.45,16.45,0,0,0-3.37-.36h-.77c-.32,0-.65,0-1,.07s-.69.1-1,.17a4.81,4.81,0,0,0-1,.32,1.83,1.83,0,0,0-.67.52,1.11,1.11,0,0,0-.23.76,1,1,0,0,0,.38.79,2.34,2.34,0,0,0,.93.4,5.39,5.39,0,0,0,1.25.13c.45,0,.9,0,1.35,0l1.25-.07c.38,0,.7,0,1,0a9.47,9.47,0,0,1,3.33.79,7.73,7.73,0,0,1,2.5,1.78,7.57,7.57,0,0,1,1.58,2.65A10.11,10.11,0,0,1,1060,309.49Z"/>
      </g>
    </g>
  </g>
</svg>
