<svg xmlns="http://www.w3.org/2000/svg" width="190" height="190" viewBox="0 0 190 190">
  <defs>
    <style>
      .cls-1 {
        fill: #666;
      }

      .cls-2 {
        fill: #e6e6e6;
      }
    </style>
  </defs>
  <g id="Backgrounds">
    <g>
      <circle class="cls-1" cx="90" cy="85" r="82.5"/>
      <path class="cls-2" d="M128.61,76.47h-3.18a36,36,0,0,0-4.25-10.22l2.33-2.34a3.46,3.46,0,0,0,0-4.89l-7.34-7.35a3.49,3.49,0,0,0-4.9,0L108.91,54a36,36,0,0,0-10.12-4.18V46.39a3.48,3.48,0,0,0-3.47-3.46H84.94a3.48,3.48,0,0,0-3.47,3.46v3.47a35.7,35.7,0,0,0-10,4.14l-2.51-2.51a3.46,3.46,0,0,0-4.89,0l-7.35,7.34a3.49,3.49,0,0,0,0,4.9l2.45,2.45a36.38,36.38,0,0,0-4.23,10h-3.5a3.48,3.48,0,0,0-3.46,3.47V90.06a3.48,3.48,0,0,0,3.46,3.47h3.35a36.22,36.22,0,0,0,4.12,10.19l-2.37,2.37a3.46,3.46,0,0,0,0,4.89l7.34,7.35a3.49,3.49,0,0,0,4.9,0L71,116.08a36.44,36.44,0,0,0,10.23,4.35v3.18a3.48,3.48,0,0,0,3.47,3.46H95.06a3.48,3.48,0,0,0,3.47-3.46v-3.06a36.1,36.1,0,0,0,10.36-4.23l2.2,2.19a3.46,3.46,0,0,0,4.89,0l7.35-7.34a3.49,3.49,0,0,0,0-4.9l-2.16-2.16a36.28,36.28,0,0,0,4.29-10.32h3.15a3.48,3.48,0,0,0,3.46-3.47V79.94A3.48,3.48,0,0,0,128.61,76.47ZM90.13,100.41a15.24,15.24,0,1,1,15.23-15.24A15.23,15.23,0,0,1,90.13,100.41Z"/>
    </g>
  </g>
</svg>
