<svg xmlns="http://www.w3.org/2000/svg" width="190" height="190" viewBox="0 0 190 190">
  <defs>
    <style>
      .cls-1 {
        fill: #666;
      }

      .cls-2 {
        fill: #ccc;
      }
    </style>
  </defs>
  <g id="Backgrounds">
    <g>
      <circle class="cls-1" cx="90" cy="85" r="82.5"/>
      <g>
        <path class="cls-2" d="M93.86,129.17,52.26,105.8a4.69,4.69,0,0,1-4.68-4.67V68.87a4.69,4.69,0,0,1,4.68-4.67l41.6-23.37a4.68,4.68,0,0,1,4.67,4.67v79A4.68,4.68,0,0,1,93.86,129.17Z"/>
        <path class="cls-2" d="M123.06,85l8.27-8.26a3.76,3.76,0,0,0,0-5.29h0a3.74,3.74,0,0,0-5.29,0l-8.26,8.26-8.27-8.26a3.74,3.74,0,0,0-5.29,5.29L112.49,85l-8.27,8.26a3.74,3.74,0,0,0,5.29,5.29l8.27-8.26L126,98.55a3.74,3.74,0,0,0,5.29,0h0a3.76,3.76,0,0,0,0-5.29Z"/>
      </g>
    </g>
  </g>
</svg>
