<svg xmlns="http://www.w3.org/2000/svg" width="190" height="190" viewBox="0 0 190 190">
  <defs>
    <style>
      .cls-1 {
        fill: #666;
      }

      .cls-2 {
        fill: #e6e6e6;
      }
    </style>
  </defs>
  <g id="Backgrounds">
    <circle class="cls-1" cx="90" cy="85" r="82.5"/>
    <g>
      <path class="cls-2" d="M90.77,129.17,49.17,105.8a4.69,4.69,0,0,1-4.68-4.67V68.87a4.69,4.69,0,0,1,4.68-4.67l41.6-23.37a4.68,4.68,0,0,1,4.67,4.67v79A4.68,4.68,0,0,1,90.77,129.17Z"/>
      <g>
        <path class="cls-2" d="M136.84,130.81h0a3.75,3.75,0,0,1-3.74-3.74h0a182.06,182.06,0,0,0,0-84.14h0a3.75,3.75,0,0,1,3.74-3.74h0a3.76,3.76,0,0,1,3.74,3.74h0a182.06,182.06,0,0,1,0,84.14h0A3.76,3.76,0,0,1,136.84,130.81Z"/>
        <path class="cls-2" d="M121.84,116.77h0c-2.06,0-3.74-1.17-3.74-2.6h0a90,90,0,0,0,0-58.34h0c0-1.43,1.68-2.6,3.74-2.6h0c2,0,3.74,1.17,3.74,2.6h0a90,90,0,0,1,0,58.34h0C125.58,115.6,123.89,116.77,121.84,116.77Z"/>
        <path class="cls-2" d="M106.84,108.77h0c-2.06,0-3.74-.84-3.74-1.86h0a48.49,48.49,0,0,0,0-41.82h0c0-1,1.68-1.86,3.74-1.86h0c2,0,3.74.84,3.74,1.86h0a48.49,48.49,0,0,1,0,41.82h0C110.58,107.93,108.89,108.77,106.84,108.77Z"/>
      </g>
    </g>
  </g>
</svg>
