<svg xmlns="http://www.w3.org/2000/svg" width="1225" height="615" viewBox="0 0 1225 615">
  <defs>
    <style>
      .cls-1 {
        fill: #4d4d4d;
      }

      .cls-2 {
        fill: gray;
      }

      .cls-3 {
        fill: #f15a24;
      }
    </style>
  </defs>
  <g id="Backgrounds">
    <rect class="cls-1" x="15.34" y="13.52" width="1207.47" height="601.1" rx="93.82"/>
    <rect class="cls-2" x="2.19" y="0.37" width="1207.47" height="601.1" rx="93.82"/>
    <g>
      <g>
        <path class="cls-3" d="M493.58,68.62,482,69.17l-.09-10.68h-5.32l-.32,10.13H465.93l.88-32.51,11,.51-.69,16.6h5.13l.05-17.85,10.54.28Z"/>
        <path class="cls-3" d="M524.36,52.3a16.89,16.89,0,0,1-.49,4.05,15.57,15.57,0,0,1-1.4,3.67,15.3,15.3,0,0,1-2.22,3.13,14,14,0,0,1-2.94,2.44,13.81,13.81,0,0,1-3.54,1.58,14.25,14.25,0,0,1-4.07.57,14.75,14.75,0,0,1-4-.53,15.09,15.09,0,0,1-3.52-1.49,14.24,14.24,0,0,1-3-2.31,14.73,14.73,0,0,1-2.26-3,15.42,15.42,0,0,1-1.46-3.55,14.71,14.71,0,0,1-.52-4,16.28,16.28,0,0,1,1.89-7.59,15.55,15.55,0,0,1,2.2-3.14A14.65,14.65,0,0,1,502,39.69a13.8,13.8,0,0,1,3.48-1.61,13.11,13.11,0,0,1,3.95-.58,17.07,17.07,0,0,1,6.11,1,13.09,13.09,0,0,1,4.72,3,13.38,13.38,0,0,1,3,4.67A16.55,16.55,0,0,1,524.36,52.3Zm-10.27.6A6.54,6.54,0,0,0,513.8,51,5.25,5.25,0,0,0,513,49.3a4.38,4.38,0,0,0-1.38-1.18,3.84,3.84,0,0,0-1.88-.45,4.65,4.65,0,0,0-1.95.39,4.52,4.52,0,0,0-1.46,1.08,4.73,4.73,0,0,0-.94,1.6,5.59,5.59,0,0,0-.32,1.93,7.26,7.26,0,0,0,.27,1.94,6.08,6.08,0,0,0,.84,1.76,4.49,4.49,0,0,0,1.37,1.27,3.71,3.71,0,0,0,1.91.48,4.3,4.3,0,0,0,1.95-.43,4.38,4.38,0,0,0,1.47-1.15,5.5,5.5,0,0,0,.93-1.68A6.15,6.15,0,0,0,514.09,52.9Z"/>
        <path class="cls-3" d="M567.68,36.53l-5.41,32-13.13.28-2.82-16.6-2.82,15.4-13.13.46-5.46-31.58,11.47-1,2.31,19.19,3.1-19.19h9l3.6,19.42,1.85-19.42Z"/>
        <path class="cls-3" d="M602.64,35.56l-.23,9.8-6.89.28-1.76,21.92-9.75.5,0-21.91-6.89.37.28-10.92Z"/>
        <path class="cls-3" d="M632.49,52.3a16.88,16.88,0,0,1-.48,4.05,16,16,0,0,1-1.4,3.67,15.3,15.3,0,0,1-2.22,3.13,14.11,14.11,0,0,1-6.49,4,14.2,14.2,0,0,1-4.07.57,14.68,14.68,0,0,1-4-.53,15.34,15.34,0,0,1-3.53-1.49,14.2,14.2,0,0,1-5.23-5.32,15.42,15.42,0,0,1-1.46-3.55,14.71,14.71,0,0,1-.52-4A16.12,16.12,0,0,1,605,45.31a16,16,0,0,1,2.21-3.14,14.59,14.59,0,0,1,2.9-2.48,13.8,13.8,0,0,1,3.48-1.61,13.22,13.22,0,0,1,4-.58,17.07,17.07,0,0,1,6.11,1,13.18,13.18,0,0,1,4.72,3,13.38,13.38,0,0,1,3,4.67A16.76,16.76,0,0,1,632.49,52.3Zm-10.26.6a6.54,6.54,0,0,0-.29-1.93,5.48,5.48,0,0,0-.85-1.67,4.45,4.45,0,0,0-1.37-1.18,3.88,3.88,0,0,0-1.89-.45,4.4,4.4,0,0,0-3.41,1.47,4.55,4.55,0,0,0-.93,1.6,5.59,5.59,0,0,0-.33,1.93,7.28,7.28,0,0,0,.28,1.94,6.06,6.06,0,0,0,.83,1.76,4.53,4.53,0,0,0,1.38,1.27,3.71,3.71,0,0,0,1.91.48,4.3,4.3,0,0,0,2-.43A4.38,4.38,0,0,0,621,56.54a5.27,5.27,0,0,0,.92-1.68A5.89,5.89,0,0,0,622.23,52.9Z"/>
        <path class="cls-3" d="M670.29,46.38a10.87,10.87,0,0,1-.67,4,9.62,9.62,0,0,1-1.83,3,11.09,11.09,0,0,1-2.74,2.2,17.27,17.27,0,0,1-3.37,1.47,23.53,23.53,0,0,1-3.71.83,30.49,30.49,0,0,1-3.77.29V68.94H643.43q0-5.3,0-10.54t.07-10.59c0-1.88,0-3.76,0-5.64s0-3.78.12-5.69a44.92,44.92,0,0,1,5.92-1.32,41.9,41.9,0,0,1,6.1-.44,22.4,22.4,0,0,1,3.56.29,17.29,17.29,0,0,1,3.41.92,14.45,14.45,0,0,1,3,1.56,10.23,10.23,0,0,1,4,5.18A11,11,0,0,1,670.29,46.38ZM660,47.16a3,3,0,0,0-.91-2.34,3.33,3.33,0,0,0-2.37-.85,7.1,7.1,0,0,0-1,.08c-.35.06-.67.12-1,.2L654.48,51a4.56,4.56,0,0,0,.62,0h.63a4.66,4.66,0,0,0,1.61-.28,4.37,4.37,0,0,0,1.37-.8,3.94,3.94,0,0,0,1-1.22A3.45,3.45,0,0,0,660,47.16Z"/>
        <path class="cls-3" d="M691.89,55.44l-1,10.27-19.47,1.52q.13-8.07.31-16t.43-16h12q-.53,5.07-1,10.12c-.33,3.36-.56,6.76-.7,10.18.73,0,1.44.05,2.15.05h2.15c.87,0,1.71,0,2.55,0Z"/>
        <path class="cls-3" d="M722.13,66.63l-11.47,1.48-1.38-5.23H704l-1.15,5.23L691.06,67l9.2-30.79,12.85-.65ZM708.44,55.81l-1.75-8.05L705,55.81Z"/>
        <path class="cls-3" d="M752.33,37.31,739.61,55.07,739,69.54h-11l.28-14.38L721.72,38l11.79-1.48,1.85,10,5.87-10Z"/>
      </g>
      <g>
        <path d="M490.29,65.33l-11.56.56-.09-10.69h-5.32L473,65.33H462.64l.88-32.51,11,.51-.69,16.6H479L479,32.08l10.54.28Z"/>
        <path d="M521.07,49a16.54,16.54,0,0,1-.49,4.06,15.66,15.66,0,0,1-1.4,3.66A15,15,0,0,1,517,59.86,14.24,14.24,0,0,1,514,62.3a14.41,14.41,0,0,1-3.55,1.59,14.61,14.61,0,0,1-4.07.56,14.36,14.36,0,0,1-4-.53,14.84,14.84,0,0,1-3.52-1.49,13.93,13.93,0,0,1-3-2.31,14.16,14.16,0,0,1-2.27-3,15.68,15.68,0,0,1-1.46-3.55,15.12,15.12,0,0,1-.52-4,16.23,16.23,0,0,1,.49-3.94,15.68,15.68,0,0,1,1.4-3.64,15.39,15.39,0,0,1,2.21-3.15,14.22,14.22,0,0,1,2.9-2.47,13.49,13.49,0,0,1,3.48-1.62,13.15,13.15,0,0,1,3.95-.58,17.35,17.35,0,0,1,6.12,1A13,13,0,0,1,520,42.89,16.59,16.59,0,0,1,521.07,49Zm-10.27.6a6.59,6.59,0,0,0-.29-1.93,5.25,5.25,0,0,0-.84-1.67,4.38,4.38,0,0,0-1.38-1.18,3.82,3.82,0,0,0-1.88-.45A4.49,4.49,0,0,0,503,45.85a4.83,4.83,0,0,0-.94,1.6,5.88,5.88,0,0,0-.32,1.93,6.84,6.84,0,0,0,.28,1.94,5.7,5.7,0,0,0,.83,1.76,4.61,4.61,0,0,0,1.37,1.27,3.74,3.74,0,0,0,1.91.48,4.28,4.28,0,0,0,3.42-1.58,5.38,5.38,0,0,0,.93-1.68A6.15,6.15,0,0,0,510.8,49.61Z"/>
        <path d="M564.4,33.24,559,65.29l-13.14.27L543,49l-2.82,15.4-13.13.46-5.46-31.58,11.47-1,2.31,19.19,3.1-19.19h9l3.6,19.42L553,32.22Z"/>
        <path d="M599.35,32.27l-.23,9.8-6.89.28-1.75,21.92-9.76.51,0-21.92-6.89.37.27-10.92Z"/>
        <path d="M629.2,49a17,17,0,0,1-.48,4.06,16.12,16.12,0,0,1-1.4,3.66,15,15,0,0,1-2.22,3.13,14,14,0,0,1-2.94,2.44,14.25,14.25,0,0,1-3.55,1.59,14.55,14.55,0,0,1-4.07.56,14.34,14.34,0,0,1-4-.53,14.92,14.92,0,0,1-3.53-1.49,14.2,14.2,0,0,1-5.23-5.32,15.24,15.24,0,0,1-1.46-3.55,14.71,14.71,0,0,1-.52-4,15.75,15.75,0,0,1,.49-3.94A16.12,16.12,0,0,1,601.72,42a15.79,15.79,0,0,1,2.21-3.15,14.49,14.49,0,0,1,2.9-2.47,13.8,13.8,0,0,1,3.48-1.62,13.22,13.22,0,0,1,4-.58,17.29,17.29,0,0,1,6.11,1,13.18,13.18,0,0,1,4.72,3,13.47,13.47,0,0,1,3,4.67A16.59,16.59,0,0,1,629.2,49Zm-10.26.6a6.59,6.59,0,0,0-.29-1.93,5.46,5.46,0,0,0-.84-1.67,4.49,4.49,0,0,0-1.38-1.18,3.88,3.88,0,0,0-1.89-.45,4.49,4.49,0,0,0-3.41,1.47,4.81,4.81,0,0,0-.93,1.6,5.63,5.63,0,0,0-.33,1.93,7.22,7.22,0,0,0,.28,1.94,5.94,5.94,0,0,0,.83,1.76,4.53,4.53,0,0,0,1.38,1.27,3.71,3.71,0,0,0,1.91.48,4.28,4.28,0,0,0,3.42-1.58,5.17,5.17,0,0,0,.92-1.68A5.89,5.89,0,0,0,618.94,49.61Z"/>
        <path d="M667,43.09a11.18,11.18,0,0,1-.67,4,9.71,9.71,0,0,1-1.84,3,10.91,10.91,0,0,1-2.74,2.2,17.27,17.27,0,0,1-3.37,1.47,22.46,22.46,0,0,1-3.71.83,28.66,28.66,0,0,1-3.77.29V65.65H640.14c0-3.52,0-7,0-10.54s0-7,.07-10.59q0-2.82,0-5.64c0-1.88,0-3.78.11-5.69a43.33,43.33,0,0,1,5.92-1.31,40.55,40.55,0,0,1,6.1-.44,22.38,22.38,0,0,1,3.56.28,17.29,17.29,0,0,1,3.41.92,14.45,14.45,0,0,1,3,1.56,10.3,10.3,0,0,1,2.42,2.23,10.5,10.5,0,0,1,1.61,3A11.06,11.06,0,0,1,667,43.09Zm-10.27.79a3,3,0,0,0-.91-2.35,3.37,3.37,0,0,0-2.37-.85,7.1,7.1,0,0,0-1,.08c-.35.06-.67.12-1,.2l-.28,6.75a4.7,4.7,0,0,0,.63,0h.62a4.66,4.66,0,0,0,1.61-.28,4.19,4.19,0,0,0,1.37-.8,3.94,3.94,0,0,0,1-1.22A3.43,3.43,0,0,0,656.74,43.88Z"/>
        <path d="M688.6,52.15l-1,10.27-19.47,1.52q.14-8.07.31-16t.43-16h12q-.54,5.07-1,10.12c-.33,3.36-.56,6.76-.7,10.18.73,0,1.45.05,2.15.05h2.15q1.31,0,2.55,0Z"/>
        <path d="M718.84,63.34l-11.46,1.48L706,59.6h-5.27l-1.16,5.22-11.79-1.15,9.2-30.8,12.86-.65ZM705.16,52.52l-1.76-8-1.71,8Z"/>
        <path d="M749,34,736.32,51.78l-.6,14.48h-11L725,51.88l-6.61-17.16,11.79-1.48,1.85,10,5.87-10Z"/>
      </g>
    </g>
  </g>
</svg>
