<svg id="timebar_BG" data-name="timebar BG" xmlns="http://www.w3.org/2000/svg" width="385" height="1415" viewBox="0 0 385 1415">
  <defs>
    <style>
      .cls-1 {
        fill: #666;
      }

      .cls-2 {
        fill: gray;
      }
    </style>
  </defs>
  <path class="cls-1" d="M0,194.5v1026c0,95.93,70.18,175.48,162,190.09a192.84,192.84,0,0,0,30.5,2.41c106.31,0,192.5-86.19,192.5-192.5V194.5C385,88.19,298.81,2,192.5,2A192.49,192.49,0,0,0,0,194.5Z"/>
  <path class="cls-2" d="M0,194.5v1026c0,95.93,70.18,175.48,162,190.09,91.82-14.61,162-94.16,162-190.09V194.5C324,98.57,253.82,19,162,4.41A192.54,192.54,0,0,0,0,194.5Z"/>
</svg>
