<svg id="timebar_BG" data-name="timebar BG" xmlns="http://www.w3.org/2000/svg" width="385" height="1415" viewBox="0 0 385 1415">
  <defs>
    <style>
      .cls-1 {
        fill: #333;
      }

      .cls-2 {
        fill: #ddd;
      }
    </style>
  </defs>
  <g>
    <path class="cls-1" d="M192.5,1027C86,1027-.41,1113.41-.41,1220S86,1412.87,192.5,1412.87,385.41,1326.51,385.41,1220,299.05,1027,192.5,1027Zm0,355a162,162,0,1,1,162.05-162A162,162,0,0,1,192.5,1382Z"/>
    <circle class="cls-2" cx="192.5" cy="1220.53" r="162.05"/>
    <circle class="cls-1" cx="192.5" cy="1220.53" r="16.01"/>
    <rect class="cls-1" x="190.13" y="1107.77" width="4.75" height="115.16"/>
    <path class="cls-1" d="M193,1065.68s1.16,23.13,9.85,37.36,9.26,14.23,9.26,14.23H173.66s.58,0,9.27-14.23S193,1065.68,193,1065.68Z"/>
    <rect class="cls-1" x="235.97" y="1172.38" width="3.73" height="90.45" transform="translate(1455.44 979.77) rotate(90)"/>
    <path class="cls-1" d="M316.12,1218s-18.16.91-29.34,7.74S275.6,1233,275.6,1233v-30.2s0,.45,11.18,7.28S316.12,1218,316.12,1218Z"/>
  </g>
</svg>
