<svg id="timebar_BG" data-name="timebar BG" xmlns="http://www.w3.org/2000/svg" xmlns:xlink="http://www.w3.org/1999/xlink" width="385" height="1415" viewBox="0 0 385 1415">
  <defs>
    <style>
      .cls-1 {
        fill: none;
      }

      .cls-2 {
        fill: #666;
      }

      .cls-3 {
        fill: gray;
      }

      .cls-4 {
        clip-path: url(#clip-path);
      }

      .cls-5 {
        fill: #f15a24;
      }

      .cls-6 {
        fill: #c1451f;
      }

      .cls-7 {
        fill: #333;
      }

      .cls-8 {
        fill: #ddd;
      }
    </style>
    <clipPath id="clip-path">
      <rect class="cls-1" x="-53" y="57" width="491" height="1258"/>
    </clipPath>
  </defs>
  <g>
    <path class="cls-2" d="M385,194.5v1026c0,95.93-70.18,175.48-162,190.09a192.84,192.84,0,0,1-30.5,2.41C86.19,1413,0,1326.81,0,1220.5V194.5C0,88.19,86.19,2,192.5,2A192.49,192.49,0,0,1,385,194.5Z"/>
    <path class="cls-3" d="M385,194.5v1026c0,95.93-70.18,175.48-162,190.09C131.18,1396,61,1316.43,61,1220.5V194.5C61,98.57,131.18,19,223,4.41A192.54,192.54,0,0,1,385,194.5Z"/>
  </g>
  <g class="cls-4">
    <g>
      <path class="cls-5" d="M325.5,721.5v984a131.5,131.5,0,1,1-263,0v-984a131.5,131.5,0,1,1,263,0Z"/>
      <path class="cls-6" d="M280.5,721.5v984a131.52,131.52,0,0,1-109,129.58,131.52,131.52,0,0,1-109-129.58v-984a131.52,131.52,0,0,1,109-129.58,131.52,131.52,0,0,1,109,129.58Z"/>
    </g>
  </g>
  <g>
    <path class="cls-7" d="M192.5,1027C86,1027-.41,1113.41-.41,1220S86,1412.87,192.5,1412.87,385.41,1326.51,385.41,1220,299.05,1027,192.5,1027Zm0,355a162,162,0,1,1,162.05-162A162,162,0,0,1,192.5,1382Z"/>
    <circle class="cls-8" cx="192.5" cy="1220.53" r="162.05"/>
    <circle class="cls-7" cx="192.5" cy="1220.53" r="16.01"/>
    <rect class="cls-7" x="190.13" y="1107.77" width="4.75" height="115.16"/>
    <path class="cls-7" d="M193,1065.68s1.16,23.13,9.85,37.36,9.26,14.23,9.26,14.23H173.66s.58,0,9.27-14.23S193,1065.68,193,1065.68Z"/>
    <rect class="cls-7" x="235.97" y="1172.38" width="3.73" height="90.45" transform="translate(1455.44 979.77) rotate(90)"/>
    <path class="cls-7" d="M316.12,1218s-18.16.91-29.34,7.74S275.6,1233,275.6,1233v-30.2s0,.45,11.18,7.28S316.12,1218,316.12,1218Z"/>
  </g>
</svg>
