<svg id="timebar_BG" data-name="timebar BG" xmlns="http://www.w3.org/2000/svg" width="385" height="1415" viewBox="0 0 385 1415">
  <defs>
    <style>
      .cls-1 {
        fill: #c1451f;
      }

      .cls-2 {
        fill: #f15a24;
      }
    </style>
  </defs>
  <path class="cls-1" d="M277.5,1185.5v-984a131.52,131.52,0,0,0-109-129.58,131.51,131.51,0,0,1,154,129.58v984a131.6,131.6,0,0,1-154,129.58A131.52,131.52,0,0,0,277.5,1185.5Z"/>
  <path class="cls-1" d="M277.5,1185.5v-984a131.52,131.52,0,0,0-109-129.58,131.51,131.51,0,0,1,154,129.58v984a131.6,131.6,0,0,1-154,129.58A131.52,131.52,0,0,0,277.5,1185.5Z"/>
  <path class="cls-2" d="M168.5,71.92a131.52,131.52,0,0,1,109,129.58v984a131.52,131.52,0,0,1-109,129.58,131.52,131.52,0,0,1-109-129.58v-984A131.52,131.52,0,0,1,168.5,71.92Z"/>
</svg>
