<svg xmlns="http://www.w3.org/2000/svg" width="600" height="600" viewBox="0 0 600 600">
  <defs>
    <style>
      .cls-1 {
        fill: #f15a24;
      }
    </style>
  </defs>
  <g id="Title_screens" data-name="Title screens">
    <g>
      <g>
        <path class="cls-1" d="M290.56,8.54l2.65,81-92.27,7.49L196.63,278.8l-80.3,8.74-9.81-181-92.24,8.26L11.5,24.64Z"/>
        <path class="cls-1" d="M312.84,197.3a59.45,59.45,0,0,1-1.17,12.29,37.21,37.21,0,0,1-3.7,10.12,36.41,36.41,0,0,1-6.51,8.52,58.09,58.09,0,0,1-9.65,7.47l20.68,36.84-39.1,7.64-13.38-37-10.77.35-1.56,36.14H210.32q.42-19.8.82-39.44t.91-39.45q.18-10,.35-19.81t.7-19.81a113.37,113.37,0,0,1,12-3.73A110.8,110.8,0,0,1,237,155.11q5.94-.83,12.07-1.13t12.56-.3a67,67,0,0,1,19.16,2.74,49.7,49.7,0,0,1,16.37,8.21,41.13,41.13,0,0,1,11.43,13.64A40.22,40.22,0,0,1,312.84,197.3Zm-38.92,2.78a21.44,21.44,0,0,0-1-6.69,14.82,14.82,0,0,0-3-5.26,13.5,13.5,0,0,0-4.86-3.48,17.25,17.25,0,0,0-6.82-1.26,26.81,26.81,0,0,0-3.39.22,24.48,24.48,0,0,0-3.22.65l-1.39,32.32h2.09a31.45,31.45,0,0,0,7.6-1,22.59,22.59,0,0,0,6.95-3,16.31,16.31,0,0,0,5-5.12A13.86,13.86,0,0,0,273.92,200.08Z"/>
        <path class="cls-1" d="M365.75,158.72,356.2,277.06,319.53,279V161.15Z"/>
        <path class="cls-1" d="M457.85,158.89,453,195.56a32.17,32.17,0,0,0-5-1,50,50,0,0,0-5-.26,43.58,43.58,0,0,0-12.25,1.7,30.35,30.35,0,0,0-10.3,5.17,25.34,25.34,0,0,0-7.12,8.68,26.69,26.69,0,0,0-2.65,12.26A19.5,19.5,0,0,0,412,230a14.56,14.56,0,0,0,4,5.47,16.8,16.8,0,0,0,6.17,3.21,27.55,27.55,0,0,0,7.82,1,33.67,33.67,0,0,0,6.69-.7,57.34,57.34,0,0,0,6.86-1.82,66.24,66.24,0,0,0,6.61-2.61c2.14-1,4.11-2,5.9-3l-3.47,40.84a56.56,56.56,0,0,1-7.34,3.08q-4,1.35-8.13,2.35a78.6,78.6,0,0,1-8.34,1.52,65.91,65.91,0,0,1-8,.52,51.94,51.94,0,0,1-37.19-15.29,52.44,52.44,0,0,1-11.08-16.82,53.79,53.79,0,0,1-4-20.89,90.41,90.41,0,0,1,4.26-28,68.58,68.58,0,0,1,12.51-23.07,58.7,58.7,0,0,1,20.46-15.64q12.21-5.73,28.11-5.74a81.7,81.7,0,0,1,12.3,1A41,41,0,0,1,457.85,158.89Z"/>
        <path class="cls-1" d="M573.5,156.63,531.62,214.5,566.89,276l-40.31,7.13L500.16,245.6l-1.39,39.28-36.14,1.39,2.78-133.11,40.49,2.26-3.13,39.27,26.94-41.53Z"/>
        <path class="cls-1" d="M377.51,336.78a37.83,37.83,0,0,1-1.1,9.15,36,36,0,0,1-3.15,8.26,34,34,0,0,1-5,7.06,32.09,32.09,0,0,1-23.8,10.35,32.71,32.71,0,0,1-8.94-1.2,33.81,33.81,0,0,1-7.95-3.36,32,32,0,0,1-6.7-5.21,32.52,32.52,0,0,1-5.11-6.78,34.59,34.59,0,0,1-3.28-8,33.22,33.22,0,0,1-1.18-8.92,36.58,36.58,0,0,1,4.25-17.1,35.36,35.36,0,0,1,5-7.09,33.05,33.05,0,0,1,6.54-5.57,31.24,31.24,0,0,1,7.85-3.65,30,30,0,0,1,8.91-1.31,38.93,38.93,0,0,1,13.79,2.35A29.21,29.21,0,0,1,375.09,323,37.58,37.58,0,0,1,377.51,336.78Zm-23.15,1.35a14.51,14.51,0,0,0-.65-4.35,11.84,11.84,0,0,0-1.9-3.75,9.82,9.82,0,0,0-3.1-2.66,8.68,8.68,0,0,0-4.25-1,10.35,10.35,0,0,0-4.38.89,10,10,0,0,0-3.31,2.42,10.63,10.63,0,0,0-2.11,3.6,12.82,12.82,0,0,0-.73,4.35,16.14,16.14,0,0,0,.62,4.38,13.15,13.15,0,0,0,1.88,4,10,10,0,0,0,3.1,2.87,8.29,8.29,0,0,0,4.3,1.1,9.76,9.76,0,0,0,7.72-3.58,11.76,11.76,0,0,0,2.08-3.78A13.5,13.5,0,0,0,354.36,338.13Z"/>
        <path class="cls-1" d="M442.26,323.33a35.38,35.38,0,0,1-.71,7.37,22.45,22.45,0,0,1-2.21,6.08,22.2,22.2,0,0,1-3.91,5.11,34.74,34.74,0,0,1-5.79,4.48l12.41,22.1-23.46,4.59-8-22.21-6.46.21-.94,21.69H380.74q.25-11.89.5-23.67t.54-23.67q.11-6,.21-11.88t.42-11.89A66.89,66.89,0,0,1,396.72,298q3.57-.5,7.25-.68t7.53-.18A40.45,40.45,0,0,1,423,298.8a30,30,0,0,1,9.83,4.93,24.75,24.75,0,0,1,6.86,8.18A24.17,24.17,0,0,1,442.26,323.33ZM418.9,325a12.84,12.84,0,0,0-.6-4,8.92,8.92,0,0,0-1.77-3.15,8.2,8.2,0,0,0-2.92-2.09,10.3,10.3,0,0,0-4.09-.75,15.1,15.1,0,0,0-2,.13,12.09,12.09,0,0,0-1.92.39l-.84,19.39H406a19,19,0,0,0,4.56-.57,13.46,13.46,0,0,0,4.17-1.77,9.79,9.79,0,0,0,3-3.08A8.28,8.28,0,0,0,418.9,325Z"/>
        <path class="cls-1" d="M290.56,321l2.65,81-92.27,7.5-4.31,181.73L116.33,600,106,410.53,13.8,418.79l-2.3-81.68Z"/>
        <path class="cls-1" d="M312.84,509.76a59.48,59.48,0,0,1-1.17,12.3,37.33,37.33,0,0,1-3.7,10.12,36.16,36.16,0,0,1-6.51,8.51,57.56,57.56,0,0,1-9.65,7.47L312.49,585l-39.1,7.65-13.38-37-10.77.34-1.56,36.15H210.32q.42-19.82.82-39.45t.91-39.44q.18-10,.35-19.81t.7-19.81a111.24,111.24,0,0,1,23.85-6q5.94-.82,12.07-1.13t12.56-.31a67.39,67.39,0,0,1,19.16,2.74,49.9,49.9,0,0,1,16.37,8.21,41.23,41.23,0,0,1,11.43,13.64A40.25,40.25,0,0,1,312.84,509.76Zm-38.92,2.78a21.54,21.54,0,0,0-1-6.69,14.82,14.82,0,0,0-3-5.26,13.6,13.6,0,0,0-4.86-3.47,17.08,17.08,0,0,0-6.82-1.26,25.07,25.07,0,0,0-3.39.22,23,23,0,0,0-3.22.65l-1.39,32.32h2.09a31.47,31.47,0,0,0,7.6-1,22.57,22.57,0,0,0,6.95-3,16.24,16.24,0,0,0,5-5.13A13.81,13.81,0,0,0,273.92,512.54Z"/>
        <path class="cls-1" d="M401.12,468.23q-.53,8.16-1,16.16T399,500.55l-36.84,1.91-.87,10.95h25.89l-1.91,26.93-26.06.87-.87,12.69h36.84q-.52,9.55-1.09,19t-1,18.9l-74.89,1.74L321,468.23Z"/>
        <path class="cls-1" d="M513.63,586.05l-43.09,5.56L465.32,572H445.51l-4.34,19.64-44.31-4.35,34.58-115.73,48.31-2.43ZM462.2,545.38l-6.61-30.23-6.43,30.23Z"/>
        <path class="cls-1" d="M597,469.27l-.87,36.84-25.89,1-6.6,82.37L527,591.43l.18-82.36-25.9,1.39,1-41Z"/>
      </g>
      <g>
        <path d="M282,0l2.65,81L192.4,88.52l-4.32,181.74L107.78,279,98,98.05,5.74,106.31,3,16.1Z"/>
        <path d="M304.3,188.76a59.45,59.45,0,0,1-1.17,12.29,37.21,37.21,0,0,1-3.7,10.12,36.41,36.41,0,0,1-6.51,8.52,58.63,58.63,0,0,1-9.65,7.47L304,264l-39.1,7.64-13.38-37L240.7,235l-1.57,36.14H201.77q.43-19.8.83-39.44t.91-39.45q.18-10,.35-19.81t.69-19.81a116.61,116.61,0,0,1,12-3.74,114.3,114.3,0,0,1,11.86-2.3q6-.82,12.08-1.13t12.56-.3a66.92,66.92,0,0,1,19.15,2.74,49.66,49.66,0,0,1,16.38,8.21A41.13,41.13,0,0,1,300,169.73,40.22,40.22,0,0,1,304.3,188.76Zm-38.93,2.78a21.16,21.16,0,0,0-1-6.69,14.8,14.8,0,0,0-2.95-5.26,13.5,13.5,0,0,0-4.86-3.48,17.13,17.13,0,0,0-6.83-1.26,26.78,26.78,0,0,0-3.38.22,24.15,24.15,0,0,0-3.22.65L241.74,208h2.09a31.45,31.45,0,0,0,7.6-.95,22.59,22.59,0,0,0,6.95-3,16.31,16.31,0,0,0,5-5.12A13.86,13.86,0,0,0,265.37,191.54Z"/>
        <path d="M357.21,150.18l-9.56,118.34L311,270.43V152.61Z"/>
        <path d="M449.31,150.35,444.44,187a30.94,30.94,0,0,0-5-1,50.19,50.19,0,0,0-5-.26,43.53,43.53,0,0,0-12.25,1.7,30.33,30.33,0,0,0-10.3,5.16,25.61,25.61,0,0,0-7.13,8.69A26.81,26.81,0,0,0,402,213.6a19.43,19.43,0,0,0,1.44,7.82,14.42,14.42,0,0,0,4,5.48,16.8,16.8,0,0,0,6.17,3.21,27.55,27.55,0,0,0,7.82,1,34.43,34.43,0,0,0,6.69-.7,57.34,57.34,0,0,0,6.86-1.82,67.56,67.56,0,0,0,6.6-2.61q3.22-1.49,5.91-3l-3.47,40.83a55.22,55.22,0,0,1-7.34,3.09q-4,1.35-8.13,2.34a73.85,73.85,0,0,1-8.34,1.52,64,64,0,0,1-8,.53A51.9,51.9,0,0,1,375.11,256,52.29,52.29,0,0,1,364,239.19a53.79,53.79,0,0,1-4-20.89,90.41,90.41,0,0,1,4.26-28,68.58,68.58,0,0,1,12.51-23.07,58.58,58.58,0,0,1,20.46-15.64q12.21-5.73,28.11-5.74a81.47,81.47,0,0,1,12.29,1A40.69,40.69,0,0,1,449.31,150.35Z"/>
        <path d="M565,148.09,523.08,206l35.27,61.51L518,274.6l-26.42-37.54-1.39,39.28-36.14,1.39,2.78-133.11,40.49,2.26-3.13,39.27,26.93-41.53Z"/>
        <path d="M369,328.24a37.83,37.83,0,0,1-1.1,9.15,36,36,0,0,1-3.15,8.26,33.72,33.72,0,0,1-5,7.06,31.71,31.71,0,0,1-6.62,5.5,32.16,32.16,0,0,1-17.17,4.85,32.71,32.71,0,0,1-8.94-1.2,33.81,33.81,0,0,1-8-3.36,32,32,0,0,1-6.7-5.21,32.78,32.78,0,0,1-5.11-6.78,35.24,35.24,0,0,1-3.29-8,33.62,33.62,0,0,1-1.17-8.92,36.58,36.58,0,0,1,4.25-17.1,35.36,35.36,0,0,1,5-7.09,32.77,32.77,0,0,1,6.54-5.57,31.24,31.24,0,0,1,7.85-3.65,30,30,0,0,1,8.91-1.31,38.93,38.93,0,0,1,13.79,2.35,29.23,29.23,0,0,1,17.46,17.23A37.38,37.38,0,0,1,369,328.24Zm-23.15,1.35a14.83,14.83,0,0,0-.65-4.35,11.84,11.84,0,0,0-1.9-3.75,9.82,9.82,0,0,0-3.1-2.66,8.7,8.7,0,0,0-4.25-1,10.35,10.35,0,0,0-4.38.89,10,10,0,0,0-3.31,2.42,10.63,10.63,0,0,0-2.11,3.6,12.82,12.82,0,0,0-.73,4.35,15.76,15.76,0,0,0,.62,4.38,12.92,12.92,0,0,0,1.88,4,10,10,0,0,0,3.1,2.87,8.28,8.28,0,0,0,4.3,1.09A9.71,9.71,0,0,0,343,337.8a12,12,0,0,0,2.08-3.78A13.5,13.5,0,0,0,345.82,329.59Z"/>
        <path d="M433.71,314.79a35.42,35.42,0,0,1-.7,7.37,22.45,22.45,0,0,1-2.21,6.08,22.2,22.2,0,0,1-3.91,5.11,35.28,35.28,0,0,1-5.79,4.48l12.41,22.1-23.46,4.59-8-22.21-6.47.21-.93,21.69H372.2q.26-11.9.5-23.67t.54-23.67c.07-4,.14-8,.21-11.88s.21-7.89.42-11.89a66.89,66.89,0,0,1,14.31-3.62q3.57-.5,7.24-.68c2.45-.12,5-.18,7.54-.18a40.45,40.45,0,0,1,11.49,1.64,29.79,29.79,0,0,1,9.83,4.93,24.62,24.62,0,0,1,6.85,8.18A24.17,24.17,0,0,1,433.71,314.79Zm-23.35,1.67a12.84,12.84,0,0,0-.6-4,8.83,8.83,0,0,0-1.77-3.15,8.2,8.2,0,0,0-2.92-2.09,10.33,10.33,0,0,0-4.09-.75,15.1,15.1,0,0,0-2,.13A12.45,12.45,0,0,0,397,307l-.83,19.39h1.25a19,19,0,0,0,4.56-.57,13.72,13.72,0,0,0,4.17-1.78,9.66,9.66,0,0,0,3-3.07A8.31,8.31,0,0,0,410.36,316.46Z"/>
        <path d="M282,312.46l2.65,81L192.4,401l-4.32,181.73-80.3,8.74L97.49,402,5.26,410.25,3,328.57Z"/>
        <path d="M304.3,501.22a59.31,59.31,0,0,1-1.17,12.29,37.27,37.27,0,0,1-3.7,10.13,36.36,36.36,0,0,1-6.51,8.51,57.56,57.56,0,0,1-9.65,7.47L304,576.46l-39.1,7.65-13.38-37-10.77.35-1.57,36.15H201.77q.43-19.82.83-39.45t.91-39.45q.18-10,.35-19.81t.69-19.8a111.24,111.24,0,0,1,23.85-6q6-.82,12.08-1.13T253,457.6a66.92,66.92,0,0,1,19.15,2.74,49.66,49.66,0,0,1,16.38,8.21A41.23,41.23,0,0,1,300,482.19,40.25,40.25,0,0,1,304.3,501.22ZM265.37,504a21.24,21.24,0,0,0-1-6.69,14.8,14.8,0,0,0-2.95-5.26,13.6,13.6,0,0,0-4.86-3.47,17.13,17.13,0,0,0-6.83-1.26,26.79,26.79,0,0,0-3.38.21,24.17,24.17,0,0,0-3.22.66l-1.39,32.32h2.09a31.47,31.47,0,0,0,7.6-1,22.57,22.57,0,0,0,6.95-2.95,16.24,16.24,0,0,0,5-5.13A13.81,13.81,0,0,0,265.37,504Z"/>
        <path d="M392.57,459.69q-.51,8.16-.95,16.16T390.49,492l-36.84,1.91-.87,10.95h25.89l-1.91,26.93-26.06.87-.87,12.69h36.84q-.53,9.55-1.09,19t-1,18.9L309.69,585l2.78-125.29Z"/>
        <path d="M505.09,577.5,462,583.07l-5.22-19.64H437l-4.34,19.64-44.31-4.35L422.9,463l48.31-2.43Zm-51.44-40.66-6.6-30.23-6.43,30.23Z"/>
        <path d="M588.5,460.73l-.87,36.84-25.89,1L555.14,581l-36.67,1.91.17-82.37-25.89,1.39,1.05-41Z"/>
      </g>
    </g>
  </g>
</svg>
