<svg xmlns="http://www.w3.org/2000/svg" width="1920" height="1080" viewBox="0 0 1920 1080">
  <defs>
    <style>
      .cls-1 {
        fill: #020207;
      }

      .cls-2 {
        fill: #080816;
      }

      .cls-3 {
        fill: #0d0d21;
      }

      .cls-4 {
        fill: #14142d;
      }

      .cls-5 {
        fill: #1a1a35;
      }

      .cls-6 {
        fill: #222242;
      }

      .cls-7 {
        fill: #292951;
      }

      .cls-8 {
        fill: #bfbfb0;
        opacity: 0.36;
      }

      .cls-9 {
        fill: #f5ffae;
      }

      .cls-10 {
        fill: #333;
      }

      .cls-11 {
        stroke: #000;
        stroke-miterlimit: 10;
      }

      .cls-12 {
        fill: #fffdcf;
      }

      .cls-13 {
        fill: none;
      }

      .cls-14 {
        fill: #007033;
      }

      .cls-15 {
        fill: #00592a;
      }

      .cls-16 {
        fill: #0f0f0f;
      }

      .cls-17 {
        fill: #1a1a1a;
      }

      .cls-18 {
        fill: #f15a24;
      }
    </style>
  </defs>
  <g id="Backgrounds">
    <rect class="cls-1" width="1920" height="828"/>
    <circle class="cls-2" cx="960" cy="408.49" r="967.49"/>
    <circle class="cls-3" cx="960" cy="408.49" r="847.49"/>
    <circle class="cls-4" cx="960" cy="408.49" r="718.49"/>
    <circle class="cls-5" cx="960" cy="408.49" r="602.49"/>
    <circle class="cls-6" cx="960" cy="408.49" r="495.49"/>
    <circle class="cls-7" cx="960" cy="408.49" r="389"/>
    <circle class="cls-8" cx="960" cy="408.49" r="298"/>
    <circle class="cls-9" cx="960" cy="408.49" r="211"/>
    <path class="cls-10" d="M1022.24,239.91c-8.58-13.75-22.37-21.52-34.59-20.74l-.34-.54a14.7,14.7,0,0,0,1-2,15,15,0,0,0,1.25-6.32c.3-.07.6-.14.9-.23,3.92-1.16,6.73-4,7.22-6.82-2-2.14-5.85-2.95-9.77-1.79a9.52,9.52,0,0,0-1.1.39,15.36,15.36,0,0,0-1.63-2s-1.13-1.08-1.75-1.57a11.64,11.64,0,0,0,.45-1.08c1.37-3.85.77-7.76-1.27-9.85-2.89.34-5.82,3-7.19,6.84-.11.3-.2.59-.28.89a15.07,15.07,0,0,0-6.38.91,14.24,14.24,0,0,0-2,.93l-.52-.37c1.43-12.16-5.59-26.35-18.87-35.64-11.61-8.13-25.1-10.48-35.61-7.25,8.64,10.79,11.31,24,6.23,34.1a15.19,15.19,0,0,1,12.39,23.89c-.24.34-.49.68-.75,1h0a46.44,46.44,0,0,1,4.94,5.16c.93,1.11,1.93,2.38,2.95,3.82,3.62,5.1,2.41,21,2.41,21l.7,0c3.08-.05,15.54,0,20.44,3.87,1.38,1.1,2.6,2.16,3.66,3.15a45,45,0,0,1,4.89,5.21h0v0c.33-.24.68-.48,1-.7a15.18,15.18,0,0,1,23.19,13.65c10.35-4.54,23.41-1.17,33.73,8C1031.36,265.54,1029.73,251.94,1022.24,239.91Z"/>
    <path class="cls-11" d="M1751.5,645.34s-3,5,1,15c11.49,25.1-10.51,37.7-22,50-1,2,3-5.48,10-13,14-15,11-38,7-40s-8-4-9,0,5-7,5-7Z"/>
    <path class="cls-11" d="M1744.5,693.42c-22.85,4.22-35.89,5.13-51-12.08,5.15,6.71,5.94,14,19,17,8.63.48,25.24,1.12,28-1Z"/>
    <path class="cls-11" d="M1722.5,698.34c-3.57-3.22-7.22,18.4-8,21-2,7-2,8-7,15s0-9,1-10c2.66-2.67,8.36-22.23,5.45-25.82-1.45-1.18-4.2-3.9-4.2-3.9Z"/>
    <path class="cls-11" d="M1738.5,657.34c8.17,9.27-34,3.65-40,24a21.78,21.78,0,0,1,11-8c7-2,17-5,20-6s5.12,2.42,5.12,2.42Z"/>
    <g>
      <ellipse class="cls-12" cx="1810.53" cy="45.49" rx="1.69" ry="15.49"/>
      <ellipse class="cls-12" cx="1810.53" cy="45.49" rx="15.49" ry="1.69"/>
    </g>
    <g>
      <ellipse class="cls-12" cx="1498.53" cy="432.49" rx="1.69" ry="15.49"/>
      <ellipse class="cls-12" cx="1498.53" cy="432.49" rx="15.49" ry="1.69"/>
    </g>
    <g>
      <ellipse class="cls-12" cx="562.53" cy="790.49" rx="1.69" ry="15.49"/>
      <ellipse class="cls-12" cx="562.53" cy="790.49" rx="15.49" ry="1.69"/>
    </g>
    <g>
      <ellipse class="cls-12" cx="1410.53" cy="681.49" rx="1.69" ry="15.49"/>
      <ellipse class="cls-12" cx="1410.53" cy="681.49" rx="15.49" ry="1.69"/>
    </g>
    <g>
      <ellipse class="cls-12" cx="1872.53" cy="221.49" rx="1.69" ry="15.49"/>
      <ellipse class="cls-12" cx="1872.53" cy="221.49" rx="15.49" ry="1.69"/>
    </g>
    <g>
      <ellipse class="cls-12" cx="707.53" cy="53.49" rx="1.69" ry="15.49"/>
      <ellipse class="cls-12" cx="707.53" cy="53.49" rx="15.49" ry="1.69"/>
    </g>
    <g>
      <ellipse class="cls-12" cx="1038.53" cy="19.49" rx="1.69" ry="15.49"/>
      <ellipse class="cls-12" cx="1038.53" cy="19.49" rx="15.49" ry="1.69"/>
    </g>
    <g>
      <ellipse class="cls-12" cx="203.53" cy="106.49" rx="1.69" ry="15.49"/>
      <ellipse class="cls-12" cx="203.53" cy="106.49" rx="15.49" ry="1.69"/>
    </g>
    <g>
      <ellipse class="cls-12" cx="1395.53" cy="327.49" rx="1.69" ry="15.49"/>
      <ellipse class="cls-12" cx="1395.53" cy="327.49" rx="15.49" ry="1.69"/>
    </g>
    <g>
      <ellipse class="cls-12" cx="1600.53" cy="135.49" rx="0.84" ry="7.69" transform="translate(372.98 1171.43) rotate(-45)"/>
      <ellipse class="cls-12" cx="1600.53" cy="135.49" rx="7.69" ry="0.84" transform="translate(372.98 1171.43) rotate(-45)"/>
    </g>
    <g>
      <ellipse class="cls-12" cx="88.53" cy="283.49" rx="0.84" ry="7.69" transform="translate(-174.53 145.63) rotate(-45)"/>
      <ellipse class="cls-12" cx="88.53" cy="283.49" rx="7.69" ry="0.84" transform="translate(-174.53 145.63) rotate(-45)"/>
    </g>
    <g>
      <ellipse class="cls-12" cx="70.53" cy="461.49" rx="0.84" ry="7.69" transform="translate(-305.66 185.04) rotate(-45)"/>
      <ellipse class="cls-12" cx="70.53" cy="461.49" rx="7.69" ry="0.84" transform="translate(-305.66 185.04) rotate(-45)"/>
    </g>
    <g>
      <ellipse class="cls-12" cx="378.53" cy="540.49" rx="0.84" ry="7.69" transform="translate(-271.31 425.97) rotate(-45)"/>
      <ellipse class="cls-12" cx="378.53" cy="540.49" rx="7.69" ry="0.84" transform="translate(-271.31 425.97) rotate(-45)"/>
    </g>
    <g>
      <ellipse class="cls-12" cx="378.53" cy="710.49" rx="0.84" ry="7.69" transform="translate(-391.52 475.76) rotate(-45)"/>
      <ellipse class="cls-12" cx="378.53" cy="710.49" rx="7.69" ry="0.84" transform="translate(-391.52 475.76) rotate(-45)"/>
    </g>
    <g>
      <ellipse class="cls-12" cx="646.53" cy="525.49" rx="0.84" ry="7.69" transform="translate(-182.21 611.08) rotate(-45)"/>
      <ellipse class="cls-12" cx="646.53" cy="525.49" rx="7.69" ry="0.84" transform="translate(-182.21 611.08) rotate(-45)"/>
    </g>
    <g>
      <ellipse class="cls-12" cx="1316.53" cy="525.49" rx="0.84" ry="7.69" transform="translate(14.03 1084.84) rotate(-45)"/>
      <ellipse class="cls-12" cx="1316.53" cy="525.49" rx="7.69" ry="0.84" transform="translate(14.03 1084.84) rotate(-45)"/>
    </g>
    <g>
      <ellipse class="cls-12" cx="59.53" cy="35.49" rx="0.84" ry="7.69" transform="translate(-7.66 52.49) rotate(-45)"/>
      <ellipse class="cls-12" cx="59.53" cy="35.49" rx="7.69" ry="0.84" transform="translate(-7.66 52.49) rotate(-45)"/>
    </g>
    <g>
      <ellipse class="cls-12" cx="1255.53" cy="53.49" rx="1.38" ry="12.64" transform="translate(6.82 194.72) rotate(-8.89)"/>
      <ellipse class="cls-12" cx="1255.53" cy="53.49" rx="12.64" ry="1.38" transform="translate(6.82 194.72) rotate(-8.89)"/>
    </g>
    <g>
      <ellipse class="cls-12" cx="1526.53" cy="98.49" rx="1.38" ry="12.64" transform="translate(3.12 237.15) rotate(-8.89)"/>
      <ellipse class="cls-12" cx="1526.53" cy="98.49" rx="12.64" ry="1.38" transform="translate(3.12 237.15) rotate(-8.89)"/>
    </g>
    <g>
      <ellipse class="cls-12" cx="585.53" cy="45.49" rx="13.86" ry="1.51" transform="translate(402.27 603.46) rotate(-76.26)"/>
      <ellipse class="cls-12" cx="585.53" cy="45.49" rx="1.51" ry="13.86" transform="translate(402.27 603.46) rotate(-76.26)"/>
    </g>
    <g>
      <ellipse class="cls-12" cx="570.53" cy="353.49" rx="13.86" ry="1.51" transform="translate(91.64 823.73) rotate(-76.26)"/>
      <ellipse class="cls-12" cx="570.53" cy="353.49" rx="1.51" ry="13.86" transform="translate(91.64 823.73) rotate(-76.26)"/>
    </g>
    <g>
      <ellipse class="cls-12" cx="188.53" cy="427.49" rx="13.86" ry="1.51" transform="translate(-271.5 509.09) rotate(-76.26)"/>
      <ellipse class="cls-12" cx="188.53" cy="427.49" rx="1.51" ry="13.86" transform="translate(-271.5 509.09) rotate(-76.26)"/>
    </g>
    <g>
      <ellipse class="cls-12" cx="508.53" cy="645.49" rx="13.86" ry="1.51" transform="translate(-239.27 986.15) rotate(-76.26)"/>
      <ellipse class="cls-12" cx="508.53" cy="645.49" rx="1.51" ry="13.86" transform="translate(-239.27 986.15) rotate(-76.26)"/>
    </g>
    <g>
      <ellipse class="cls-12" cx="1713.53" cy="485.49" rx="13.86" ry="1.51" transform="translate(834.93 2034.67) rotate(-76.26)"/>
      <ellipse class="cls-12" cx="1713.53" cy="485.49" rx="1.51" ry="13.86" transform="translate(834.93 2034.67) rotate(-76.26)"/>
    </g>
    <g>
      <ellipse class="cls-12" cx="1157.53" cy="653.49" rx="13.86" ry="1.51" transform="translate(247.8 1622.67) rotate(-76.26)"/>
      <ellipse class="cls-12" cx="1157.53" cy="653.49" rx="1.51" ry="13.86" transform="translate(247.8 1622.67) rotate(-76.26)"/>
    </g>
    <g>
      <ellipse class="cls-12" cx="1887.53" cy="633.49" rx="13.86" ry="1.51" transform="translate(823.84 2316.53) rotate(-76.26)"/>
      <ellipse class="cls-12" cx="1887.53" cy="633.49" rx="1.51" ry="13.86" transform="translate(823.84 2316.53) rotate(-76.26)"/>
    </g>
    <g>
      <ellipse class="cls-12" cx="103.53" cy="669.49" rx="13.86" ry="1.51" transform="translate(-571.39 611.04) rotate(-76.26)"/>
      <ellipse class="cls-12" cx="103.53" cy="669.49" rx="1.51" ry="13.86" transform="translate(-571.39 611.04) rotate(-76.26)"/>
    </g>
    <g>
      <ellipse class="cls-12" cx="946.53" cy="94.49" rx="3.57" ry="0.39" transform="translate(629.92 991.49) rotate(-76.26)"/>
      <ellipse class="cls-12" cx="946.53" cy="94.49" rx="0.39" ry="3.57" transform="translate(629.92 991.49) rotate(-76.26)"/>
    </g>
    <g>
      <ellipse class="cls-12" cx="614.53" cy="138.49" rx="3.57" ry="0.39" transform="translate(334.04 702.54) rotate(-76.26)"/>
      <ellipse class="cls-12" cx="614.53" cy="138.49" rx="0.39" ry="3.57" transform="translate(334.04 702.54) rotate(-76.26)"/>
    </g>
    <g>
      <ellipse class="cls-12" cx="427.53" cy="411.49" rx="3.57" ry="0.39" transform="translate(-73.73 729.05) rotate(-76.26)"/>
      <ellipse class="cls-12" cx="427.53" cy="411.49" rx="0.39" ry="3.57" transform="translate(-73.73 729.05) rotate(-76.26)"/>
    </g>
    <g>
      <ellipse class="cls-12" cx="837.53" cy="184.49" rx="0.49" ry="4.52" transform="translate(-18.45 131.68) rotate(-8.89)"/>
      <ellipse class="cls-12" cx="837.53" cy="184.49" rx="4.52" ry="0.49" transform="translate(-18.45 131.68) rotate(-8.89)"/>
    </g>
    <g>
      <ellipse class="cls-12" cx="381.53" cy="53.49" rx="0.49" ry="4.52" transform="translate(-3.68 59.62) rotate(-8.89)"/>
      <ellipse class="cls-12" cx="381.53" cy="53.49" rx="4.52" ry="0.49" transform="translate(-3.68 59.62) rotate(-8.89)"/>
    </g>
    <g>
      <ellipse class="cls-12" cx="493.53" cy="160.49" rx="0.49" ry="4.52" transform="translate(-18.88 78.22) rotate(-8.89)"/>
      <ellipse class="cls-12" cx="493.53" cy="160.49" rx="4.52" ry="0.49" transform="translate(-18.88 78.22) rotate(-8.89)"/>
    </g>
    <g>
      <ellipse class="cls-12" cx="342.53" cy="312.49" rx="0.49" ry="4.52" transform="translate(-44.19 56.7) rotate(-8.89)"/>
      <ellipse class="cls-12" cx="342.53" cy="312.49" rx="4.52" ry="0.49" transform="translate(-44.19 56.7) rotate(-8.89)"/>
    </g>
    <g>
      <ellipse class="cls-12" cx="1338.53" cy="184.49" rx="0.49" ry="4.52" transform="translate(-12.43 209.13) rotate(-8.89)"/>
      <ellipse class="cls-12" cx="1338.53" cy="184.49" rx="4.52" ry="0.49" transform="translate(-12.43 209.13) rotate(-8.89)"/>
    </g>
    <g>
      <ellipse class="cls-12" cx="1643.53" cy="316.49" rx="0.49" ry="4.52" transform="translate(-29.17 257.86) rotate(-8.89)"/>
      <ellipse class="cls-12" cx="1643.53" cy="316.49" rx="4.52" ry="0.49" transform="translate(-29.17 257.86) rotate(-8.89)"/>
    </g>
    <g>
      <ellipse class="cls-12" cx="1857.53" cy="408.49" rx="0.49" ry="4.52" transform="translate(-40.82 292.05) rotate(-8.89)"/>
      <ellipse class="cls-12" cx="1857.53" cy="408.49" rx="4.52" ry="0.49" transform="translate(-40.82 292.05) rotate(-8.89)"/>
    </g>
    <rect class="cls-13" width="1918" height="1079"/>
    <path class="cls-14" d="M1955.92,716.37s-130-96.77-258.59-76.07S1468.66,766.81,1365.2,784.91,1164.32,718,1068.54,696s-257.77-11.32-362.28,74.34S459.63,873.43,385,839,121.49,728.27-12.88,745.13l-16.29,12.38,41.42,420.27,233.5,8.22,1688-72.12Z"/>
    <path class="cls-15" d="M-34.17,885.37s130-96.77,258.59-76.07S453.1,935.81,556.55,953.91,757.43,887,853.22,865s257.76-11.32,362.27,74.34S1553.37,1110.43,1628,1076s172.26-178.73,306.63-161.87l16.29,12.38-41.42,420.27L1676,1355-12,1282.88Z"/>
    <g>
      <ellipse class="cls-12" cx="1461.26" cy="233.01" rx="0.84" ry="7.69" transform="translate(263.23 1101.52) rotate(-45)"/>
      <ellipse class="cls-12" cx="1461.26" cy="233.01" rx="7.69" ry="0.84" transform="translate(263.23 1101.52) rotate(-45)"/>
    </g>
    <g>
      <path class="cls-16" d="M-37.55,926.14c9.39,0,96.42,25.6,131.4,34.13s90.44,20.48,108.36,16.21,85.33-17.92,94.71-23.89,57.17-20.48,57.17-20.48S309.72,965.39,291,972.22,175.76,997,142.48,997.81,50.34,983.31,24.74,979s-52.9-1.71-60.58.85S-37.55,926.14-37.55,926.14Z"/>
      <path class="cls-16" d="M268.76,973.07s48.64-2.56,68.26,14.5,42.67,23,51.2,26.45,29,19.63,29,19.63-49.49.85-74.23-17.07-79.89-33.94-79.89-33.94l-29.33-2.75Z"/>
      <path class="cls-16" d="M331.05,991.84s14.51,1.71,34.13-18.77,31.57-30.72,32.42-47.78,4.27-37.55,4.27-37.55S407,915.05,407,921.87s-4.27,29-14.51,43.52-17.91,14.5-23.89,29.86-6,22.19-6,22.19Z"/>
      <path class="cls-16" d="M401.87,933.82s4.27-3.41,22.18,10.24,19.63,24.74,26.45,34.13,9.39,24.74,11.1,28.15-17.07-22.18-29-33.27S413,960.27,407,960.27s-19.63,3.41-19.63,3.41Z"/>
      <path class="cls-16" d="M58.56,953.42s8,2.58,26.76-19.6,40.1-68.26,40.1-68.26,1.71-49.49-1.71-66.55-12.79-53.76-12.79-53.76,19.62,20.48,22.18,44.37,10.24,41.81,5.12,58.88-.85,22.18-9.39,41-11.09,21.33-15.36,41-10.6,23.74-2.31,37S122.86,985,122.86,985Z"/>
      <path class="cls-16" d="M126.36,898.49s44.28-34.64,46-44S186,812.66,186,802.42V717.1s11.09,31.57,8.53,55.46,0,46.07-6,68.26-12.8,32.42-29.86,46.07-13.66,12.8-29.87,25.6-21.33,16.21-24.74,27.3,5.12-33.27,5.12-33.27Z"/>
      <path class="cls-16" d="M183.44,848.5s9.39-15.36,35,4.26,33.28,34.13,46.08,43.52,43.51,15.36,46.93,15.36-3.42,6.82-22.19,6.82-33.27-3.41-49.49-16.21S221.84,875.8,209,872.39,188.56,869,177.47,875a98.41,98.41,0,0,1-23.89,8.53L180,856.18Z"/>
    </g>
    <g>
      <rect class="cls-17" x="11.23" y="909.97" width="37.59" height="59.79" rx="10.14"/>
      <path class="cls-17" d="M30.26,816h27A34.17,34.17,0,0,1,89.8,860.68L67.25,930.47h0c-11.6,35.89-62.38,35.89-74,0h0l-22.56-69.79C-37.22,836.11-22.59,816,3.24,816Z"/>
      <g>
        <path class="cls-17" d="M8.5,798,3,803.5a3.25,3.25,0,0,1-5.19-.82l-7-13.66-4.44-8.68A3.26,3.26,0,0,1-9.2,776l8.67,4.44,13.66,7a3.06,3.06,0,0,1,.82,5.19Z"/>
        <path class="cls-17" d="M51.55,798,57,803.5a3.25,3.25,0,0,0,5.19-.82l7-13.66,4.44-8.68A3.26,3.26,0,0,0,69.25,776l-8.68,4.44-13.66,7a3.06,3.06,0,0,0-.81,5.19Z"/>
      </g>
      <circle class="cls-17" cx="30.02" cy="816" r="41"/>
    </g>
    <g>
      <path class="cls-11" d="M1928.77,971.91s-147.43,107.66-172.8,111.48c-26.91,4-63.24,11.36-98.74,19.59-3.52-1.4-8.22-3.38-14.53-6.19-27.59-12.28-47.92-20.1-56.64-32.38s-29-27.91-29-27.91c-3.45-1.35-36.34-13.85-43.56-11.17,0,0-4.36-1.12,14.52,6.7,4,1.67,7.29,2.94,10,4,.58.83.81,2.64.15,7.15-1.45,10,1.46,10-10.16,16.75a82.24,82.24,0,0,0-10.37,5.19c-23,4-59.62-3.54-70.95,9.33-7.26,7.82-16,16.75-16,16.75,4-3.59,15.08-10.85,26.79-15.6,5,4.64,0,11-2.1,21.18a14.23,14.23,0,0,0-.16,1.56c-1.07,1.56-2.82,4.14-5.65,8.49-8.71,13.4-13.07,11.17-17.42,22.33s-2.91,15.63-2.91,20.1,1.45-8.93,7.26-17.86,5.81-12.29,13.07-15.64c6.78-3.12,6-6.35,9.37-4.9a62.93,62.93,0,0,1,5.15,11.6c2.91,10,2.91,15.63,2.91,15.63s1.45-23.44-2.91-30.14c-4.69-4.92,2.5-30.44,5.37-36.08a35.08,35.08,0,0,1,7.7-.77c10.06-.23,23.92-1.61,30.26,1.39-6.75,6-11.1,12.91-11.38,19.83,0,4.46,0,4.46,13.07-10s17.43-11.17,26.14-21.22,7.26-13.4,14.52-13.4a25.78,25.78,0,0,1,8.58,1.7l1.59,1.65c11.61,12.28,11.61,17.87,23.23,25.68s13.07,8.93,20.33,16.75,13.07,5.58,11.62,15.63a35.41,35.41,0,0,1-.95,4.48c-32.49,8.46-60.07,16.87-73,23-13-5.6-28.3-19.87-30.61-23-9.29-13.75-28.47-14-40.66-11.17,8.72,1.47,21.16,6.46,31.29,12.92,1.65,7.19,4.06,6.86-11,20.58-7.26,7.82-5.81,11.17-16,23.45s-14.52,14.52-14.52,14.52,23.23-11.17,26.14-19,11.61-12.28,20.33-23.44c3.6-4.62,6.21-5.5,7.89-5.37a28,28,0,0,1,2.27,3.13c5.81,7.82,8.71,7.82,7.26,15.63a19.29,19.29,0,0,0-.39,2c-8.7,5.46-14.39,10-15.93,13.36-1.22,2.69,9.06-.87,65.7-18.74,5.23-1.65,11.12-3.3,17.5-5,17.69,22.59,1.43,10.51-11.21,54.54-1.46.51-4.39,1.07-22.27-.46-26.14-2.23-43.56,5.59-52.28,0s-16-5.58-14.52-4.46c3.93,7,9.44,10.65,17.6,12.2-25.7,13.25-44.8-3.82-53.58-16.48-1.46-1.11-2.91,6.7,8.71,14.52s16,16.75,27.59,15.63,14.52-5.58,24.69-8.93a69.16,69.16,0,0,0,9.62-4c2.79-.14,5.75-.36,8.94-.66,18.88-1.12,30.49-4.47,34.85,1.12a65.91,65.91,0,0,1,4.82,7.29c-13.12,14.9-55.4,20.17-65.81,21.74,15.91,6,40.81,5.15,62.44-10,18.88-11.17,29-15.63,33.4-38s10.17-23.45,20.33-41.32c3.86-6.78,6.46-10.34,8.2-12.15,20.14-4.14,41.63-8.13,61.79-11.79,4.63,7.4,6.17,17.32,6.46,27.85-1.67,1.6-3.86,3.61-6.75,6.14-20.33,17.87-29,20.1-37.75,30.15-7.57,8.72-14,14.92-16.56,21.52-14.12,3.25-47,4.73-53.15,20.91a31.66,31.66,0,0,1,16-8.93c10.16-2.24,24.68-5.59,29-6.7a7.15,7.15,0,0,1,6.33,1.63c-1.81,6.36-4.63,12-3.42,12.88s7.67-18.15,15.8-28.08a45.31,45.31,0,0,1,7.43,2.4c5.35,2.06,9.44,24-5.77,40.49-32.31,4.54-51,5.25-72.65-13.69,7.49,7.49,8.62,15.63,27.59,19l1.92.08.19.12c4.23,4-4.06,25.85-7.91,28.83-1.46,1.12-8.72,19-1.46,11.17s7.26-8.93,10.17-16.75c.94-2.4,4.72-19.26,8.92-23,12.09.3,25.89.22,28.84-1.52a106.61,106.61,0,0,0-14.22,14.27c16.77-13.65,48.22-27.72,31.64-55.58-4.16-8-3.11-13.11-2.17-15.38,14.3-11.27,18.69-24.12,37.27-13.78-.12,2.73-.21,5.39-.25,8-1.45,19-8.71,32.38-23.23,58.06-5.13,9.07-9.23,29.47-7.26,31.26,3.6,3.29,33.4-41.31,42.11-58.06,3.47-6.67,6.93-25.89,9.85-46.62,2.25-2.09,4.91-4.41,7.58-7,5.8-5.58,10.16-3.35,24.68-3.35a27,27,0,0,1,7.21,1,108.57,108.57,0,0,0,10.22,7.89c13.07,8.93,8.71,6.7,11.61,14.51,1.78,2.92,3.23,5.58,4.43,8l-1-1.18c-19.42-8.34-27.69,32.1-41.2,32.21-10.17,3.35-29,13.4-29,13.4l-7.26,8.93s17.42-8.93,31.94-14.51,20.33-14.52,26.14-20.1c11.36-15.73,14.75-7.94,24.59-6.63,2.71,16.52-11.91,21.36-18.78,42.36,11.83-13.19,46.45-39.57,29-59.18a137,137,0,0,1-10.67-13,53.73,53.73,0,0,0,9.22,1.86c20.33,2.23,110.36-15.64,110.36-15.64s-39.38,1.52-70.92,1.83c-12.57-5.68-13.87-25.66-7.49-36.44,4.35-8.93,4.35-22.33,13.07-26.8s17.42-11.16,16-11.16c-28.25,9.29-36.8,20.17-42.11,44.66,0,5.58-1.45,8.93-4.36,15.63s0,8.93-4.35,11.17a27.17,27.17,0,0,0-3.8,2.43c-.74-.06-1.41-.13-2-.2-18.88-2.23-33.4-11.17-62.45-23.45-8.24-3.48-13.08-5.35-15.84-6.23.56-5.09,1.05-9.74,1.45-13.69,9.08-1.67,17.39-3.22,24.56-4.64,20-4,136.17-54,171.35-82.45C1966.92,986.68,1928.77,971.91,1928.77,971.91Z"/>
      <path class="cls-11" d="M1638.84,1018l-.31.25C1638.15,1018.81,1638.28,1018.66,1638.84,1018Z"/>
    </g>
    <g>
      <g>
        <path class="cls-18" d="M950.56,248.54l2.65,81-92.27,7.49L856.63,518.8l-80.3,8.74-9.81-180.95-92.24,8.26-2.78-90.21Z"/>
        <path class="cls-18" d="M972.84,437.3a59.45,59.45,0,0,1-1.17,12.29,37.21,37.21,0,0,1-3.7,10.12,36.41,36.41,0,0,1-6.51,8.52,58.09,58.09,0,0,1-9.65,7.47l20.68,36.84-39.1,7.64-13.38-37-10.77.35-1.56,36.14H870.32q.42-19.8.82-39.44t.91-39.45q.18-10,.35-19.81t.7-19.81a113.37,113.37,0,0,1,12-3.73A110.8,110.8,0,0,1,897,395.11q5.94-.83,12.07-1.13t12.56-.3a67,67,0,0,1,19.16,2.74,49.7,49.7,0,0,1,16.37,8.21,41.13,41.13,0,0,1,11.43,13.64A40.22,40.22,0,0,1,972.84,437.3Zm-38.92,2.78a21.44,21.44,0,0,0-1-6.69,14.82,14.82,0,0,0-3-5.26,13.5,13.5,0,0,0-4.86-3.48,17.25,17.25,0,0,0-6.82-1.26,26.81,26.81,0,0,0-3.39.22,24.48,24.48,0,0,0-3.22.65l-1.39,32.32h2.09a31.45,31.45,0,0,0,7.6-.95,22.59,22.59,0,0,0,6.95-3,16.31,16.31,0,0,0,5-5.12A13.86,13.86,0,0,0,933.92,440.08Z"/>
        <path class="cls-18" d="M1025.75,398.72l-9.55,118.34L979.53,519V401.15Z"/>
        <path class="cls-18" d="M1117.85,398.89,1113,435.56a32.17,32.17,0,0,0-5-1,50,50,0,0,0-5-.26,43.58,43.58,0,0,0-12.25,1.7,30.35,30.35,0,0,0-10.3,5.17,25.34,25.34,0,0,0-7.12,8.68,26.69,26.69,0,0,0-2.65,12.26A19.5,19.5,0,0,0,1072,470a14.56,14.56,0,0,0,4,5.47,16.8,16.8,0,0,0,6.17,3.21,27.55,27.55,0,0,0,7.82,1.05,33.67,33.67,0,0,0,6.69-.7,57.34,57.34,0,0,0,6.86-1.82,66.24,66.24,0,0,0,6.61-2.61c2.14-1,4.11-2,5.9-3l-3.47,40.84a56.56,56.56,0,0,1-7.34,3.08q-4,1.35-8.13,2.35a78.6,78.6,0,0,1-8.34,1.52,65.91,65.91,0,0,1-8,.52,51.94,51.94,0,0,1-37.19-15.29,52.44,52.44,0,0,1-11.08-16.82,53.79,53.79,0,0,1-4-20.89,90.41,90.41,0,0,1,4.26-28,68.58,68.58,0,0,1,12.51-23.07,58.7,58.7,0,0,1,20.46-15.64q12.21-5.73,28.11-5.74a81.7,81.7,0,0,1,12.3,1A41,41,0,0,1,1117.85,398.89Z"/>
        <path class="cls-18" d="M1233.5,396.63l-41.88,57.87L1226.89,516l-40.31,7.13-26.42-37.54-1.39,39.28-36.14,1.39,2.78-133.11,40.49,2.26-3.13,39.27,26.94-41.53Z"/>
        <path class="cls-18" d="M1037.51,576.78a37.83,37.83,0,0,1-1.1,9.15,36,36,0,0,1-3.15,8.26,34,34,0,0,1-5,7.06,32.09,32.09,0,0,1-23.8,10.35,32.71,32.71,0,0,1-8.94-1.2,33.81,33.81,0,0,1-7.95-3.36,32,32,0,0,1-6.7-5.21,32.52,32.52,0,0,1-5.11-6.78,34.59,34.59,0,0,1-3.28-8,33.22,33.22,0,0,1-1.18-8.92,36.58,36.58,0,0,1,4.25-17.1,35.36,35.36,0,0,1,5-7.09,33.05,33.05,0,0,1,6.54-5.57,31.24,31.24,0,0,1,7.85-3.65,30,30,0,0,1,8.91-1.31,38.93,38.93,0,0,1,13.79,2.35A29.21,29.21,0,0,1,1035.09,563,37.58,37.58,0,0,1,1037.51,576.78Zm-23.15,1.35a14.51,14.51,0,0,0-.65-4.35,11.84,11.84,0,0,0-1.9-3.75,9.82,9.82,0,0,0-3.1-2.66,8.68,8.68,0,0,0-4.25-1,10.35,10.35,0,0,0-4.38.89,10,10,0,0,0-3.31,2.42,10.63,10.63,0,0,0-2.11,3.6,12.82,12.82,0,0,0-.73,4.35,16.14,16.14,0,0,0,.62,4.38,13.15,13.15,0,0,0,1.88,4,10,10,0,0,0,3.1,2.87,8.29,8.29,0,0,0,4.3,1.1,9.76,9.76,0,0,0,7.72-3.58,11.76,11.76,0,0,0,2.08-3.78A13.5,13.5,0,0,0,1014.36,578.13Z"/>
        <path class="cls-18" d="M1102.26,563.33a35.38,35.38,0,0,1-.71,7.37,22.45,22.45,0,0,1-2.21,6.08,22.2,22.2,0,0,1-3.91,5.11,34.74,34.74,0,0,1-5.79,4.48l12.41,22.1-23.46,4.59-8-22.21-6.46.21-.94,21.69h-22.42q.26-11.89.5-23.67t.54-23.67q.1-6,.21-11.88t.42-11.89a66.89,66.89,0,0,1,14.31-3.62q3.57-.49,7.25-.68t7.53-.18A40.45,40.45,0,0,1,1083,538.8a30,30,0,0,1,9.83,4.93,24.75,24.75,0,0,1,6.86,8.18A24.17,24.17,0,0,1,1102.26,563.33ZM1078.9,565a12.84,12.84,0,0,0-.6-4,8.92,8.92,0,0,0-1.77-3.15,8.2,8.2,0,0,0-2.92-2.09,10.3,10.3,0,0,0-4.09-.75,15.1,15.1,0,0,0-2,.13,12.09,12.09,0,0,0-1.92.39l-.84,19.39H1066a19,19,0,0,0,4.56-.57,13.46,13.46,0,0,0,4.17-1.77,9.79,9.79,0,0,0,3-3.08A8.28,8.28,0,0,0,1078.9,565Z"/>
        <path class="cls-18" d="M950.56,561l2.65,81-92.27,7.5-4.31,181.73L776.33,840,766,650.53l-92.24,8.26-2.3-81.68Z"/>
        <path class="cls-18" d="M972.84,749.76a59.48,59.48,0,0,1-1.17,12.3,37.33,37.33,0,0,1-3.7,10.12,36.16,36.16,0,0,1-6.51,8.51,57.56,57.56,0,0,1-9.65,7.47L972.49,825l-39.1,7.65-13.38-37-10.77.34-1.56,36.15H870.32q.42-19.82.82-39.45t.91-39.44q.18-10,.35-19.81t.7-19.81a111.24,111.24,0,0,1,23.85-6q5.94-.83,12.07-1.13t12.56-.31a67.39,67.39,0,0,1,19.16,2.74,49.9,49.9,0,0,1,16.37,8.21,41.23,41.23,0,0,1,11.43,13.64A40.25,40.25,0,0,1,972.84,749.76Zm-38.92,2.78a21.54,21.54,0,0,0-1-6.69,14.82,14.82,0,0,0-3-5.26,13.6,13.6,0,0,0-4.86-3.47,17.08,17.08,0,0,0-6.82-1.26,25.07,25.07,0,0,0-3.39.22,23,23,0,0,0-3.22.65l-1.39,32.32h2.09a31.47,31.47,0,0,0,7.6-1,22.57,22.57,0,0,0,6.95-3,16.24,16.24,0,0,0,5-5.13A13.81,13.81,0,0,0,933.92,752.54Z"/>
        <path class="cls-18" d="M1061.12,708.23q-.52,8.16-1,16.16T1059,740.55l-36.84,1.91-.87,10.95h25.89l-1.91,26.93-26.06.87-.87,12.69h36.84q-.53,9.55-1.09,19t-1,18.9l-74.89,1.74L981,708.23Z"/>
        <path class="cls-18" d="M1173.63,826.05l-43.09,5.56L1125.32,812h-19.81l-4.34,19.64-44.31-4.35,34.58-115.73,48.31-2.43Zm-51.43-40.67-6.61-30.23-6.43,30.23Z"/>
        <path class="cls-18" d="M1257,709.27l-.87,36.84-25.89,1-6.6,82.37L1187,831.43l.18-82.36-25.9,1.39,1-41Z"/>
      </g>
      <g>
        <path d="M942,240l2.65,81-92.27,7.49-4.32,181.74L767.78,519,758,338.05l-92.23,8.26L663,256.1Z"/>
        <path d="M964.3,428.76a59.45,59.45,0,0,1-1.17,12.29,37.21,37.21,0,0,1-3.7,10.12,36.41,36.41,0,0,1-6.51,8.52,58.63,58.63,0,0,1-9.65,7.47L964,504l-39.1,7.64-13.38-37L900.7,475l-1.57,36.14H861.77q.43-19.8.83-39.44t.91-39.45q.18-10,.35-19.81t.69-19.81a116.61,116.61,0,0,1,12-3.74,114.3,114.3,0,0,1,11.86-2.3q6-.82,12.08-1.13t12.56-.3a66.92,66.92,0,0,1,19.15,2.74,49.66,49.66,0,0,1,16.38,8.21A41.13,41.13,0,0,1,960,409.73,40.22,40.22,0,0,1,964.3,428.76Zm-38.93,2.78a21.16,21.16,0,0,0-1-6.69,14.8,14.8,0,0,0-3-5.26,13.5,13.5,0,0,0-4.86-3.48,17.13,17.13,0,0,0-6.83-1.26,26.78,26.78,0,0,0-3.38.22,24.15,24.15,0,0,0-3.22.65L901.74,448h2.09a31.45,31.45,0,0,0,7.6-1,22.59,22.59,0,0,0,7-3,16.31,16.31,0,0,0,5-5.12A13.86,13.86,0,0,0,925.37,431.54Z"/>
        <path d="M1017.21,390.18l-9.56,118.34L971,510.43V392.61Z"/>
        <path d="M1109.31,390.35,1104.44,427a30.94,30.94,0,0,0-5-1,50.19,50.19,0,0,0-5-.26,43.53,43.53,0,0,0-12.25,1.7,30.33,30.33,0,0,0-10.3,5.16,25.61,25.61,0,0,0-7.13,8.69A26.81,26.81,0,0,0,1062,453.6a19.43,19.43,0,0,0,1.44,7.82,14.42,14.42,0,0,0,4,5.48,16.8,16.8,0,0,0,6.17,3.21,27.55,27.55,0,0,0,7.82,1.05,34.43,34.43,0,0,0,6.69-.7,57.34,57.34,0,0,0,6.86-1.82,67.56,67.56,0,0,0,6.6-2.61q3.22-1.48,5.91-3l-3.47,40.83a55.22,55.22,0,0,1-7.34,3.09q-4,1.35-8.13,2.34a73.85,73.85,0,0,1-8.34,1.52,64,64,0,0,1-8,.53,51.9,51.9,0,0,1-37.19-15.3A52.29,52.29,0,0,1,1024,479.19a53.79,53.79,0,0,1-4-20.89,90.41,90.41,0,0,1,4.26-28,68.58,68.58,0,0,1,12.51-23.07,58.58,58.58,0,0,1,20.46-15.64q12.21-5.73,28.11-5.74a81.47,81.47,0,0,1,12.29,1A40.69,40.69,0,0,1,1109.31,390.35Z"/>
        <path d="M1225,388.09,1183.08,446l35.27,61.51L1178,514.6l-26.42-37.54-1.39,39.28-36.14,1.39,2.78-133.11,40.49,2.26-3.13,39.27,26.93-41.53Z"/>
        <path d="M1029,568.24a37.83,37.83,0,0,1-1.1,9.15,36,36,0,0,1-3.15,8.26,33.72,33.72,0,0,1-5,7.06,31.71,31.71,0,0,1-6.62,5.5,32.16,32.16,0,0,1-17.17,4.85,32.71,32.71,0,0,1-8.94-1.2,33.81,33.81,0,0,1-8-3.36,32,32,0,0,1-6.7-5.21,32.78,32.78,0,0,1-5.11-6.78,35.24,35.24,0,0,1-3.29-8,33.62,33.62,0,0,1-1.17-8.92,36.58,36.58,0,0,1,4.25-17.1,35.36,35.36,0,0,1,5-7.09,32.77,32.77,0,0,1,6.54-5.57,31.24,31.24,0,0,1,7.85-3.65,30,30,0,0,1,8.91-1.31,38.93,38.93,0,0,1,13.79,2.35,29.23,29.23,0,0,1,17.46,17.23A37.38,37.38,0,0,1,1029,568.24Zm-23.15,1.35a14.83,14.83,0,0,0-.65-4.35,11.84,11.84,0,0,0-1.9-3.75,9.82,9.82,0,0,0-3.1-2.66,8.7,8.7,0,0,0-4.25-1,10.35,10.35,0,0,0-4.38.89,10,10,0,0,0-3.31,2.42,10.63,10.63,0,0,0-2.11,3.6,12.82,12.82,0,0,0-.73,4.35,15.76,15.76,0,0,0,.62,4.38,12.92,12.92,0,0,0,1.88,4,10,10,0,0,0,3.1,2.87,8.28,8.28,0,0,0,4.3,1.09,9.71,9.71,0,0,0,7.72-3.57,12,12,0,0,0,2.08-3.78A13.5,13.5,0,0,0,1005.82,569.59Z"/>
        <path d="M1093.71,554.79a35.42,35.42,0,0,1-.7,7.37,22.45,22.45,0,0,1-2.21,6.08,22.2,22.2,0,0,1-3.91,5.11,35.28,35.28,0,0,1-5.79,4.48l12.41,22.1-23.46,4.59-8-22.21-6.47.21-.93,21.69H1032.2q.25-11.9.5-23.67t.54-23.67c.07-4,.14-8,.21-11.88s.21-7.89.42-11.89a66.89,66.89,0,0,1,14.31-3.62q3.57-.5,7.24-.68c2.45-.12,5-.18,7.54-.18a40.45,40.45,0,0,1,11.49,1.64,29.79,29.79,0,0,1,9.83,4.93,24.62,24.62,0,0,1,6.85,8.18A24.17,24.17,0,0,1,1093.71,554.79Zm-23.35,1.67a12.84,12.84,0,0,0-.6-4,8.83,8.83,0,0,0-1.77-3.15,8.2,8.2,0,0,0-2.92-2.09,10.33,10.33,0,0,0-4.09-.75,15.1,15.1,0,0,0-2,.13,12.45,12.45,0,0,0-1.93.39l-.83,19.39h1.25a19,19,0,0,0,4.56-.57,13.72,13.72,0,0,0,4.17-1.78,9.66,9.66,0,0,0,3-3.07A8.31,8.31,0,0,0,1070.36,556.46Z"/>
        <path d="M942,552.46l2.65,81L852.4,641l-4.32,181.73-80.3,8.74L757.49,642l-92.23,8.26L663,568.57Z"/>
        <path d="M964.3,741.22a59.31,59.31,0,0,1-1.17,12.29,37.27,37.27,0,0,1-3.7,10.13,36.36,36.36,0,0,1-6.51,8.51,57.56,57.56,0,0,1-9.65,7.47L964,816.46l-39.1,7.65-13.38-37-10.77.35-1.57,36.15H861.77q.43-19.82.83-39.45t.91-39.45q.18-10,.35-19.81t.69-19.8a111.24,111.24,0,0,1,23.85-6q6-.82,12.08-1.13T913,697.6a66.92,66.92,0,0,1,19.15,2.74,49.66,49.66,0,0,1,16.38,8.21A41.23,41.23,0,0,1,960,722.19,40.25,40.25,0,0,1,964.3,741.22ZM925.37,744a21.24,21.24,0,0,0-1-6.69,14.8,14.8,0,0,0-3-5.26,13.6,13.6,0,0,0-4.86-3.47,17.13,17.13,0,0,0-6.83-1.26,26.79,26.79,0,0,0-3.38.21,24.17,24.17,0,0,0-3.22.66l-1.39,32.32h2.09a31.47,31.47,0,0,0,7.6-1,22.57,22.57,0,0,0,7-2.95,16.24,16.24,0,0,0,5-5.13A13.81,13.81,0,0,0,925.37,744Z"/>
        <path d="M1052.57,699.69q-.51,8.16-1,16.16T1050.49,732l-36.84,1.91-.87,11h25.89l-1.91,26.93-26.06.87-.87,12.69h36.84q-.53,9.55-1.09,19t-1,18.9L969.69,825l2.78-125.29Z"/>
        <path d="M1165.09,817.5,1122,823.07l-5.22-19.64H1097l-4.34,19.64-44.31-4.35L1082.9,703l48.31-2.43Zm-51.44-40.66-6.6-30.23-6.43,30.23Z"/>
        <path d="M1248.5,700.73l-.87,36.84-25.89,1-6.6,82.37-36.67,1.91.17-82.37-25.89,1.39,1-41Z"/>
      </g>
    </g>
  </g>
</svg>
